<?xml version="1.0" encoding="UTF-8" standalone="no"?>
<!-- Generator: Adobe Illustrator 17.0.0, SVG Export Plug-In  -->

<svg
   xmlns:dc="http://purl.org/dc/elements/1.1/"
   xmlns:cc="http://creativecommons.org/ns#"
   xmlns:rdf="http://www.w3.org/1999/02/22-rdf-syntax-ns#"
   xmlns:svg="http://www.w3.org/2000/svg"
   xmlns="http://www.w3.org/2000/svg"
   xmlns:sodipodi="http://sodipodi.sourceforge.net/DTD/sodipodi-0.dtd"
   xmlns:inkscape="http://www.inkscape.org/namespaces/inkscape"
   version="1.1"
   x="0px"
   y="0px"
   width="55"
   height="15"
   viewBox="0 0 55.000002 15"
   enable-background="new 0 0 66.101 55.106"
   xml:space="preserve"
   id="svg138"
   sodipodi:docname="logo2.svg"
   inkscape:version="0.92.4 (5da689c313, 2019-01-14)"><metadata
   id="metadata142"><rdf:RDF><cc:Work
       rdf:about=""><dc:format>image/svg+xml</dc:format><dc:type
         rdf:resource="http://purl.org/dc/dcmitype/StillImage" /><dc:title></dc:title></cc:Work></rdf:RDF></metadata><sodipodi:namedview
   pagecolor="#ffffff"
   bordercolor="#666666"
   borderopacity="1"
   objecttolerance="10"
   gridtolerance="10"
   guidetolerance="10"
   inkscape:pageopacity="0"
   inkscape:pageshadow="2"
   inkscape:window-width="2560"
   inkscape:window-height="1017"
   id="namedview140"
   showgrid="false"
   inkscape:zoom="32"
   inkscape:cx="40.031407"
   inkscape:cy="8.9763246"
   inkscape:window-x="-8"
   inkscape:window-y="-8"
   inkscape:window-maximized="1"
   inkscape:current-layer="g4035" />
<defs
   id="defs2">
</defs>
<g
   id="g136"
   transform="matrix(0.40176838,0,0,0.40176838,0,-40.105999)">
	<g
   id="g58">
		
		
		
		
		
		
		
		
		
		
		
		
		
		
		
		
		
		
		
		
		
		
		
		
		
		
		
	</g>
	
	
	
	
	
	
	
	
	
	
	
	
	
	
	
		
	
		
	
	
	
	
	
	
	
	
	
	
	<g
   id="g4035"
   transform="matrix(1.1276479,0,0,1.1227204,-24.140148,49.795509)"><path
     style="fill:#1f2259"
     inkscape:connector-curvature="0"
     id="path4"
     d="m 81.454396,65.578371 c 0,0.532 -0.213,0.973 -0.638,1.313 -0.424,0.334 -0.923,0.5 -1.497,0.5 -0.16,0 -0.288,-0.006 -0.385,-0.018 -0.089,-0.02 -0.196,-0.06 -0.319,-0.116 0.445,0 0.842,-0.135 1.198,-0.406 0.355,-0.277 0.53,-0.636 0.53,-1.081 0,-0.403 -0.126,-0.705 -0.377,-0.898 -0.25,-0.2 -0.582,-0.298 -0.994,-0.298 -0.225,0 -0.449,0.019 -0.675,0.057 v 4.361 c 0,0.343 0.025,0.599 0.077,0.772 0.052,0.169 0.193,0.315 0.425,0.446 l -1.921,0.027 c 0.18,-0.078 0.297,-0.214 0.348,-0.416 0.058,-0.197 0.088,-0.436 0.088,-0.715 v -0.221 -3.646 -0.233 c 0,-0.289 -0.026,-0.522 -0.077,-0.705 -0.052,-0.186 -0.169,-0.316 -0.349,-0.394 l 2.345,-0.03 c 0.656,0 1.19,0.151 1.603,0.454 0.411,0.298 0.618,0.715 0.618,1.247" /><path
     style="fill:#1f2259"
     inkscape:connector-curvature="0"
     id="path6"
     d="m 86.271396,70.239371 v -0.637 c -0.2,0.263 -0.472,0.463 -0.812,0.6 -0.34,0.128 -0.701,0.192 -1.079,0.192 -0.35,0 -0.674,-0.057 -0.977,-0.165 -0.304,-0.109 -0.564,-0.283 -0.78,-0.521 -0.22,-0.237 -0.354,-0.494 -0.405,-0.771 -0.053,-0.283 -0.077,-0.655 -0.077,-1.119 v -2.587 -0.3 c 0,-0.258 -0.03,-0.475 -0.088,-0.655 -0.052,-0.181 -0.164,-0.303 -0.339,-0.366 l 1.836,-0.03 c -0.175,0.077 -0.29,0.213 -0.35,0.406 -0.052,0.192 -0.077,0.424 -0.077,0.695 v 0.25 2.587 c 0,0.63 0.129,1.104 0.388,1.418 0.263,0.309 0.646,0.463 1.148,0.463 0.283,0 0.547,-0.055 0.792,-0.162 0.251,-0.116 0.439,-0.266 0.568,-0.445 0.129,-0.18 0.202,-0.324 0.222,-0.434 0.019,-0.111 0.03,-0.281 0.03,-0.513 v -2.914 -0.3 c 0,-0.258 -0.03,-0.475 -0.085,-0.655 -0.055,-0.181 -0.167,-0.303 -0.342,-0.366 l 1.846,-0.03 0.011,0.03 c -0.183,0.063 -0.301,0.196 -0.359,0.396 -0.052,0.197 -0.077,0.435 -0.077,0.715 v 0.221 3.646 0.233 c 0,0.294 0.025,0.533 0.077,0.713 0.053,0.182 0.172,0.307 0.359,0.378 z" /><path
     style="fill:#1f2259"
     inkscape:connector-curvature="0"
     id="path8"
     d="m 92.487396,70.239371 h -4.024 c 0.18,-0.078 0.297,-0.216 0.348,-0.413 0.059,-0.2 0.089,-0.438 0.089,-0.718 v -0.221 -3.646 -0.243 c 0,-0.295 -0.028,-0.533 -0.079,-0.713 -0.051,-0.18 -0.171,-0.307 -0.357,-0.376 l 3.089,-0.03 h 0.174 c 0.121,0 0.215,-0.016 0.28,-0.049 l 0.028,1.131 c -0.149,-0.154 -0.318,-0.258 -0.511,-0.309 -0.188,-0.052 -0.406,-0.077 -0.658,-0.077 -0.224,0 -0.408,0.005 -0.549,0.019 -0.136,0.007 -0.281,0.022 -0.436,0.051 v 1.803 h 1.151 0.211 c 0.077,-0.006 0.148,-0.025 0.213,-0.059 l 0.029,1.024 c -0.085,-0.123 -0.197,-0.196 -0.338,-0.222 -0.138,-0.031 -0.319,-0.048 -0.55,-0.048 h -0.717 v 2.287 l 1.228,0.114 c 0.031,0.007 0.066,0.01 0.106,0.01 h 0.116 c 0.602,0 1.129,-0.193 1.571,-0.579 z" /><path
     style="fill:#1f2259"
     inkscape:connector-curvature="0"
     id="path10"
     d="m 99.186396,70.239371 h -0.888 c -0.489,0 -0.865,-0.16 -1.129,-0.481 l -1.179,-1.459 -0.887,-1.36 c 0.47,-0.071 0.864,-0.214 1.188,-0.424 0.32,-0.217 0.482,-0.538 0.482,-0.956 0,-0.335 -0.121,-0.598 -0.367,-0.79 -0.238,-0.193 -0.53,-0.291 -0.878,-0.291 -0.123,0 -0.245,0.013 -0.367,0.03 -0.122,0.019 -0.219,0.034 -0.289,0.047 v 4.333 0.242 c 0,0.296 0.025,0.532 0.077,0.714 0.051,0.18 0.171,0.302 0.357,0.368 l -1.844,0.027 c 0.174,-0.069 0.285,-0.202 0.337,-0.396 0.059,-0.194 0.089,-0.421 0.089,-0.684 v -0.272 -3.646 -0.311 c 0,-0.258 -0.029,-0.475 -0.089,-0.655 -0.052,-0.181 -0.163,-0.303 -0.337,-0.366 l 2.297,-0.03 c 0.632,0 1.119,0.146 1.468,0.437 0.354,0.288 0.53,0.665 0.53,1.129 0,0.409 -0.152,0.773 -0.453,1.088 -0.298,0.312 -0.658,0.514 -1.082,0.61 l 1.389,1.745 c 0.2,0.244 0.439,0.486 0.716,0.724 0.277,0.232 0.563,0.439 0.859,0.627" /><path
     style="fill:#1f2259"
     inkscape:connector-curvature="0"
     id="path12"
     d="m 102.6914,64.961371 c -0.072,-0.149 -0.185,-0.25 -0.338,-0.299 -0.148,-0.059 -0.32,-0.087 -0.521,-0.087 h -0.869 v 4.41 c 0,0.342 0.026,0.599 0.078,0.772 0.053,0.166 0.193,0.317 0.424,0.454 l -1.911004,0.029 c 0.174,-0.08 0.287,-0.216 0.337,-0.407 0.06,-0.192 0.089,-0.424 0.089,-0.696 v -0.25 -4.312 h -0.851 c -0.224,0 -0.435,0.031 -0.637,0.095 -0.198,0.06 -0.369,0.154 -0.51,0.291 l 0.307,-1.146 c 0.138,0.043 0.268,0.064 0.396,0.064 h 3.841004 c 0.105,0 0.188,-0.003 0.253,-0.009 0.063,-0.013 0.13,-0.032 0.192,-0.056 z" /><path
     style="fill:#1f2259"
     inkscape:connector-curvature="0"
     id="path14"
     d="m 108.9554,67.191371 c 0,-0.753 -0.221,-1.404 -0.665,-1.949 -0.438,-0.554 -1.027,-0.831 -1.766,-0.831 -0.74,0 -1.337,0.242 -1.785,0.725 -0.445,0.475 -0.667,1.083 -0.667,1.824 0,0.712 0.233,1.35 0.696,1.91 0.462,0.553 1.054,0.829 1.775,0.829 0.727,0 1.309,-0.233 1.746,-0.705 0.445,-0.469 0.666,-1.071 0.666,-1.803 m 1.099,-0.195 c 0,0.972 -0.347,1.784 -1.041,2.434 -0.694,0.644 -1.534,0.965 -2.52,0.965 -0.984,0 -1.817,-0.313 -2.498,-0.938 -0.684,-0.629 -1.024,-1.434 -1.024,-2.411 0,-0.928 0.347,-1.712 1.043,-2.357 0.702,-0.648 1.561,-0.973 2.577,-0.973 0.995,0 1.823,0.322 2.481,0.965 0.656,0.642 0.982,1.414 0.982,2.315" /><path
     style="fill:#1f2259"
     inkscape:connector-curvature="0"
     id="path16"
     d="m 118.9794,63.879371 -1.899,4.94 -0.656,1.709 c -0.406,-0.263 -0.672,-0.455 -0.801,-0.578 -0.122,-0.129 -0.249,-0.365 -0.376,-0.705 l -1.458,-3.955 c -0.096,-0.252 -0.191,-0.504 -0.28,-0.756 -0.122,-0.269 -0.278,-0.479 -0.472,-0.625 l 1.409,-0.03 -0.012,0.117 c 0,0.096 0.017,0.198 0.051,0.307 0.037,0.105 0.106,0.301 0.211,0.589 l 1.533,4.209 1.314,-3.465 c 0.109,-0.291 0.188,-0.521 0.24,-0.695 0.058,-0.18 0.087,-0.347 0.087,-0.501 0,-0.271 -0.112,-0.447 -0.338,-0.53 z" /><path
     style="fill:#1f2259"
     inkscape:connector-curvature="0"
     id="path18"
     d="m 123.2784,67.143371 -0.946,-2.443 -0.955,2.443 z m 0.676,3.096 c 0.232,-0.115 0.346,-0.238 0.346,-0.366 0,-0.077 -0.026,-0.185 -0.085,-0.329 -0.058,-0.14 -0.101,-0.251 -0.125,-0.327 l -0.531,-1.362 h -2.435 l -0.501,1.362 c -0.051,0.136 -0.091,0.248 -0.117,0.337 -0.023,0.085 -0.036,0.169 -0.036,0.252 0,0.09 0.023,0.168 0.075,0.241 0.06,0.063 0.148,0.119 0.271,0.165 l -1.776,0.027 c 0.245,-0.137 0.423,-0.302 0.532,-0.493 0.107,-0.192 0.243,-0.493 0.405,-0.907 l 1.612,-4.032 c 0.043,-0.121 0.079,-0.227 0.104,-0.309 0.032,-0.09 0.049,-0.169 0.049,-0.232 0,-0.092 -0.022,-0.164 -0.068,-0.223 -0.036,-0.057 -0.114,-0.103 -0.23,-0.134 l 1.525,-0.03 2.006,4.94 c 0.168,0.413 0.305,0.719 0.416,0.917 0.114,0.193 0.297,0.351 0.541,0.476 z" /><path
     style="fill:#1f2259"
     inkscape:connector-curvature="0"
     id="path20"
     d="m 132.0524,70.239371 h -0.889 c -0.49,0 -0.864,-0.16 -1.129,-0.481 l -1.177,-1.459 -0.887,-1.36 c 0.469,-0.071 0.863,-0.214 1.186,-0.424 0.321,-0.217 0.483,-0.538 0.483,-0.956 0,-0.335 -0.124,-0.598 -0.368,-0.79 -0.238,-0.193 -0.531,-0.291 -0.879,-0.291 -0.121,0 -0.244,0.013 -0.366,0.03 -0.122,0.019 -0.218,0.034 -0.288,0.047 v 4.333 0.242 c 0,0.296 0.024,0.532 0.076,0.714 0.051,0.18 0.172,0.302 0.357,0.368 l -1.843,0.027 c 0.173,-0.069 0.287,-0.202 0.337,-0.396 0.061,-0.194 0.087,-0.421 0.087,-0.684 v -0.272 -3.646 -0.311 c 0,-0.258 -0.026,-0.475 -0.087,-0.655 -0.05,-0.181 -0.164,-0.303 -0.337,-0.366 l 2.298,-0.03 c 0.63,0 1.119,0.146 1.466,0.437 0.354,0.288 0.532,0.665 0.532,1.129 0,0.409 -0.153,0.773 -0.455,1.088 -0.296,0.312 -0.655,0.514 -1.08,0.61 l 1.39,1.745 c 0.198,0.244 0.438,0.486 0.714,0.724 0.276,0.232 0.562,0.439 0.859,0.627" /><path
     style="fill:#1f2259"
     inkscape:connector-curvature="0"
     id="path22"
     d="m 135.4594,67.143371 -0.944,-2.443 -0.956,2.443 z m 0.675,3.096 c 0.233,-0.115 0.349,-0.238 0.349,-0.366 0,-0.077 -0.029,-0.185 -0.085,-0.329 -0.059,-0.14 -0.101,-0.251 -0.128,-0.327 l -0.529,-1.362 h -2.433 l -0.502,1.362 c -0.052,0.136 -0.09,0.248 -0.116,0.337 -0.026,0.085 -0.038,0.169 -0.038,0.252 0,0.09 0.026,0.168 0.077,0.241 0.059,0.063 0.146,0.119 0.271,0.165 l -1.776,0.027 c 0.244,-0.137 0.421,-0.302 0.53,-0.493 0.109,-0.192 0.243,-0.493 0.406,-0.907 l 1.61,-4.032 c 0.045,-0.121 0.081,-0.227 0.106,-0.309 0.031,-0.09 0.047,-0.169 0.047,-0.232 0,-0.092 -0.021,-0.164 -0.066,-0.223 -0.038,-0.057 -0.117,-0.103 -0.23,-0.134 l 1.524,-0.03 2.006,4.94 c 0.169,0.413 0.308,0.719 0.416,0.917 0.115,0.193 0.295,0.351 0.54,0.476 z" /><path
     style="fill:#1f2259"
     inkscape:connector-curvature="0"
     id="path24"
     d="m 142.8254,68.397371 c 0,0.532 -0.248,1 -0.743,1.399 -0.488,0.397 -1.103,0.599 -1.843,0.599 -0.31,0 -0.605,-0.022 -0.888,-0.068 -0.284,-0.045 -0.564,-0.119 -0.84,-0.224 l -0.279,-1.205 c 0.288,0.25 0.617,0.448 0.982,0.59 0.368,0.141 0.744,0.211 1.13,0.211 0.327,0 0.642,-0.085 0.936,-0.261 0.297,-0.18 0.445,-0.429 0.445,-0.742 0,-0.404 -0.277,-0.749 -0.831,-1.032 -0.553,-0.282 -1.093,-0.557 -1.621,-0.819 -0.578,-0.383 -0.869,-0.859 -0.869,-1.44 0,-0.565 0.236,-0.987 0.705,-1.263 0.477,-0.277 1.049,-0.416 1.718,-0.416 0.509,0 0.988,0.069 1.437,0.215 v 1.089 c -0.18,-0.181 -0.409,-0.325 -0.694,-0.435 -0.276,-0.116 -0.551,-0.176 -0.819,-0.176 -0.335,0 -0.627,0.073 -0.878,0.214 -0.245,0.137 -0.368,0.358 -0.368,0.666 0,0.362 0.273,0.687 0.82,0.976 0.553,0.282 1.099,0.557 1.631,0.819 0.578,0.366 0.869,0.799 0.869,1.303" /><path
     style="fill:#1f2259"
     inkscape:connector-curvature="0"
     id="path26"
     d="m 85.049396,60.409371 c -0.773,0.144 -1.355,0.242 -1.751,0.294 -0.393,0.062 -0.839,0.09 -1.338,0.09 -1.621,0 -2.899,-0.399 -3.834,-1.209 -0.934,-0.805 -1.402,-1.864 -1.402,-3.177 0,-1.383 0.489,-2.478 1.468,-3.281 0.976,-0.817 2.26,-1.224 3.847,-1.224 0.668,0 1.347,0.074 2.032,0.219 v 1.48 c -0.256,-0.266 -0.598,-0.459 -1.029,-0.58 -0.418,-0.129 -0.857,-0.192 -1.312,-0.192 -1.022,0 -1.867,0.308 -2.536,0.927 -0.669,0.618 -1.002,1.439 -1.002,2.469 0,1.04 0.355,1.904 1.067,2.603 0.714,0.692 1.583,1.041 2.611,1.041 0.635,0 1.235,-0.083 1.803,-0.246 v -1.851 c 0,-0.396 -0.035,-0.71 -0.103,-0.938 -0.069,-0.242 -0.232,-0.412 -0.489,-0.518 l 1.969,-0.036 c -0.024,0.069 -0.042,0.162 -0.05,0.282 -0.01,0.111 -0.014,0.214 -0.014,0.309 v 2.958 0.272 c 0,0.108 0.021,0.213 0.063,0.308" /><path
     style="fill:#1f2259"
     inkscape:connector-curvature="0"
     id="path28"
     d="m 93.637396,60.589371 h -1.185 c -0.653,0 -1.152,-0.214 -1.506,-0.644 l -1.569,-1.942 -1.183,-1.815 c 0.625,-0.096 1.151,-0.281 1.582,-0.566 0.428,-0.291 0.643,-0.717 0.643,-1.273 0,-0.447 -0.163,-0.8 -0.488,-1.056 -0.317,-0.259 -0.709,-0.386 -1.172,-0.386 -0.163,0 -0.325,0.012 -0.488,0.04 -0.163,0.024 -0.292,0.045 -0.387,0.062 v 5.778 0.32 c 0,0.396 0.035,0.713 0.103,0.952 0.069,0.242 0.228,0.404 0.477,0.491 l -2.458,0.038 c 0.233,-0.095 0.383,-0.271 0.45,-0.529 0.078,-0.257 0.117,-0.56 0.117,-0.912 v -0.36 -4.865 -0.412 c 0,-0.342 -0.039,-0.635 -0.117,-0.874 -0.067,-0.24 -0.217,-0.402 -0.45,-0.488 l 3.066,-0.039 c 0.838,0 1.49,0.192 1.953,0.581 0.472,0.386 0.707,0.887 0.707,1.504 0,0.549 -0.199,1.034 -0.602,1.453 -0.396,0.412 -0.876,0.684 -1.442,0.812 l 1.853,2.328 c 0.267,0.326 0.584,0.647 0.951,0.966 0.368,0.307 0.751,0.587 1.145,0.836" /><path
     style="fill:#1f2259"
     inkscape:connector-curvature="0"
     id="path30"
     d="m 98.465396,56.459371 -1.26,-3.258 -1.275,3.258 z m 0.901,4.13 c 0.31,-0.154 0.464,-0.316 0.464,-0.488 0,-0.104 -0.038,-0.25 -0.116,-0.438 -0.076,-0.188 -0.132,-0.335 -0.168,-0.439 l -0.706,-1.812 h -3.243 l -0.669,1.812 c -0.067,0.181 -0.12,0.333 -0.154,0.453 -0.034,0.113 -0.052,0.222 -0.052,0.333 0,0.12 0.034,0.228 0.102,0.323 0.078,0.085 0.199,0.157 0.361,0.219 l -2.368,0.038 c 0.327,-0.18 0.562,-0.398 0.707,-0.657 0.146,-0.256 0.327,-0.659 0.542,-1.21 l 2.149,-5.379 c 0.06,-0.161 0.106,-0.299 0.14,-0.411 0.044,-0.121 0.066,-0.224 0.066,-0.309 0,-0.121 -0.03,-0.217 -0.09,-0.297 -0.054,-0.077 -0.154,-0.136 -0.309,-0.179 l 2.034,-0.039 2.676004,6.589 c 0.223,0.55 0.407,0.955 0.554,1.223 0.154,0.258 0.395,0.467 0.72,0.631 z" /><path
     style="fill:#1f2259"
     inkscape:connector-curvature="0"
     id="path32"
     d="m 110.6574,53.768371 v 6.59 0.644 c -0.43,-0.146 -0.768,-0.323 -1.018,-0.529 -0.248,-0.206 -0.535,-0.517 -0.862,-0.938 l -4.428,-5.613 v 4.993 c 0,0.453 0.035,0.798 0.104,1.03 0.069,0.222 0.257,0.423 0.566,0.604 l -2.277,0.04 c 0.309,-0.198 0.497,-0.411 0.565,-0.644 0.077,-0.241 0.118,-0.585 0.118,-1.03 v -5.147 c 0,-0.463 -0.036,-0.803 -0.105,-1.016 -0.067,-0.224 -0.256,-0.423 -0.565,-0.605 l 1.879,-0.038 c 0.034,0.121 0.099,0.231 0.193,0.335 l 0.181,0.257 4.722,5.958 v -4.891 c 0,-0.453 -0.036,-0.793 -0.103,-1.016 -0.069,-0.231 -0.258,-0.434 -0.566,-0.605 l 2.266,-0.038 c -0.301,0.19 -0.489,0.404 -0.567,0.644 -0.07,0.238 -0.103,0.579 -0.103,1.015" /><path
     style="fill:#1f2259"
     inkscape:connector-curvature="0"
     id="path34"
     d="m 117.7884,60.589371 h -5.367 c 0.242,-0.105 0.396,-0.287 0.465,-0.553 0.077,-0.267 0.115,-0.584 0.115,-0.952 v -0.297 -4.865 -0.32 c 0,-0.395 -0.034,-0.711 -0.102,-0.953 -0.069,-0.241 -0.229,-0.407 -0.478,-0.501 l 4.119,-0.039 h 0.231 c 0.162,0 0.286,-0.021 0.374,-0.064 l 0.038,1.504 c -0.196,-0.205 -0.426,-0.341 -0.684,-0.41 -0.247,-0.069 -0.539,-0.104 -0.875,-0.104 -0.299,0 -0.543,0.011 -0.731,0.027 -0.182,0.008 -0.374,0.03 -0.579,0.064 v 2.407 h 1.531 0.283 c 0.101,-0.008 0.196,-0.035 0.282,-0.077 l 0.038,1.365 c -0.111,-0.165 -0.262,-0.262 -0.449,-0.298 -0.181,-0.044 -0.427,-0.062 -0.732,-0.062 h -0.953 v 3.048 l 1.633,0.155 c 0.045,0.009 0.09,0.014 0.141,0.014 h 0.154 c 0.81,0 1.507,-0.257 2.099,-0.773 z" /><path
     style="fill:#1f2259"
     inkscape:connector-curvature="0"
     id="path36"
     d="m 127.0054,60.589371 h -1.184 c -0.653,0 -1.153,-0.214 -1.504,-0.644 l -1.572,-1.942 -1.183,-1.815 c 0.626,-0.096 1.152,-0.281 1.582,-0.566 0.429,-0.291 0.644,-0.717 0.644,-1.273 0,-0.447 -0.162,-0.8 -0.489,-1.056 -0.317,-0.259 -0.708,-0.386 -1.171,-0.386 -0.163,0 -0.325,0.012 -0.489,0.04 -0.163,0.024 -0.292,0.045 -0.386,0.062 v 5.778 0.32 c 0,0.396 0.035,0.713 0.102,0.952 0.068,0.242 0.228,0.404 0.477,0.491 l -2.458,0.038 c 0.233,-0.095 0.381,-0.271 0.45,-0.529 0.077,-0.257 0.118,-0.56 0.118,-0.912 v -0.36 -4.865 -0.412 c 0,-0.342 -0.041,-0.635 -0.118,-0.874 -0.069,-0.24 -0.217,-0.402 -0.45,-0.488 l 3.063,-0.039 c 0.84,0 1.491,0.192 1.956,0.581 0.473,0.386 0.707,0.887 0.707,1.504 0,0.549 -0.202,1.034 -0.604,1.453 -0.395,0.412 -0.875,0.684 -1.442,0.812 l 1.854,2.328 c 0.266,0.326 0.582,0.647 0.952,0.966 0.368,0.307 0.752,0.587 1.145,0.836" /><path
     style="fill:#1f2259"
     inkscape:connector-curvature="0"
     id="path38"
     d="m 134.3964,56.522371 c 0,-1.001 -0.297,-1.869 -0.888,-2.6 -0.584,-0.736 -1.369,-1.106 -2.355,-1.106 -0.985,0 -1.78,0.322 -2.382,0.967 -0.591,0.633 -0.887,1.445 -0.887,2.431 0,0.953 0.309,1.802 0.926,2.548 0.617,0.738 1.408,1.107 2.368,1.107 0.969,0 1.746,-0.312 2.33,-0.938 0.591,-0.629 0.888,-1.431 0.888,-2.409 m 1.466,-0.257 c 0,1.297 -0.463,2.376 -1.389,3.242 -0.927,0.86 -2.045,1.288 -3.358,1.288 -1.312,0 -2.423,-0.416 -3.333,-1.25 -0.91,-0.841 -1.365,-1.912 -1.365,-3.215 0,-1.236 0.464,-2.283 1.393,-3.141 0.934,-0.867 2.078,-1.299 3.435,-1.299 1.327,0 2.432,0.428 3.307,1.287 0.874,0.855 1.31,1.889 1.31,3.088" /><path
     style="fill:#1f2259"
     inkscape:connector-curvature="0"
     id="path40"
     d="m 142.7114,58.129371 c 0,0.715 -0.33,1.335 -0.988,1.868 -0.652,0.532 -1.474,0.796 -2.458,0.796 -0.413,0 -0.809,-0.029 -1.186,-0.09 -0.376,-0.06 -0.75,-0.155 -1.119,-0.294 l -0.371,-1.61 c 0.386,0.335 0.822,0.598 1.31,0.785 0.489,0.189 0.991,0.284 1.505,0.284 0.438,0 0.854,-0.115 1.25,-0.349 0.393,-0.239 0.592,-0.568 0.592,-0.99 0,-0.54 -0.369,-1 -1.108,-1.378 -0.735,-0.376 -1.457,-0.74 -2.162,-1.093 -0.77,-0.505 -1.155,-1.145 -1.155,-1.916 0,-0.757 0.312,-1.317 0.938,-1.688 0.636,-0.368 1.397,-0.553 2.291,-0.553 0.678,0 1.316,0.093 1.916,0.283 v 1.453 c -0.239,-0.239 -0.548,-0.432 -0.926,-0.579 -0.369,-0.153 -0.733,-0.23 -1.095,-0.23 -0.446,0 -0.836,0.095 -1.171,0.283 -0.325,0.18 -0.488,0.475 -0.488,0.889 0,0.479 0.365,0.913 1.095,1.299 0.737,0.378 1.462,0.741 2.174,1.093 0.77,0.49 1.156,1.07 1.156,1.737" /><path
     style="fill:#ffffff"
     inkscape:connector-curvature="0"
     id="path42"
     d="m 49.572873,45.292371 c 10.314,0 18.882,8.598 18.882,18.906 0,3.822 -1.306,6.797 -5.553,6.797 -4.465,0 -8.858,-1.022 -13.329,-1.022 -4.486,0 -8.893,1.022 -13.373,1.022 -4.264,0 -5.53,-2.98 -5.53,-6.797 0,-10.354 8.546,-18.906 18.903,-18.906" /><path
     style="fill:#1f2259"
     inkscape:connector-curvature="0"
     id="path44"
     d="m 65.078873,66.440371 c -0.305,0.234 -7.764,1.682 -9.396,2.356 -0.505,-0.461 -0.774,-0.823 -1.532,-0.823 -2.029,0 -4.223,0.777 -6.4,0.777 -5.094,0 -9.482,-2.754 -14.551,-2.754 -2.041,0 -3.881,0.305 -5.842,0.821 1.923,-0.877 3.877,-1.802 5.685,-2.888 0.143,-0.086 0.399,-0.052 0.557,-0.066 l 0.354,-0.044 0.187,-0.016 0.11,-0.021 0.074,-0.017 0.074,-0.017 -0.074,0.076 -0.126,0.111 -0.118,0.096 -0.222,0.169 -0.422,0.312 c -0.186,0.106 -0.571,0.345 -0.571,0.571 0,0.056 -0.017,0.087 0.046,0.087 0.169,0 0.517,-0.221 0.644,-0.332 l 0.332,-0.289 0.178,-0.156 0.118,-0.109 0.059,-0.046 0.113,-0.064 -0.075,0.087 -0.068,0.08 -0.088,0.113 -0.153,0.23 -0.225,0.37 c -0.087,0.108 -0.369,0.499 -0.369,0.605 0,0.159 0.164,0.179 0.289,0.179 0.817,0 0.937,-0.537 1.399,-0.933 0.316,-0.273 1.667,0.064 1.667,-0.646 0,-0.271 0.422,-0.295 0.732,-0.398 0.602,0.506 1.788,2.354 2.399,2.354 0.33,0 0.045,-0.277 0.045,-0.459 l -0.045,-0.185 v -0.067 l 0.245,0.333 c 0.383,0.448 0.778,0.942 1.354,1.133 0.075,0.025 0.15,0 0.222,0 h 0.179 c 0.044,-0.26 -0.182,-0.472 -0.326,-0.688 l -0.082,-0.141 -0.015,-0.06 c 0.642,0 1.666,0.866 2,0.866 l 0.155,-0.179 -0.089,-0.044 -0.268,-0.198 -1,-0.802 -0.089,-0.378 c 0.485,-0.044 0.717,0.778 1.201,0.778 l 0.089,-0.111 c 0,-0.095 -0.164,-0.097 -0.229,-0.162 -0.208,-0.208 -0.342,-0.422 -0.521,-0.646 l -0.139,-0.259 -0.053,-0.134 c 0.403,-0.043 0.631,0.622 1.051,0.622 l 0.021,-0.108 c 0.072,-0.095 0.126,-0.136 0.246,-0.136 0.521,0 2.235,1.479 2.711,1.823 0.146,0 0.243,-0.111 0.332,-0.157 l 0.09,-0.044 c 0,-0.131 -0.205,-0.159 -0.297,-0.254 -0.327,-0.324 -0.553,-0.946 -1.015,-0.946 l 0.135,0.022 0.244,0.021 c 0.271,0 0.511,-0.029 0.769,0.067 0.723,0.272 1.298,0.856 1.984,1.2 -0.023,-0.052 0.111,-0.143 0.111,-0.2 l -0.267,-0.268 c -1.144,-1.247 -2.113,-1.726 -3.132,-3.086 0.673,0.592 4.334,3.199 5.088,3.199 0.04,0 0.087,-0.019 0.087,-0.067 0,-0.255 -1.399,-0.905 -1.399,-1.289 0,-0.077 0.087,-0.089 0.156,-0.089 0.284,0 1.089,0.622 1.378,0.622 l 0.377,-0.067 0.111,-0.023 c 0,-0.203 -0.483,-0.131 -0.511,-0.33 1.031,-0.283 1.963,-0.652 2.953,-1.046 -0.417,0.418 -0.713,0.617 -1.19,0.977 -0.093,0.069 -0.43,0.198 -0.43,0.312 0,0.143 0.647,0 0.688,0 l -0.089,0.043 -0.2,0.09 c -0.143,0.071 -0.578,0.229 -0.578,0.378 0,0.052 0.122,0.09 0.157,0.09 0.303,0 2.132,-0.899 2.132,-1.09 -0.383,0 -0.629,0.266 -0.999,0.266 h -0.062 c 0,-0.125 0.235,-0.091 0.343,-0.155 0.306,-0.186 0.862,-0.488 1.17,-0.488 l 0.108,0.023 0.092,-0.023 c 0,0.41 -0.957,1.065 -0.957,1.532 0,0.08 0.046,0.111 0.111,0.111 0.425,0 1.291,-1.335 1.422,-1.621 0.072,0.072 0.165,0.083 0.25,0.126 l 0.06,0.028 c 0.046,0.384 -0.199,0.808 -0.199,1.201 l 0.045,0.09 c 0.252,0 0.205,-0.646 0.489,-0.646 0.064,0 0.131,-0.069 0.11,0.067 l -0.022,0.064 v 0.578 c 0,0.129 0.078,0.422 0.245,0.422 0.278,0 0.109,-1.289 0.109,-1.509 0,-0.158 0.023,-0.135 0.135,-0.135 0.245,0 0.379,1.333 0.665,1.333 l 0.046,-0.176 c 0.048,-0.205 0.11,-0.406 0.11,-0.578 0,-0.082 -0.05,-0.157 0.045,-0.157 0.129,0 0.312,-0.384 0.312,-0.488 0,-0.313 -0.513,-0.28 -0.513,-0.4 0,-0.23 0.392,-0.312 0.623,-0.312 0.335,0 0.867,1 0.867,1.29 0,0.114 0.317,0.51 0.467,0.51 0.054,0 0.065,-0.168 0.065,-0.199 l 0.022,-0.688 c 0,0 -0.457,-0.552 -0.466,-0.646 0.562,0.357 1.149,0.67 1.762,0.933 l 0.415,0.178 0.156,0.044 -0.023,-0.176 -0.444,-0.296 -0.245,-0.183 -0.087,-0.068 c 1.286,-0.045 3.366,1.061 4.641,1.51" /><path
     style="fill:#45a34e"
     inkscape:connector-curvature="0"
     id="path46"
     d="m 51.728873,70.638371 c 3.31,-1.752 7.008,-2.618 10.752,-2.618 4.694,0 9.52,1.387 13.13,4.472 0.372,0.319 1.445,1.443 1.445,1.971 l -0.023,0.687 c -0.304,0.812 -1.732,1.067 -2.467,1.067 -4.755,0 -9.356,-1.911 -14.239,-1.911 -6.59,0 -11.308,3.53 -17.284,3.53 -1.021,0 -8.064,-0.719 -8.064,-2.263 0,-0.97 2.859,-0.867 3.777,-0.867 h 0.376 c -1.925,-0.446 -3.764,-0.557 -5.73,-0.557 -3.958,0 -8.429,2.401 -10.397,2.401 -0.206,0 -0.551,-0.214 -0.645,-0.399 l -0.045,-0.424 c 0,-1.839 4.849,-4.966 7,-5.311 -2.207,0.266 -4.533,0.513 -6.755,0.513 -0.714,0 -1.133,-0.239 -1.133,-0.956 0,-3.503 12.362,-4.286 15.483,-4.286 1.619,0 4.787,2.141 6.51,2.732 2.168,0.742 4.788,0.91 7.065,0.91 1.023,0 2.166,-0.129 3.089,-0.6 -0.658,0.613 -1.327,1.159 -1.845,1.909" /><path
     style="fill:#07743b"
     inkscape:connector-curvature="0"
     id="path48"
     d="m 24.492873,66.886371 c -0.193,0.312 -0.245,0.64 -0.245,0.998 0,0.479 0.735,0.8 1.134,0.8 0.944,0 4.926,-1.775 8.064,-1.775 6.427,0 11.564,3.146 18.683,2.999 -5.143,3.017 -7.392,2.776 -12.995,2.776 -0.691,0 -1.067,0.618 -1.067,1.243 0,0.054 0.172,1.311 0.423,0.778 0.94,0.191 1.906,0.268 2.866,0.268 8.168,0 11.41,-5.511 21.77,-5.511 3.306,0 8.888,2.222 9.907,2.222 0.446,0 0.934,-0.854 0.934,-1.244 0,-0.316 -0.128,-0.589 -0.312,-0.843 -3.286,-1.426 -6.951,-2.357 -10.551,-2.357 -2.532,0 -4.955,0.362 -7.376,1.111 -0.335,-0.474 -0.853,-0.711 -1.422,-0.711 -1.655,0 -3.384,0.511 -5.109,0.511 -5.49,0 -10.027,-3.179 -15.438,-3.179 -3.161,0.001 -6.398,0.548 -9.266,1.914" /><path
     style="fill:#1c994f"
     inkscape:connector-curvature="0"
     id="path50"
     d="m 68.723873,67.062371 -0.689,-0.776 h -0.311 c 0.075,-0.833 0.111,-1.653 0.111,-2.489 0,-9.98 -8.459,-18.061 -18.306,-18.061 -10.063,0 -19.053,8.761 -18.261,19.04 l -0.223,0.378 -0.912,-0.023 c -0.056,-0.146 -0.043,-0.622 -0.043,-0.8 10e-4,-10.782 8.567,-19.749 19.461,-19.749 11.365,0 18.599,8.741 19.418,19.46 0.073,0.997 -0.189,2.032 -0.245,3.02" /><path
     style="fill:#fdb515"
     inkscape:connector-curvature="0"
     id="path52"
     d="m 36.355873,61.977371 c 1.101,-0.751 2.957,-2.42 4.198,-2.42 1.13,0 8.164,4.827 9.798,5.775 1.021,-0.396 5.345,-2.401 6.352,-2.401 2.703,0 3.459,1.469 5.866,2.442 0.211,-0.681 0.41,-1.427 0.355,-2.154 -0.543,-7.339 -5.562,-13.308 -13.307,-13.308 -6.142,0 -13.285,5.47 -13.285,12.021 z" /><path
     style="fill:#1f2259"
     inkscape:connector-curvature="0"
     id="path54"
     d="m 42.890873,71.196371 c 0.301,0.077 0.729,0.164 0.955,0.4 v 0.154 c -0.663,0.74 -7.204,0.732 -8.177,0.732 -0.754,0 -7.374,0.113 -7.374,-1.331 0,-0.14 0.571,-0.346 0.667,-0.378 2.12,-0.707 4.407,-0.532 6.597,-0.532 0.911,0 2.263,-0.559 3.467,-0.559 3.578,0 7.026,0.404 10.552,0.913 v 0.113 c 0,0.124 -1.362,0.332 -1.549,0.351 -1.675,0.205 -3.455,0.195 -5.138,0.137" /><path
     style="fill:#ffffff"
     inkscape:connector-curvature="0"
     id="path56"
     d="m 36.223873,67.786371 c -0.325,-0.08 -0.787,-0.466 -1.066,-0.466 -0.022,0 -0.021,0.066 -0.046,0.066 l -0.333,0.044 c -0.029,0.047 -0.134,0.062 -0.176,0.135 -0.148,0.239 -0.206,0.462 -0.401,0.687 -0.036,0.046 -0.062,0.1 -0.11,0.135 -0.453,0.322 -0.53,0.188 -0.934,0.289 -0.113,0.028 -0.36,0.249 -0.443,0.333 -0.559,0.559 -0.8,1.204 -0.8,1.999 v 0.09 c 0,0.036 -0.045,0.064 0,0.064 0.201,-0.359 0.345,-0.7 0.644,-0.997 l -0.111,0.177 v 0.043 c -0.018,0.042 -0.11,1.079 -0.11,1.245 0,0.113 -0.015,0.09 0.088,0.09 h 0.067 c -0.032,-0.066 -0.045,-0.385 -0.045,-0.468 0,-0.214 0.036,-0.411 0.066,-0.622 0.034,-0.033 0.147,-0.116 0.155,-0.132 v -0.046 c 0.03,-0.021 0.067,-0.103 0.09,-0.133 l -0.044,0.043 c 0,0.049 0.044,0.088 0.044,0.136 0.087,0.145 0.669,1.132 0.733,1.176 -0.035,0.036 0.1,0.023 0.112,0.023 h 0.087 c -0.156,-0.139 -0.758,-1.036 -0.799,-1.222 0.195,-0.296 0.412,-0.6 0.532,-0.934 0.673,-0.121 1.073,-1.584 1.355,-1.666 l 0.022,-0.046 c 0.31,-0.088 0.266,-0.199 0.713,-0.199 0.261,0 0.514,0.044 0.776,0.044 -0.036,0 -0.013,0.034 -0.023,0.045 l -0.022,0.043 -0.021,0.044 z" /><polygon
     transform="translate(16.169873,44.582371)"
     style="fill:#b9532e"
     id="polygon60"
     points="54.151,24.323 51.798,21.681 44.935,21.816 47.153,24.634 " /><polygon
     transform="translate(16.169873,44.582371)"
     style="fill:none;stroke:#010101;stroke-width:0.53200001;stroke-miterlimit:10"
     id="polygon62"
     points="54.151,24.323 51.798,21.681 44.935,21.816 47.153,24.634 "
     stroke-miterlimit="10" /><g
     transform="translate(16.169873,44.582371)"
     id="g68">
		<path
   style="fill:#ffffff"
   inkscape:connector-curvature="0"
   id="path64"
   d="m 55.243,29.123 -0.025,-1.71 -6.753,0.534 -1.2,-1.534 6.887,-0.354 v -1.735 l -7.019,0.335 -2.266,-2.91 -2.267,2.819 0.022,4.267 c 1.786,0.27 4.112,0.889 5.889,0.889 2.166,-0.001 4.559,-0.408 6.732,-0.601" />
		<path
   style="fill:none;stroke:#010101;stroke-width:0.48500001;stroke-miterlimit:10"
   inkscape:connector-curvature="0"
   id="path66"
   d="m 55.243,29.123 -0.025,-1.71 -6.753,0.534 -1.2,-1.534 6.887,-0.354 v -1.735 l -7.019,0.335 -2.266,-2.91 -2.267,2.819 0.022,4.267 c 1.786,0.27 4.112,0.889 5.889,0.889 2.166,-0.001 4.559,-0.408 6.732,-0.601 z"
   stroke-miterlimit="10" />
	</g><rect
     style="fill:#010101"
     id="rect70"
     height="0.86799997"
     width="0.26699999"
     y="68.06237"
     x="60.815872" /><rect
     style="fill:#010101"
     id="rect72"
     height="0.98100001"
     width="0.46799999"
     y="69.638374"
     x="61.723873" /><rect
     style="fill:#010101"
     id="rect74"
     height="0.95599997"
     width="0.44400001"
     y="69.573372"
     x="59.592873" /><rect
     style="fill:#010101"
     id="rect76"
     height="0.98000002"
     width="0.44400001"
     y="71.306374"
     x="59.592873" /><rect
     style="fill:#010101"
     id="rect78"
     height="0.95599997"
     width="0.46700001"
     y="71.39537"
     x="61.636871" /><polygon
     transform="translate(16.169873,44.582371)"
     style="fill:#010101"
     id="polygon80"
     points="53.286,25.524 53.286,24.834 52.954,24.834 52.954,25.546 " /><polygon
     transform="translate(16.169873,44.582371)"
     style="fill:#010101"
     id="polygon82"
     points="51.022,25.613 51.022,24.901 50.688,24.924 50.688,25.634 " /><polygon
     transform="translate(16.169873,44.582371)"
     style="fill:#010101"
     id="polygon84"
     points="48.486,25.724 48.486,25.037 48.154,25.037 48.154,25.747 " /><polygon
     transform="translate(16.169873,44.582371)"
     style="fill:#010101"
     id="polygon86"
     points="50.043,28.945 50.043,28.234 49.709,28.258 49.709,28.969 " /><polygon
     transform="translate(16.169873,44.582371)"
     style="fill:#010101"
     id="polygon88"
     points="52.196,28.745 52.196,28.056 51.864,28.079 51.864,28.769 " /><polygon
     transform="translate(16.169873,44.582371)"
     style="fill:#010101"
     id="polygon90"
     points="54.375,28.591 54.375,27.899 54.04,27.923 54.04,28.612 " /><line
     style="fill:none;stroke:#010101;stroke-width:0.48500001;stroke-miterlimit:10"
     id="line92"
     y2="71.060371"
     x2="63.322872"
     y1="69.240372"
     x1="63.302872"
     stroke-miterlimit="10" /><line
     style="fill:none;stroke:#010101;stroke-width:0.48500001;stroke-miterlimit:10"
     id="line94"
     y2="74.283371"
     x2="64.678871"
     y1="72.684372"
     x1="64.790871"
     stroke-miterlimit="10" /><polygon
     transform="translate(16.169873,44.582371)"
     style="fill:#b9532e"
     id="polygon96"
     points="55.243,27.413 48.575,28.033 47.243,26.369 54.151,26.037 " /><polygon
     transform="translate(16.169873,44.582371)"
     style="fill:none;stroke:#010101;stroke-width:0.53200001;stroke-miterlimit:10"
     id="polygon98"
     points="55.243,27.413 48.575,28.033 47.243,26.369 54.151,26.037 "
     stroke-miterlimit="10" /><g
     transform="translate(16.169873,44.582371)"
     id="g102">
		<path
   style="fill:#1f2259"
   inkscape:connector-curvature="0"
   id="path100"
   d="m 18.262,14.825 0.198,-0.627 c 0.079,-0.25 0.101,-0.416 0.068,-0.501 -0.035,-0.088 -0.156,-0.167 -0.364,-0.234 -0.238,-0.078 -0.396,-0.102 -0.472,-0.064 -0.074,0.038 -0.149,0.174 -0.225,0.407 l -0.214,0.684 z m 1.19,1.004 -2.823,-0.939 0.368,-1.169 0.048,-0.145 c 0.122,-0.393 0.271,-0.638 0.448,-0.727 0.177,-0.094 0.457,-0.077 0.836,0.052 0.378,0.124 0.608,0.275 0.691,0.445 0.083,0.173 0.061,0.458 -0.064,0.854 l -0.037,0.129 -0.206,0.648 0.912,0.302 z" />
	</g><path
     style="fill:#1f2259"
     inkscape:connector-curvature="0"
     id="path104"
     d="m 36.635873,55.602371 -1.589,-0.365 1.066,1.261 z m 0.424,0.103 -0.658,1.129 0.393,0.465 -0.308,0.524 -2.034,-2.439 0.436,-0.746 3.059,0.689 -0.302,0.517 z" /><g
     transform="translate(16.169873,44.582371)"
     id="g112">
		<path
   style="fill:#1f2259"
   inkscape:connector-curvature="0"
   id="path106"
   d="M 21.358,8.919 21.911,8.314 C 22.042,8.167 22.105,8.048 22.097,7.953 22.088,7.859 22.011,7.736 21.857,7.594 21.703,7.444 21.586,7.368 21.503,7.367 21.42,7.365 21.317,7.431 21.191,7.571 l -0.578,0.637 z m 0.697,1.458 -2.172,-2.08 0.997,-1.099 c 0.249,-0.273 0.467,-0.417 0.652,-0.433 0.186,-0.017 0.401,0.093 0.642,0.324 0.219,0.209 0.347,0.381 0.381,0.509 0.033,0.129 -0.008,0.289 -0.122,0.477 L 22.448,8.09 C 22.686,7.858 22.94,7.867 23.205,8.124 L 23.684,8.581 23.3,9.003 22.904,8.625 C 22.68,8.41 22.464,8.417 22.26,8.644 l -0.554,0.609 0.733,0.7 z" />
		<path
   style="fill:#1f2259"
   inkscape:connector-curvature="0"
   id="path108"
   d="M 24.472,6.622 24.468,6.198 25.208,6.187 C 25.156,6.092 25.12,6.026 25.1,5.995 L 24.927,5.743 24.717,5.434 C 24.559,5.201 24.42,5.079 24.302,5.066 24.185,5.053 23.994,5.141 23.735,5.328 c -0.311,0.224 -0.463,0.396 -0.458,0.515 0.003,0.118 0.17,0.422 0.5,0.905 0.248,0.365 0.428,0.562 0.536,0.586 0.113,0.023 0.336,-0.086 0.669,-0.325 0.172,-0.121 0.278,-0.258 0.324,-0.398 z m 1.761,-0.439 0.003,0.422 -0.343,0.002 C 25.848,6.873 25.615,7.16 25.192,7.463 24.726,7.797 24.38,7.941 24.153,7.894 23.923,7.844 23.633,7.567 23.289,7.06 22.888,6.471 22.697,6.052 22.716,5.807 22.735,5.56 22.979,5.267 23.451,4.928 23.918,4.591 24.263,4.45 24.494,4.506 c 0.229,0.054 0.524,0.345 0.884,0.877 0.257,0.376 0.418,0.646 0.479,0.805 z" />
		<path
   style="fill:#1f2259"
   inkscape:connector-curvature="0"
   id="path110"
   d="m 27.613,2.783 0.525,-0.208 0.707,1.893 c 0.147,0.396 0.172,0.689 0.07,0.878 C 28.815,5.53 28.537,5.714 28.08,5.897 27.598,6.086 27.258,6.15 27.063,6.088 26.867,6.026 26.698,5.802 26.552,5.411 l -0.72,-1.927 0.526,-0.208 0.718,1.929 c 0.078,0.209 0.167,0.327 0.26,0.355 0.093,0.026 0.276,-0.013 0.546,-0.12 0.277,-0.108 0.441,-0.206 0.491,-0.291 0.05,-0.085 0.033,-0.239 -0.05,-0.461 z" />
	</g><polygon
     transform="translate(16.169873,44.582371)"
     style="fill:#1f2259"
     id="polygon114"
     points="31.773,4.465 31.847,4.945 29.829,5.274 29.363,2.263 31.37,1.935 31.445,2.415 29.995,2.651 30.114,3.429 31.489,3.205 31.553,3.627 30.181,3.851 30.312,4.702 " /><g
     transform="translate(16.169873,44.582371)"
     id="g120">
		<path
   style="fill:#1f2259"
   inkscape:connector-curvature="0"
   id="path116"
   d="m 34.371,3.467 0.637,0.08 C 35.263,3.58 35.425,3.57 35.501,3.521 35.577,3.467 35.628,3.331 35.656,3.107 35.685,2.851 35.674,2.689 35.625,2.622 35.577,2.553 35.432,2.504 35.193,2.474 L 34.501,2.385 Z m -0.731,1.39 0.359,-3.025 1.189,0.149 0.146,0.017 c 0.397,0.051 0.658,0.156 0.777,0.317 0.124,0.16 0.161,0.445 0.113,0.853 -0.05,0.404 -0.147,0.665 -0.296,0.78 -0.147,0.116 -0.425,0.149 -0.826,0.098 L 34.972,4.033 34.312,3.95 34.197,4.928 Z" />
		<path
   style="fill:#1f2259"
   inkscape:connector-curvature="0"
   id="path118"
   d="m 37.507,4.005 0.769,0.256 C 38.459,4.322 38.591,4.33 38.671,4.283 38.754,4.236 38.827,4.111 38.892,3.908 38.956,3.701 38.974,3.558 38.94,3.483 38.908,3.404 38.804,3.336 38.627,3.277 l -0.805,-0.27 z m -0.992,1.262 0.918,-2.9 1.391,0.465 c 0.347,0.114 0.566,0.255 0.657,0.422 0.091,0.168 0.088,0.414 -0.014,0.736 -0.095,0.293 -0.19,0.483 -0.291,0.568 -0.1,0.085 -0.257,0.115 -0.472,0.089 l -0.006,0.02 c 0.306,0.125 0.403,0.364 0.29,0.722 L 38.787,6.027 38.253,5.847 38.418,5.32 C 38.514,5.019 38.417,4.822 38.131,4.728 L 37.36,4.468 37.05,5.445 Z" />
	</g><polygon
     transform="translate(16.169873,44.582371)"
     style="fill:#1f2259"
     id="polygon122"
     points="39.317,6.345 40.618,3.604 41.123,3.856 39.822,6.599 " /><g
     transform="translate(16.169873,44.582371)"
     id="g126">
		<path
   style="fill:#1f2259"
   inkscape:connector-curvature="0"
   id="path124"
   d="m 43.669,5.54 0.489,0.35 -2.485,1.935 -0.71,-0.508 0.927,-3.058 0.479,0.343 -0.509,1.743 c -0.051,0.167 -0.141,0.44 -0.274,0.818 l 0.014,0.01 0.163,-0.137 c 0.2,-0.172 0.364,-0.307 0.491,-0.403 z" />
	</g><path
     style="fill:#1f2259"
     inkscape:connector-curvature="0"
     id="path128"
     d="m 60.792873,53.863371 0.781,-1.469 -1.477,0.703 z m -0.215,0.389 -0.873,-0.962 -0.543,0.259 -0.407,-0.447 2.845,-1.339 0.576,0.638 -1.486,2.831 -0.399,-0.438 z" /><g
     transform="translate(16.169873,44.582371)"
     id="g134">
		<path
   style="fill:#1f2259"
   inkscape:connector-curvature="0"
   id="path130"
   d="m 45.439,11.293 0.413,0.709 c 0.139,0.237 0.281,0.357 0.427,0.362 0.149,0.005 0.402,-0.107 0.767,-0.331 0.374,-0.231 0.596,-0.409 0.66,-0.535 0.067,-0.126 0.031,-0.304 -0.103,-0.535 l -0.434,-0.738 z m -0.697,-0.245 2.543,-1.57 0.752,1.285 c 0.213,0.367 0.286,0.669 0.217,0.908 -0.071,0.244 -0.3,0.488 -0.688,0.725 -0.636,0.395 -1.078,0.589 -1.33,0.583 -0.247,-0.007 -0.493,-0.216 -0.735,-0.63 z" />
		<path
   style="fill:#1f2259"
   inkscape:connector-curvature="0"
   id="path132"
   d="m 49.069,14.358 c -0.111,-0.373 -0.222,-0.576 -0.333,-0.609 -0.111,-0.033 -0.443,0.036 -0.994,0.208 -0.407,0.129 -0.642,0.242 -0.702,0.339 -0.061,0.104 -0.041,0.333 0.066,0.69 0.104,0.344 0.21,0.534 0.322,0.575 0.116,0.037 0.411,-0.017 0.884,-0.167 0.477,-0.15 0.746,-0.27 0.813,-0.362 0.068,-0.093 0.05,-0.317 -0.056,-0.674 m 0.474,-0.105 c 0.157,0.531 0.174,0.899 0.046,1.102 -0.124,0.209 -0.484,0.404 -1.08,0.594 -0.65,0.203 -1.082,0.255 -1.297,0.154 -0.214,-0.1 -0.408,-0.444 -0.584,-1.032 -0.157,-0.531 -0.177,-0.899 -0.056,-1.107 0.121,-0.208 0.466,-0.401 1.036,-0.579 0.674,-0.213 1.122,-0.269 1.342,-0.172 0.217,0.101 0.414,0.445 0.593,1.04" />
	</g><path
     style="fill:#ffffff;stroke-width:0.03125"
     d="M 26.824928,7.2896708 C 25.955557,7.1442451 25.301757,6.6008036 25.112194,5.8660397 25.046931,5.6130732 25.046807,5.066311 25.111954,4.8125612 25.290458,4.1172875 25.84305,3.6081316 26.649413,3.3959533 c 0.255667,-0.067274 0.378226,-0.080587 0.772619,-0.08393 0.271148,-0.0023 0.577432,0.014104 0.726563,0.03891 l 0.257812,0.042883 V 3.733746 c 0,0.1869614 -0.008,0.3399297 -0.01771,0.3399297 -0.0097,0 -0.06247,-0.033035 -0.117187,-0.073412 -0.115738,-0.085412 -0.305168,-0.1627779 -0.514226,-0.210016 -0.192352,-0.043464 -0.668272,-0.042246 -0.866675,0.00222 -0.392622,0.087988 -0.803396,0.3931399 -0.969588,0.7202771 -0.124395,0.2448606 -0.170122,0.4460336 -0.170122,0.748434 0,0.4712916 0.141389,0.825594 0.45459,1.1391469 0.363428,0.3638353 0.755596,0.5032675 1.341543,0.4769753 0.189063,-0.00848 0.410547,-0.03272 0.492188,-0.053858 L 28.187657,6.7850058 28.18747,6.2340281 C 28.187284,5.6047642 28.164157,5.4839557 28.022519,5.3723198 l -0.100487,-0.079201 0.268854,-3.465e-4 c 0.147869,-1.906e-4 0.351775,-0.00902 0.453125,-0.019613 l 0.184271,-0.019267 v 0.954475 0.9544752 l -0.28125,0.048932 c -0.154687,0.026912 -0.372656,0.062993 -0.484375,0.08018 -0.240813,0.037047 -1.011104,0.035626 -1.237729,-0.00228 z"
     id="path74"
     inkscape:connector-curvature="0"
     transform="matrix(2.207246,0,0,2.2169333,21.407523,44.559779)" /><path
     style="fill:#ffffff;stroke-width:0.03125"
     d="m 29.352442,7.1556351 c 0.04409,-0.04086 0.09528,-0.1287503 0.113763,-0.1953125 0.04612,-0.1660831 0.04612,-3.1072112 0,-3.2732944 -0.01848,-0.066562 -0.06735,-0.1522965 -0.108593,-0.1905207 l -0.07499,-0.069498 0.39783,-0.02029 c 1.375577,-0.070157 1.826332,0.040383 2.082279,0.5106413 0.284741,0.5231638 -0.02785,1.1973537 -0.653199,1.408809 -0.06875,0.023247 -0.129881,0.045281 -0.135848,0.048965 -0.006,0.00368 0.213732,0.285409 0.48822,0.6260569 0.453813,0.5631962 0.682105,0.8015287 0.966634,1.0091496 0.119575,0.087254 0.14889,0.071062 0.266265,-0.1470637 0.130613,-0.2427278 1.247263,-3.0593781 1.264844,-3.1904592 0.01373,-0.1023591 0.0041,-0.1298829 -0.06389,-0.1833985 l -0.08005,-0.062965 0.256289,-0.019952 c 0.140958,-0.010974 0.347694,-0.019958 0.459412,-0.019967 l 0.203125,-1.45e-5 0.606418,1.4920147 c 0.768786,1.8915029 0.862911,2.0952394 1.021827,2.2117788 0.06696,0.049108 0.135115,0.1006106 0.151443,0.1144494 0.01633,0.013839 -0.250859,0.024925 -0.59375,0.024635 l -0.623438,-5.25e-4 0.101563,-0.065042 c 0.07695,-0.049283 0.101562,-0.087392 0.101562,-0.1572819 0,-0.050732 -0.09475,-0.3378784 -0.210565,-0.6381041 l -0.210566,-0.545866 -0.734747,0.00836 -0.734747,0.00836 -0.183234,0.5 c -0.10078,0.275 -0.18495,0.5540175 -0.187046,0.6200388 -0.0038,0.11834 0.0027,0.1278909 0.156636,0.2308578 0.046,0.030772 -0.100847,0.036978 -0.739481,0.03125 l -0.796875,-0.00715 -0.144558,-0.084981 C 31.530519,7.0208836 30.885947,6.2337478 30.513459,5.662059 30.367083,5.4374038 30.251475,5.2497947 30.256552,5.24515 c 0.0051,-0.00464 0.09892,-0.031234 0.208544,-0.059088 0.297641,-0.075627 0.563196,-0.2285003 0.67487,-0.3885053 0.08405,-0.1204271 0.09457,-0.1606287 0.09457,-0.3615268 0,-0.1928629 -0.0123,-0.2446436 -0.08384,-0.3528527 -0.1265,-0.1913515 -0.348912,-0.2908672 -0.648859,-0.2903249 -0.129828,2.343e-4 -0.268419,0.0091 -0.307979,0.019692 l -0.07193,0.019265 0.0097,1.5349955 c 0.01041,1.6482521 0.01138,1.6581777 0.174207,1.7926527 l 0.08495,0.070158 -0.55925,1.55e-4 -0.559251,1.553e-4 z M 34.869636,5.314146 c -0.0272,-0.1097692 -0.512228,-1.3342206 -0.528512,-1.3342206 -0.01032,0 -0.12169,0.2636719 -0.247495,0.5859375 -0.125804,0.3222657 -0.247708,0.6316407 -0.270898,0.6875 l -0.04216,0.1015625 h 0.549585 c 0.436338,0 0.547504,-0.0084 0.539482,-0.040779 z"
     id="path76"
     inkscape:connector-curvature="0"
     transform="matrix(2.207246,0,0,2.2169333,21.407523,44.559779)" /><path
     style="fill:#ffffff;stroke-width:0.03125"
     d="M 40.181842,7.3226811 C 40.084112,7.2722251 39.93551,7.1623014 39.851614,7.0784064 39.767719,6.9945111 39.22893,6.3317167 38.654305,5.6055298 L 37.609532,4.28519 l -0.0093,1.1676802 c -0.01144,1.4353112 -0.0082,1.4700365 0.15303,1.6312527 0.06705,0.067048 0.121905,0.1272822 0.121905,0.1338541 0,0.00657 -0.232031,0.011948 -0.515625,0.011948 h -0.515625 l 0.122748,-0.1227475 c 0.09335,-0.093351 0.1289,-0.1588359 0.148437,-0.2734375 0.01413,-0.082879 0.02569,-0.7905337 0.02569,-1.572565 0,-1.5623588 -0.0022,-1.5831202 -0.185558,-1.744103 L 36.851617,3.426095 37.10558,3.406322 c 0.139679,-0.010875 0.331306,-0.019768 0.425837,-0.019762 0.154605,9.3e-6 0.176822,0.00863 0.221102,0.08575 0.04519,0.078714 2.104255,2.6817706 2.20604,2.7888649 0.0386,0.040612 0.04331,-0.1243221 0.03527,-1.234375 C 39.983639,3.620485 39.982779,3.614007 39.789524,3.4880318 l -0.08435,-0.054982 0.217809,-0.019556 c 0.119795,-0.010756 0.358024,-0.021303 0.529398,-0.023437 l 0.311589,-0.00388 -0.119651,0.1162168 c -0.06581,0.063919 -0.13548,0.1518099 -0.154827,0.1953125 -0.02436,0.054778 -0.0383,0.6387384 -0.04533,1.8994082 -0.0077,1.3830822 -0.0191,1.8199516 -0.04739,1.8188094 -0.02048,-8.25e-4 -0.117194,-0.042785 -0.214923,-0.093241 z"
     id="path78"
     inkscape:connector-curvature="0"
     transform="matrix(2.207246,0,0,2.2169333,21.407523,44.559779)" /><path
     style="fill:#ffffff;stroke-width:0.03125"
     d="m 41.321192,7.1556351 c 0.04409,-0.04086 0.09528,-0.1287503 0.113763,-0.1953125 0.04377,-0.157624 0.04664,-3.1389381 0.0032,-3.2931035 -0.01693,-0.060043 -0.06966,-0.1407394 -0.117188,-0.1793259 l -0.08641,-0.070157 0.25,-0.00397 c 0.1375,-0.00218 0.618108,-0.012799 1.068016,-0.023593 l 0.818016,-0.019624 0.01792,0.089844 c 0.0099,0.049414 0.01792,0.2097967 0.01792,0.3564059 0,0.2539659 -0.0026,0.2641746 -0.05583,0.2160373 C 43.319889,4.0050474 43.225144,3.9515134 43.140046,3.91387 43.006619,3.854849 42.932468,3.845827 42.601328,3.848324 c -0.211197,0.00159 -0.411761,0.011708 -0.445697,0.022479 -0.05826,0.01849 -0.0617,0.049324 -0.0617,0.5520668 v 0.5324833 l 0.484375,-0.011162 0.484375,-0.011162 V 5.238663 5.5442965 l -0.09624,-0.071248 c -0.08578,-0.063481 -0.138577,-0.072377 -0.4844,-0.081609 L 42.093907,5.3810782 V 6.051413 6.7217479 l 0.117188,0.019507 c 0.06445,0.010729 0.295555,0.02875 0.513559,0.040047 0.488659,0.025322 0.70212,-0.014161 0.978831,-0.1810531 0.109724,-0.066178 0.206263,-0.1203238 0.214531,-0.1203238 0.0083,0 -0.04142,0.16875 -0.110414,0.375 l -0.125444,0.375 h -1.220564 -1.220563 z"
     id="path80"
     inkscape:connector-curvature="0"
     transform="matrix(2.207246,0,0,2.2169333,21.407523,44.559779)" /><path
     style="fill:#ffffff;stroke-width:0.03125"
     d="m 44.464077,7.1510695 c 0.150644,-0.1267587 0.16108,-0.2463812 0.16108,-1.8463441 0,-1.5723103 -0.0094,-1.6808438 -0.156925,-1.8049478 l -0.08679,-0.073026 0.395293,-0.020162 c 0.897988,-0.045801 1.381622,-0.015269 1.651894,0.1042851 0.193081,0.085409 0.433487,0.3237209 0.499732,0.4953791 0.07901,0.2047443 0.0706,0.5071075 -0.01989,0.7143519 -0.08741,0.2002145 -0.345558,0.4517279 -0.571696,0.5570079 -0.09061,0.042185 -0.182328,0.076838 -0.203812,0.077006 -0.02148,1.687e-4 -0.03906,0.00898 -0.03906,0.019591 0,0.041511 0.942437,1.1955297 1.086012,1.3298272 0.08383,0.07841 0.268735,0.2288118 0.410907,0.3342256 l 0.258494,0.1916615 h -0.403353 c -0.576178,0 -0.62352,-0.026916 -1.126804,-0.640625 -0.321666,-0.392242 -0.882713,-1.1822223 -0.933366,-1.3142228 -0.0089,-0.023124 0.06452,-0.056434 0.198508,-0.09009 0.317314,-0.079707 0.5653,-0.223416 0.669757,-0.388127 0.225344,-0.3553308 0.105918,-0.7744823 -0.26953,-0.9459686 -0.125858,-0.057486 -0.51044,-0.079939 -0.664062,-0.03877 l -0.07031,0.018843 V 5.294532 c 0,1.6259606 0.0096,1.7328813 0.166591,1.8566356 l 0.09903,0.078065 -0.57271,3.466e-4 -0.57271,3.465e-4 z"
     id="path82"
     inkscape:connector-curvature="0"
     transform="matrix(2.207246,0,0,2.2169333,21.407523,44.559779)" /><path
     style="fill:#ffffff;stroke-width:0.03125"
     d="M 49.109532,7.2620298 C 48.812765,7.183067 48.677743,7.122842 48.430975,6.9593676 47.843599,6.5702536 47.528055,5.9240244 47.572596,5.2014182 47.605614,4.665734 47.754988,4.3423452 48.152679,3.9455589 48.368311,3.7304162 48.47501,3.650982 48.687657,3.547281 c 0.397568,-0.1938801 0.601312,-0.2386785 1.078125,-0.2370534 0.686667,0.00234 1.062365,0.1521363 1.519018,0.6056528 0.415965,0.4131099 0.575459,0.80154 0.571639,1.39217 -0.0052,0.8031317 -0.409278,1.4317757 -1.163966,1.810811 -0.410493,0.2061665 -1.108804,0.269325 -1.582941,0.1431684 z M 50.13517,6.8394492 c 0.239114,-0.062281 0.405344,-0.1503253 0.569496,-0.3016359 0.35702,-0.329089 0.521691,-0.8272936 0.453416,-1.3717911 -0.05554,-0.442944 -0.223762,-0.7906324 -0.519747,-1.0742358 -0.508515,-0.4872432 -1.427618,-0.465887 -1.939869,0.045075 -0.483591,0.4823725 -0.581021,1.2557828 -0.242709,1.9266376 0.12467,0.2472121 0.376374,0.5265132 0.584307,0.6483701 0.283636,0.1662218 0.741818,0.2196006 1.095106,0.1275801 z"
     id="path84"
     inkscape:connector-curvature="0"
     transform="matrix(2.207246,0,0,2.2169333,21.407523,44.559779)" /><path
     style="fill:#ffffff;stroke-width:0.03125"
     d="m 52.815571,7.2897948 c -0.07574,-0.014868 -0.212378,-0.048739 -0.303636,-0.075268 -0.183764,-0.053422 -0.169062,-0.027059 -0.275699,-0.4943525 -0.07245,-0.3175056 -0.07143,-0.3188288 0.136909,-0.1766181 0.102019,0.069637 0.267253,0.1597925 0.367188,0.200345 0.837765,0.3399578 1.6878,0.00948 1.510626,-0.5873023 -0.0648,-0.2182633 -0.242108,-0.3532437 -0.907706,-0.6910057 -0.889777,-0.4515234 -1.046221,-0.624613 -1.046221,-1.1575424 0,-0.2500559 0.0095,-0.2973482 0.08532,-0.4263938 0.145096,-0.2468204 0.390526,-0.4093954 0.776282,-0.514216 0.280757,-0.07629 0.89993,-0.07729 1.224331,-0.00198 l 0.242187,0.056226 V 3.7648974 4.1081062 L 54.522276,4.029635 c -0.594005,-0.4530703 -1.552727,-0.3236639 -1.553252,0.2096548 -2.79e-4,0.2834663 0.177194,0.4382655 0.940437,0.8202888 0.860886,0.4308968 1.041678,0.6174952 1.043097,1.0765968 9.5e-4,0.3075494 -0.0995,0.5206841 -0.358354,0.7603357 -0.340897,0.3156106 -0.67951,0.4290656 -1.264675,0.4237403 -0.206935,-0.00188 -0.438217,-0.015589 -0.513958,-0.030457 z"
     id="path86"
     inkscape:connector-curvature="0"
     transform="matrix(2.207246,0,0,2.2169333,21.407523,44.559779)" /><path
     style="fill:#ffffff;stroke-width:0.03125"
     d="m 53.500157,11.647131 c -0.04297,-0.0065 -0.163868,-0.03367 -0.268666,-0.06042 L 53.040949,11.538071 52.978399,11.259 c -0.0344,-0.15349 -0.0563,-0.279072 -0.04866,-0.279072 0.0076,0 0.05122,0.02632 0.09684,0.05849 0.27478,0.193763 0.6312,0.302314 0.909708,0.27706 0.52933,-0.048 0.732455,-0.43868 0.386162,-0.742729 -0.05913,-0.05191 -0.301097,-0.19137 -0.537712,-0.309903 -0.509024,-0.254998 -0.597995,-0.324056 -0.708506,-0.5499317 -0.07044,-0.1439776 -0.0814,-0.2013142 -0.07066,-0.3698598 0.01967,-0.3088356 0.158343,-0.471429 0.530288,-0.6217382 0.141783,-0.057297 0.22964,-0.067674 0.573673,-0.067762 0.236409,-5.98e-5 0.461775,0.016386 0.539063,0.039338 l 0.132812,0.039441 v 0.2487954 c 0,0.1368376 -0.0084,0.2487955 -0.01861,0.2487955 -0.01024,0 -0.05975,-0.029293 -0.110033,-0.065096 -0.136426,-0.097144 -0.412757,-0.1849264 -0.58151,-0.1847293 -0.345395,4.034e-4 -0.539844,0.1309287 -0.539844,0.3623747 0,0.2136646 0.111192,0.3117826 0.686256,0.6055654 0.551851,0.281924 0.71968,0.423609 0.78379,0.661696 0.111349,0.41352 -0.24601,0.866107 -0.796924,1.009284 -0.169816,0.04413 -0.508514,0.05765 -0.704372,0.02811 z"
     id="path88"
     inkscape:connector-curvature="0"
     transform="matrix(2.207246,0,0,2.2169333,21.407523,44.559779)" /><path
     style="fill:#ffffff;stroke-width:0.03125"
     d="m 47.59107,11.529821 c 0.03881,-0.04131 0.08311,-0.129198 0.09845,-0.195313 0.03696,-0.159254 0.03603,-2.2100872 -0.0011,-2.3702076 -0.01593,-0.06875 -0.05921,-0.1495032 -0.09618,-0.1794515 -0.104625,-0.08476 -0.03686,-0.092965 0.664269,-0.08043 0.584399,0.010448 0.647105,0.0171 0.798036,0.084658 0.411372,0.1841355 0.556767,0.6141707 0.335375,0.9919461 -0.09083,0.1549965 -0.222359,0.263568 -0.431201,0.355949 l -0.147333,0.06517 0.384898,0.474144 c 0.211694,0.260779 0.460738,0.535966 0.553431,0.611527 0.167558,0.13659 0.168834,0.137012 0.220745,0.0729 0.062,-0.07656 0.998408,-2.4053712 0.998408,-2.4829892 0,-0.029439 -0.02813,-0.07109 -0.0625,-0.092557 -0.03438,-0.021468 -0.0625,-0.049712 -0.0625,-0.062765 0,-0.013053 0.158204,-0.023402 0.351563,-0.022997 l 0.351562,7.364e-4 0.387754,0.9602011 c 0.649502,1.6083697 0.681624,1.6794007 0.813233,1.7983017 l 0.118235,0.106818 -0.206486,0.01951 c -0.113567,0.01073 -0.318842,0.01961 -0.456166,0.01973 l -0.249681,2.22e-4 0.08562,-0.07939 c 0.04709,-0.04367 0.08526,-0.0964 0.08482,-0.117188 -4.39e-4,-0.02079 -0.07598,-0.227641 -0.167866,-0.459673 L 51.789427,10.5268 H 51.247073 50.70472 l -0.133366,0.359375 c -0.183372,0.494126 -0.18975,0.538454 -0.0889,0.617786 l 0.08137,0.06401 -0.271076,0.02258 c -0.374063,0.03116 -0.750836,0.0029 -0.896926,-0.06724 -0.08207,-0.03941 -0.217358,-0.177522 -0.428391,-0.437339 -0.264897,-0.326133 -0.686642,-0.928947 -0.685736,-0.980145 1.59e-4,-0.0091 0.104686,-0.04822 0.232277,-0.08696 0.282579,-0.085794 0.432059,-0.2129525 0.486054,-0.4134717 0.04947,-0.1837294 0.0025,-0.3394895 -0.140217,-0.4647812 -0.1232,-0.1081752 -0.238498,-0.1375753 -0.484652,-0.1235834 l -0.171875,0.00977 -0.009,1.0937493 c -0.005,0.601563 -5.09e-4,1.141025 0.0099,1.198804 0.01039,0.05778 0.05073,0.136886 0.08963,0.175792 l 0.07074,0.07074 -0.186767,0.01952 c -0.102722,0.01074 -0.292625,0.01952 -0.422006,0.01952 H 47.520513 Z M 51.471143,9.7064879 C 51.372454,9.4529723 51.281296,9.2174254 51.26857,9.1830504 c -0.01763,-0.047634 -0.06715,0.048995 -0.208155,0.40625 -0.10176,0.2578125 -0.19305,0.4933596 -0.202869,0.5234376 -0.01638,0.05019 0.01549,0.05469 0.387591,0.05469 h 0.405442 z"
     id="path90"
     inkscape:connector-curvature="0"
     transform="matrix(2.207246,0,0,2.2169333,21.407523,44.559779)" /><path
     style="fill:#ffffff;stroke-width:0.03125"
     d="m 44.3183,11.502898 c 0.06326,-0.0556 0.150441,-0.173057 0.193735,-0.261008 0.09321,-0.189356 0.882523,-2.1569964 0.911359,-2.2718889 0.02582,-0.102885 -0.0086,-0.2088257 -0.06781,-0.2088257 -0.02564,0 -0.03792,-0.014063 -0.0273,-0.03125 0.01095,-0.017712 0.165514,-0.03125 0.356788,-0.03125 h 0.337474 l 0.493049,1.2109375 c 0.570743,1.4017551 0.608247,1.4819511 0.737616,1.5772511 l 0.09663,0.07119 -0.151405,0.0207 c -0.213442,0.02918 -0.729531,0.03091 -0.729531,0.0024 0,-0.01305 0.02812,-0.0413 0.0625,-0.06277 0.03437,-0.02147 0.0625,-0.06802 0.0625,-0.103451 0,-0.03543 -0.07378,-0.25328 -0.163965,-0.48411 l -0.163964,-0.419692 h -0.536915 -0.536915 l -0.06826,0.179688 c -0.233499,0.614682 -0.259788,0.755887 -0.154463,0.829659 0.05798,0.04061 0.04761,0.04575 -0.129584,0.06427 -0.105932,0.01107 -0.292494,0.01992 -0.414582,0.01967 l -0.221979,-4.65e-4 z m 1.806706,-1.343285 c -8.3e-5,-0.0043 -0.0905,-0.2398438 -0.20092,-0.5234376 -0.177763,-0.4565394 -0.204189,-0.5066726 -0.230616,-0.4375 -0.05876,0.1538138 -0.250162,0.643646 -0.314429,0.8046876 l -0.06547,0.164062 h 0.405794 c 0.223187,0 0.405726,-0.0035 0.405643,-0.0078 z"
     id="path92"
     inkscape:connector-curvature="0"
     transform="matrix(2.207246,0,0,2.2169333,21.407523,44.559779)" /><path
     style="fill:#ffffff;stroke-width:0.03125"
     d="m 42.920979,11.647103 c -0.169072,-0.112057 -0.293537,-0.229956 -0.341438,-0.323428 -0.02202,-0.04297 -0.226897,-0.584375 -0.455282,-1.203125 -0.39217,-1.0624854 -0.48612,-1.2776632 -0.584128,-1.3378577 -0.09128,-0.056059 0.01042,-0.084017 0.305621,-0.084017 0.29318,0 0.310655,0.00363 0.310655,0.064595 0,0.091182 0.790699,2.2517897 0.813873,2.2239327 0.02075,-0.02494 0.485201,-1.2439737 0.627854,-1.6479024 0.106239,-0.3008239 0.113959,-0.4525746 0.02702,-0.53125 -0.03438,-0.031109 -0.0625,-0.068445 -0.0625,-0.082968 0,-0.014524 0.149161,-0.026407 0.331469,-0.026407 0.302751,0 0.329672,0.00474 0.310731,0.054687 -0.201826,0.5322508 -1.123254,2.9089634 -1.138709,2.9371634 -0.01555,0.02838 -0.05433,0.01678 -0.145169,-0.04342 z"
     id="path94"
     inkscape:connector-curvature="0"
     transform="matrix(2.207246,0,0,2.2169333,21.407523,44.559779)" /><path
     style="fill:#ffffff;stroke-width:0.03125"
     d="m 38.133365,11.622201 c -0.789411,-0.179977 -1.301877,-0.930121 -1.170266,-1.7130247 0.0558,-0.3319513 0.185744,-0.5726711 0.4364,-0.8084449 0.341718,-0.321429 0.709708,-0.464556 1.194408,-0.464556 0.48446,0 0.819263,0.1326473 1.142973,0.4528404 0.421766,0.4171837 0.54788,1.0326992 0.329401,1.6076882 -0.151913,0.399804 -0.546369,0.753561 -0.99992,0.89675 -0.212337,0.06704 -0.69925,0.08204 -0.932996,0.02875 z m 0.913667,-0.395056 C 39.743009,10.901673 39.857604,9.8488849 39.261897,9.2531781 39.069692,9.0609734 38.85766,8.9799254 38.547032,8.9799254 c -0.442881,0 -0.769127,0.1995417 -0.959789,0.5870355 -0.09646,0.1960392 -0.102694,0.2287517 -0.102435,0.5374171 2.47e-4,0.293291 0.0096,0.348622 0.08679,0.513989 0.15805,0.338566 0.368788,0.545736 0.662285,0.651073 0.217775,0.07816 0.597849,0.05839 0.813153,-0.04229 z"
     id="path96"
     inkscape:connector-curvature="0"
     transform="matrix(2.207246,0,0,2.2169333,21.407523,44.559779)" /><path
     style="fill:#ffffff;stroke-width:0.03125"
     d="m 35.406407,11.573675 c 0,-0.01719 0.0137,-0.03125 0.03045,-0.03125 0.01675,0 0.05542,-0.0457 0.08594,-0.101562 0.04975,-0.09106 0.05651,-0.220677 0.0654,-1.253622 l 0.0099,-1.1520592 -0.323101,0.01196 c -0.266085,0.00985 -0.344352,0.024499 -0.443532,0.083017 -0.06624,0.039081 -0.126587,0.064901 -0.13411,0.057378 -0.0075,-0.00752 0.01658,-0.1241104 0.05357,-0.2590823 l 0.06725,-0.2454037 h 1.074989 c 0.940982,0 1.073232,0.00584 1.060885,0.046875 -0.0078,0.025781 -0.0292,0.1171875 -0.04765,0.203125 -0.06068,0.2826482 -0.05361,0.2740793 -0.160737,0.1948093 -0.07855,-0.058122 -0.143622,-0.071622 -0.388679,-0.080638 l -0.294334,-0.010829 v 1.1133959 c 0,1.185332 0.0092,1.26737 0.153392,1.368368 0.0621,0.0435 0.05302,0.04765 -0.145136,0.06636 -0.320523,0.03027 -0.664506,0.02466 -0.664506,-0.01084 z"
     id="path98"
     inkscape:connector-curvature="0"
     transform="matrix(2.207246,0,0,2.2169333,21.407523,44.559779)" /><path
     style="fill:#ffffff;stroke-width:0.03125"
     d="m 32.656407,11.573675 c 0,-0.01719 0.01478,-0.03125 0.03285,-0.03125 0.01807,0 0.05322,-0.04877 0.07813,-0.108371 0.0368,-0.08808 0.04528,-0.327152 0.04528,-1.276587 0,-1.170455 -0.0137,-1.33963 -0.111558,-1.3771803 -0.02458,-0.00943 -0.04469,-0.032842 -0.04469,-0.052022 0,-0.024917 0.194697,-0.031888 0.682017,-0.024418 l 0.682016,0.010454 0.183961,0.094142 c 0.249513,0.1276886 0.365096,0.2926594 0.383522,0.5473991 0.0094,0.1296923 -0.0027,0.2316258 -0.0387,0.3258214 -0.06242,0.1634576 -0.278793,0.3727358 -0.475175,0.4596048 -0.09754,0.04315 -0.131681,0.07321 -0.112181,0.09878 0.497827,0.652734 0.824,1.006111 1.1336,1.228144 l 0.168874,0.12111 -0.218029,0.01021 c -0.260883,0.01221 -0.512999,-0.03763 -0.621332,-0.122848 -0.123724,-0.09732 -0.581526,-0.671667 -0.826964,-1.037486 -0.122572,-0.182692 -0.222859,-0.338101 -0.222859,-0.345355 0,-0.0073 0.05273,-0.0229 0.117188,-0.03476 0.06445,-0.01187 0.180293,-0.04927 0.257423,-0.08313 C 34.004314,9.864205 34.125251,9.7023423 34.125053,9.4736687 34.124798,9.1805735 33.907826,9.0111793 33.532664,9.0111793 h -0.219995 v 1.1739297 c 0,1.19272 0.0061,1.261304 0.119003,1.344583 0.03592,0.02649 0.0023,0.03874 -0.150314,0.05469 -0.293993,0.03073 -0.624939,0.02506 -0.624939,-0.0107 z"
     id="path101"
     inkscape:connector-curvature="0"
     transform="matrix(2.207246,0,0,2.2169333,21.407523,44.559779)" /><path
     style="fill:#ffffff;stroke-width:0.03125"
     d="m 30.432956,11.531804 c 0.03778,-0.04022 0.08242,-0.120983 0.0992,-0.179481 0.01729,-0.06028 0.0305,-0.590876 0.0305,-1.224757 0,-1.1793701 -0.01138,-1.2858095 -0.145509,-1.3610976 -0.101339,-0.056882 0.0032,-0.066592 0.809596,-0.07518 l 0.773461,-0.00824 -2.4e-5,0.2603613 -2.4e-5,0.2603612 -0.114773,-0.070934 c -0.08779,-0.054254 -0.175533,-0.074123 -0.373164,-0.084496 -0.142114,-0.00746 -0.308435,-0.00417 -0.369601,0.0073 l -0.111212,0.020863 v 0.3911009 0.3911008 l 0.359437,-0.0097 0.359436,-0.0097 -6.1e-5,0.2470304 -6.2e-5,0.247031 -0.06427,-0.05816 c -0.05041,-0.04562 -0.12791,-0.06095 -0.359375,-0.07107 l -0.295105,-0.01291 v 0.50034 c 0,0.581653 -0.04937,0.519846 0.44341,0.555101 0.357242,0.02556 0.548806,-0.01117 0.761388,-0.145988 0.08039,-0.05098 0.150394,-0.08846 0.155557,-0.08329 0.0052,0.0052 -0.03227,0.139491 -0.08319,0.298475 l -0.09258,0.289062 h -0.925864 -0.925865 z"
     id="path103"
     inkscape:connector-curvature="0"
     transform="matrix(2.207246,0,0,2.2169333,21.407523,44.559779)" /><path
     style="fill:#ffffff;stroke-width:0.03125"
     d="m 28.203282,11.62558 c -0.210718,-0.05488 -0.321885,-0.117863 -0.459411,-0.260266 -0.219622,-0.22741 -0.223598,-0.25041 -0.242444,-1.4024975 -0.01502,-0.9182944 -0.02303,-1.0420924 -0.0723,-1.1171875 -0.03047,-0.046449 -0.06998,-0.084454 -0.08778,-0.084454 -0.01781,0 -0.02368,-0.014063 -0.01306,-0.03125 0.01128,-0.018246 0.188751,-0.03125 0.426498,-0.03125 h 0.407183 l -0.07861,0.093427 c -0.108346,0.128762 -0.122158,0.2841635 -0.108497,1.220699 0.01242,0.851789 0.02779,0.94187 0.190859,1.119257 0.233241,0.253712 0.75896,0.251087 1.02207,-0.0051 0.181478,-0.176704 0.187394,-0.214155 0.187202,-1.1850902 -1.8e-4,-0.9144943 -0.01858,-1.0840091 -0.125841,-1.1591354 -0.0336,-0.023533 -0.0518,-0.052072 -0.04045,-0.063421 0.02555,-0.025552 0.822717,-0.02769 0.822717,-0.00221 0,0.010136 -0.02882,0.041776 -0.06404,0.070312 -0.03522,0.028536 -0.07708,0.1081341 -0.093,0.1768841 -0.01593,0.06875 -0.02896,0.603125 -0.02896,1.1874995 0,0.584375 0.01303,1.11875 0.02896,1.1875 0.01593,0.06875 0.05709,0.147792 0.09148,0.175649 0.06017,0.04875 0.05712,0.05139 -0.08094,0.07031 -0.0789,0.01081 -0.225873,0.01966 -0.326599,0.01966 H 29.37518 v -0.130447 -0.130447 l -0.0704,0.06614 c -0.03872,0.03638 -0.150328,0.102732 -0.248013,0.147454 -0.216855,0.09928 -0.612305,0.130766 -0.853458,0.06795 z"
     id="path105"
     inkscape:connector-curvature="0"
     transform="matrix(2.207246,0,0,2.2169333,21.407523,44.559779)" /><path
     style="fill:#ffffff;stroke-width:0.03125"
     d="m 25.182956,11.531804 c 0.03778,-0.04022 0.08242,-0.120983 0.0992,-0.179481 0.01729,-0.06028 0.0305,-0.590876 0.0305,-1.224757 0,-1.1793701 -0.01138,-1.2858095 -0.145509,-1.3610976 -0.05302,-0.029758 -0.05338,-0.033971 -0.0046,-0.052773 0.02917,-0.011238 0.352604,-0.015647 0.71875,-0.0098 0.657532,0.010505 0.668128,0.011746 0.861403,0.1008901 0.347198,0.1601386 0.501904,0.413232 0.466115,0.7625491 -0.03132,0.3057311 -0.24819,0.5563274 -0.591141,0.6830844 -0.151835,0.05612 -0.574461,0.07152 -0.657008,0.02394 -0.04469,-0.02576 -0.01981,-0.03905 0.131684,-0.07034 0.366675,-0.07574 0.611429,-0.3619823 0.586845,-0.68633 -0.02177,-0.2872723 -0.197465,-0.4401494 -0.537171,-0.4674177 -0.109451,-0.00879 -0.235369,-0.00685 -0.279817,0.00431 l -0.08081,0.020283 7.46e-4,1.0540917 c 4.1e-4,0.579751 0.01376,1.110342 0.02966,1.179092 0.01683,0.07275 0.06321,0.15239 0.110957,0.190531 l 0.08204,0.06553 -0.241418,0.02041 c -0.13278,0.01122 -0.333154,0.02041 -0.445276,0.02041 h -0.203857 z"
     id="path107"
     inkscape:connector-curvature="0"
     transform="matrix(2.207246,0,0,2.2169333,21.407523,44.559779)" /></g>
</g>
</svg>