<?xml version="1.0" encoding="UTF-8" standalone="no"?>
<!-- Generator: Adobe Illustrator 17.0.0, SVG Export Plug-In  -->

<svg
   xmlns:dc="http://purl.org/dc/elements/1.1/"
   xmlns:cc="http://creativecommons.org/ns#"
   xmlns:rdf="http://www.w3.org/1999/02/22-rdf-syntax-ns#"
   xmlns:svg="http://www.w3.org/2000/svg"
   xmlns="http://www.w3.org/2000/svg"
   xmlns:sodipodi="http://sodipodi.sourceforge.net/DTD/sodipodi-0.dtd"
   xmlns:inkscape="http://www.inkscape.org/namespaces/inkscape"
   version="1.1"
   x="0px"
   y="0px"
   width="55"
   height="15"
   viewBox="0 0 55.000002 15"
   enable-background="new 0 0 66.101 55.106"
   xml:space="preserve"
   id="svg138"
   sodipodi:docname="logo1.svg"
   inkscape:version="0.92.4 (5da689c313, 2019-01-14)"><metadata
   id="metadata142"><rdf:RDF><cc:Work
       rdf:about=""><dc:format>image/svg+xml</dc:format><dc:type
         rdf:resource="http://purl.org/dc/dcmitype/StillImage" /><dc:title></dc:title></cc:Work></rdf:RDF></metadata><sodipodi:namedview
   pagecolor="#ffffff"
   bordercolor="#666666"
   borderopacity="1"
   objecttolerance="10"
   gridtolerance="10"
   guidetolerance="10"
   inkscape:pageopacity="0"
   inkscape:pageshadow="2"
   inkscape:window-width="2560"
   inkscape:window-height="1017"
   id="namedview140"
   showgrid="false"
   inkscape:zoom="22.627417"
   inkscape:cx="45.402186"
   inkscape:cy="9.5998849"
   inkscape:window-x="-8"
   inkscape:window-y="-8"
   inkscape:window-maximized="1"
   inkscape:current-layer="g136" />
<defs
   id="defs2">
</defs>
<g
   id="g136"
   transform="matrix(0.40176838,0,0,0.40176838,0,-40.105999)">
	<g
   id="g58">
		
		
		
		
		
		
		
		
		
		
		
		
		
		
		
		
		
		
		
		
		
		
		
		
		
		
		
	</g>
	
	
	
	
	
	
	
	
	
	
	
	
	
	
	
		
	
		
	
	
	
	
	
	
	
	
	
	
	<g
   id="g4035"
   transform="matrix(1.1276479,0,0,1.1227204,-24.140148,49.795509)"><path
     style="fill:#1f2259"
     inkscape:connector-curvature="0"
     id="path4"
     d="m 81.454396,65.578371 c 0,0.532 -0.213,0.973 -0.638,1.313 -0.424,0.334 -0.923,0.5 -1.497,0.5 -0.16,0 -0.288,-0.006 -0.385,-0.018 -0.089,-0.02 -0.196,-0.06 -0.319,-0.116 0.445,0 0.842,-0.135 1.198,-0.406 0.355,-0.277 0.53,-0.636 0.53,-1.081 0,-0.403 -0.126,-0.705 -0.377,-0.898 -0.25,-0.2 -0.582,-0.298 -0.994,-0.298 -0.225,0 -0.449,0.019 -0.675,0.057 v 4.361 c 0,0.343 0.025,0.599 0.077,0.772 0.052,0.169 0.193,0.315 0.425,0.446 l -1.921,0.027 c 0.18,-0.078 0.297,-0.214 0.348,-0.416 0.058,-0.197 0.088,-0.436 0.088,-0.715 v -0.221 -3.646 -0.233 c 0,-0.289 -0.026,-0.522 -0.077,-0.705 -0.052,-0.186 -0.169,-0.316 -0.349,-0.394 l 2.345,-0.03 c 0.656,0 1.19,0.151 1.603,0.454 0.411,0.298 0.618,0.715 0.618,1.247" /><path
     style="fill:#1f2259"
     inkscape:connector-curvature="0"
     id="path6"
     d="m 86.271396,70.239371 v -0.637 c -0.2,0.263 -0.472,0.463 -0.812,0.6 -0.34,0.128 -0.701,0.192 -1.079,0.192 -0.35,0 -0.674,-0.057 -0.977,-0.165 -0.304,-0.109 -0.564,-0.283 -0.78,-0.521 -0.22,-0.237 -0.354,-0.494 -0.405,-0.771 -0.053,-0.283 -0.077,-0.655 -0.077,-1.119 v -2.587 -0.3 c 0,-0.258 -0.03,-0.475 -0.088,-0.655 -0.052,-0.181 -0.164,-0.303 -0.339,-0.366 l 1.836,-0.03 c -0.175,0.077 -0.29,0.213 -0.35,0.406 -0.052,0.192 -0.077,0.424 -0.077,0.695 v 0.25 2.587 c 0,0.63 0.129,1.104 0.388,1.418 0.263,0.309 0.646,0.463 1.148,0.463 0.283,0 0.547,-0.055 0.792,-0.162 0.251,-0.116 0.439,-0.266 0.568,-0.445 0.129,-0.18 0.202,-0.324 0.222,-0.434 0.019,-0.111 0.03,-0.281 0.03,-0.513 v -2.914 -0.3 c 0,-0.258 -0.03,-0.475 -0.085,-0.655 -0.055,-0.181 -0.167,-0.303 -0.342,-0.366 l 1.846,-0.03 0.011,0.03 c -0.183,0.063 -0.301,0.196 -0.359,0.396 -0.052,0.197 -0.077,0.435 -0.077,0.715 v 0.221 3.646 0.233 c 0,0.294 0.025,0.533 0.077,0.713 0.053,0.182 0.172,0.307 0.359,0.378 z" /><path
     style="fill:#1f2259"
     inkscape:connector-curvature="0"
     id="path8"
     d="m 92.487396,70.239371 h -4.024 c 0.18,-0.078 0.297,-0.216 0.348,-0.413 0.059,-0.2 0.089,-0.438 0.089,-0.718 v -0.221 -3.646 -0.243 c 0,-0.295 -0.028,-0.533 -0.079,-0.713 -0.051,-0.18 -0.171,-0.307 -0.357,-0.376 l 3.089,-0.03 h 0.174 c 0.121,0 0.215,-0.016 0.28,-0.049 l 0.028,1.131 c -0.149,-0.154 -0.318,-0.258 -0.511,-0.309 -0.188,-0.052 -0.406,-0.077 -0.658,-0.077 -0.224,0 -0.408,0.005 -0.549,0.019 -0.136,0.007 -0.281,0.022 -0.436,0.051 v 1.803 h 1.151 0.211 c 0.077,-0.006 0.148,-0.025 0.213,-0.059 l 0.029,1.024 c -0.085,-0.123 -0.197,-0.196 -0.338,-0.222 -0.138,-0.031 -0.319,-0.048 -0.55,-0.048 h -0.717 v 2.287 l 1.228,0.114 c 0.031,0.007 0.066,0.01 0.106,0.01 h 0.116 c 0.602,0 1.129,-0.193 1.571,-0.579 z" /><path
     style="fill:#1f2259"
     inkscape:connector-curvature="0"
     id="path10"
     d="m 99.186396,70.239371 h -0.888 c -0.489,0 -0.865,-0.16 -1.129,-0.481 l -1.179,-1.459 -0.887,-1.36 c 0.47,-0.071 0.864,-0.214 1.188,-0.424 0.32,-0.217 0.482,-0.538 0.482,-0.956 0,-0.335 -0.121,-0.598 -0.367,-0.79 -0.238,-0.193 -0.53,-0.291 -0.878,-0.291 -0.123,0 -0.245,0.013 -0.367,0.03 -0.122,0.019 -0.219,0.034 -0.289,0.047 v 4.333 0.242 c 0,0.296 0.025,0.532 0.077,0.714 0.051,0.18 0.171,0.302 0.357,0.368 l -1.844,0.027 c 0.174,-0.069 0.285,-0.202 0.337,-0.396 0.059,-0.194 0.089,-0.421 0.089,-0.684 v -0.272 -3.646 -0.311 c 0,-0.258 -0.029,-0.475 -0.089,-0.655 -0.052,-0.181 -0.163,-0.303 -0.337,-0.366 l 2.297,-0.03 c 0.632,0 1.119,0.146 1.468,0.437 0.354,0.288 0.53,0.665 0.53,1.129 0,0.409 -0.152,0.773 -0.453,1.088 -0.298,0.312 -0.658,0.514 -1.082,0.61 l 1.389,1.745 c 0.2,0.244 0.439,0.486 0.716,0.724 0.277,0.232 0.563,0.439 0.859,0.627" /><path
     style="fill:#1f2259"
     inkscape:connector-curvature="0"
     id="path12"
     d="m 102.6914,64.961371 c -0.072,-0.149 -0.185,-0.25 -0.338,-0.299 -0.148,-0.059 -0.32,-0.087 -0.521,-0.087 h -0.869 v 4.41 c 0,0.342 0.026,0.599 0.078,0.772 0.053,0.166 0.193,0.317 0.424,0.454 l -1.911004,0.029 c 0.174,-0.08 0.287,-0.216 0.337,-0.407 0.06,-0.192 0.089,-0.424 0.089,-0.696 v -0.25 -4.312 h -0.851 c -0.224,0 -0.435,0.031 -0.637,0.095 -0.198,0.06 -0.369,0.154 -0.51,0.291 l 0.307,-1.146 c 0.138,0.043 0.268,0.064 0.396,0.064 h 3.841004 c 0.105,0 0.188,-0.003 0.253,-0.009 0.063,-0.013 0.13,-0.032 0.192,-0.056 z" /><path
     style="fill:#1f2259"
     inkscape:connector-curvature="0"
     id="path14"
     d="m 108.9554,67.191371 c 0,-0.753 -0.221,-1.404 -0.665,-1.949 -0.438,-0.554 -1.027,-0.831 -1.766,-0.831 -0.74,0 -1.337,0.242 -1.785,0.725 -0.445,0.475 -0.667,1.083 -0.667,1.824 0,0.712 0.233,1.35 0.696,1.91 0.462,0.553 1.054,0.829 1.775,0.829 0.727,0 1.309,-0.233 1.746,-0.705 0.445,-0.469 0.666,-1.071 0.666,-1.803 m 1.099,-0.195 c 0,0.972 -0.347,1.784 -1.041,2.434 -0.694,0.644 -1.534,0.965 -2.52,0.965 -0.984,0 -1.817,-0.313 -2.498,-0.938 -0.684,-0.629 -1.024,-1.434 -1.024,-2.411 0,-0.928 0.347,-1.712 1.043,-2.357 0.702,-0.648 1.561,-0.973 2.577,-0.973 0.995,0 1.823,0.322 2.481,0.965 0.656,0.642 0.982,1.414 0.982,2.315" /><path
     style="fill:#1f2259"
     inkscape:connector-curvature="0"
     id="path16"
     d="m 118.9794,63.879371 -1.899,4.94 -0.656,1.709 c -0.406,-0.263 -0.672,-0.455 -0.801,-0.578 -0.122,-0.129 -0.249,-0.365 -0.376,-0.705 l -1.458,-3.955 c -0.096,-0.252 -0.191,-0.504 -0.28,-0.756 -0.122,-0.269 -0.278,-0.479 -0.472,-0.625 l 1.409,-0.03 -0.012,0.117 c 0,0.096 0.017,0.198 0.051,0.307 0.037,0.105 0.106,0.301 0.211,0.589 l 1.533,4.209 1.314,-3.465 c 0.109,-0.291 0.188,-0.521 0.24,-0.695 0.058,-0.18 0.087,-0.347 0.087,-0.501 0,-0.271 -0.112,-0.447 -0.338,-0.53 z" /><path
     style="fill:#1f2259"
     inkscape:connector-curvature="0"
     id="path18"
     d="m 123.2784,67.143371 -0.946,-2.443 -0.955,2.443 z m 0.676,3.096 c 0.232,-0.115 0.346,-0.238 0.346,-0.366 0,-0.077 -0.026,-0.185 -0.085,-0.329 -0.058,-0.14 -0.101,-0.251 -0.125,-0.327 l -0.531,-1.362 h -2.435 l -0.501,1.362 c -0.051,0.136 -0.091,0.248 -0.117,0.337 -0.023,0.085 -0.036,0.169 -0.036,0.252 0,0.09 0.023,0.168 0.075,0.241 0.06,0.063 0.148,0.119 0.271,0.165 l -1.776,0.027 c 0.245,-0.137 0.423,-0.302 0.532,-0.493 0.107,-0.192 0.243,-0.493 0.405,-0.907 l 1.612,-4.032 c 0.043,-0.121 0.079,-0.227 0.104,-0.309 0.032,-0.09 0.049,-0.169 0.049,-0.232 0,-0.092 -0.022,-0.164 -0.068,-0.223 -0.036,-0.057 -0.114,-0.103 -0.23,-0.134 l 1.525,-0.03 2.006,4.94 c 0.168,0.413 0.305,0.719 0.416,0.917 0.114,0.193 0.297,0.351 0.541,0.476 z" /><path
     style="fill:#1f2259"
     inkscape:connector-curvature="0"
     id="path20"
     d="m 132.0524,70.239371 h -0.889 c -0.49,0 -0.864,-0.16 -1.129,-0.481 l -1.177,-1.459 -0.887,-1.36 c 0.469,-0.071 0.863,-0.214 1.186,-0.424 0.321,-0.217 0.483,-0.538 0.483,-0.956 0,-0.335 -0.124,-0.598 -0.368,-0.79 -0.238,-0.193 -0.531,-0.291 -0.879,-0.291 -0.121,0 -0.244,0.013 -0.366,0.03 -0.122,0.019 -0.218,0.034 -0.288,0.047 v 4.333 0.242 c 0,0.296 0.024,0.532 0.076,0.714 0.051,0.18 0.172,0.302 0.357,0.368 l -1.843,0.027 c 0.173,-0.069 0.287,-0.202 0.337,-0.396 0.061,-0.194 0.087,-0.421 0.087,-0.684 v -0.272 -3.646 -0.311 c 0,-0.258 -0.026,-0.475 -0.087,-0.655 -0.05,-0.181 -0.164,-0.303 -0.337,-0.366 l 2.298,-0.03 c 0.63,0 1.119,0.146 1.466,0.437 0.354,0.288 0.532,0.665 0.532,1.129 0,0.409 -0.153,0.773 -0.455,1.088 -0.296,0.312 -0.655,0.514 -1.08,0.61 l 1.39,1.745 c 0.198,0.244 0.438,0.486 0.714,0.724 0.276,0.232 0.562,0.439 0.859,0.627" /><path
     style="fill:#1f2259"
     inkscape:connector-curvature="0"
     id="path22"
     d="m 135.4594,67.143371 -0.944,-2.443 -0.956,2.443 z m 0.675,3.096 c 0.233,-0.115 0.349,-0.238 0.349,-0.366 0,-0.077 -0.029,-0.185 -0.085,-0.329 -0.059,-0.14 -0.101,-0.251 -0.128,-0.327 l -0.529,-1.362 h -2.433 l -0.502,1.362 c -0.052,0.136 -0.09,0.248 -0.116,0.337 -0.026,0.085 -0.038,0.169 -0.038,0.252 0,0.09 0.026,0.168 0.077,0.241 0.059,0.063 0.146,0.119 0.271,0.165 l -1.776,0.027 c 0.244,-0.137 0.421,-0.302 0.53,-0.493 0.109,-0.192 0.243,-0.493 0.406,-0.907 l 1.61,-4.032 c 0.045,-0.121 0.081,-0.227 0.106,-0.309 0.031,-0.09 0.047,-0.169 0.047,-0.232 0,-0.092 -0.021,-0.164 -0.066,-0.223 -0.038,-0.057 -0.117,-0.103 -0.23,-0.134 l 1.524,-0.03 2.006,4.94 c 0.169,0.413 0.308,0.719 0.416,0.917 0.115,0.193 0.295,0.351 0.54,0.476 z" /><path
     style="fill:#1f2259"
     inkscape:connector-curvature="0"
     id="path24"
     d="m 142.8254,68.397371 c 0,0.532 -0.248,1 -0.743,1.399 -0.488,0.397 -1.103,0.599 -1.843,0.599 -0.31,0 -0.605,-0.022 -0.888,-0.068 -0.284,-0.045 -0.564,-0.119 -0.84,-0.224 l -0.279,-1.205 c 0.288,0.25 0.617,0.448 0.982,0.59 0.368,0.141 0.744,0.211 1.13,0.211 0.327,0 0.642,-0.085 0.936,-0.261 0.297,-0.18 0.445,-0.429 0.445,-0.742 0,-0.404 -0.277,-0.749 -0.831,-1.032 -0.553,-0.282 -1.093,-0.557 -1.621,-0.819 -0.578,-0.383 -0.869,-0.859 -0.869,-1.44 0,-0.565 0.236,-0.987 0.705,-1.263 0.477,-0.277 1.049,-0.416 1.718,-0.416 0.509,0 0.988,0.069 1.437,0.215 v 1.089 c -0.18,-0.181 -0.409,-0.325 -0.694,-0.435 -0.276,-0.116 -0.551,-0.176 -0.819,-0.176 -0.335,0 -0.627,0.073 -0.878,0.214 -0.245,0.137 -0.368,0.358 -0.368,0.666 0,0.362 0.273,0.687 0.82,0.976 0.553,0.282 1.099,0.557 1.631,0.819 0.578,0.366 0.869,0.799 0.869,1.303" /><path
     style="fill:#1f2259"
     inkscape:connector-curvature="0"
     id="path26"
     d="m 85.049396,60.409371 c -0.773,0.144 -1.355,0.242 -1.751,0.294 -0.393,0.062 -0.839,0.09 -1.338,0.09 -1.621,0 -2.899,-0.399 -3.834,-1.209 -0.934,-0.805 -1.402,-1.864 -1.402,-3.177 0,-1.383 0.489,-2.478 1.468,-3.281 0.976,-0.817 2.26,-1.224 3.847,-1.224 0.668,0 1.347,0.074 2.032,0.219 v 1.48 c -0.256,-0.266 -0.598,-0.459 -1.029,-0.58 -0.418,-0.129 -0.857,-0.192 -1.312,-0.192 -1.022,0 -1.867,0.308 -2.536,0.927 -0.669,0.618 -1.002,1.439 -1.002,2.469 0,1.04 0.355,1.904 1.067,2.603 0.714,0.692 1.583,1.041 2.611,1.041 0.635,0 1.235,-0.083 1.803,-0.246 v -1.851 c 0,-0.396 -0.035,-0.71 -0.103,-0.938 -0.069,-0.242 -0.232,-0.412 -0.489,-0.518 l 1.969,-0.036 c -0.024,0.069 -0.042,0.162 -0.05,0.282 -0.01,0.111 -0.014,0.214 -0.014,0.309 v 2.958 0.272 c 0,0.108 0.021,0.213 0.063,0.308" /><path
     style="fill:#1f2259"
     inkscape:connector-curvature="0"
     id="path28"
     d="m 93.637396,60.589371 h -1.185 c -0.653,0 -1.152,-0.214 -1.506,-0.644 l -1.569,-1.942 -1.183,-1.815 c 0.625,-0.096 1.151,-0.281 1.582,-0.566 0.428,-0.291 0.643,-0.717 0.643,-1.273 0,-0.447 -0.163,-0.8 -0.488,-1.056 -0.317,-0.259 -0.709,-0.386 -1.172,-0.386 -0.163,0 -0.325,0.012 -0.488,0.04 -0.163,0.024 -0.292,0.045 -0.387,0.062 v 5.778 0.32 c 0,0.396 0.035,0.713 0.103,0.952 0.069,0.242 0.228,0.404 0.477,0.491 l -2.458,0.038 c 0.233,-0.095 0.383,-0.271 0.45,-0.529 0.078,-0.257 0.117,-0.56 0.117,-0.912 v -0.36 -4.865 -0.412 c 0,-0.342 -0.039,-0.635 -0.117,-0.874 -0.067,-0.24 -0.217,-0.402 -0.45,-0.488 l 3.066,-0.039 c 0.838,0 1.49,0.192 1.953,0.581 0.472,0.386 0.707,0.887 0.707,1.504 0,0.549 -0.199,1.034 -0.602,1.453 -0.396,0.412 -0.876,0.684 -1.442,0.812 l 1.853,2.328 c 0.267,0.326 0.584,0.647 0.951,0.966 0.368,0.307 0.751,0.587 1.145,0.836" /><path
     style="fill:#1f2259"
     inkscape:connector-curvature="0"
     id="path30"
     d="m 98.465396,56.459371 -1.26,-3.258 -1.275,3.258 z m 0.901,4.13 c 0.31,-0.154 0.464,-0.316 0.464,-0.488 0,-0.104 -0.038,-0.25 -0.116,-0.438 -0.076,-0.188 -0.132,-0.335 -0.168,-0.439 l -0.706,-1.812 h -3.243 l -0.669,1.812 c -0.067,0.181 -0.12,0.333 -0.154,0.453 -0.034,0.113 -0.052,0.222 -0.052,0.333 0,0.12 0.034,0.228 0.102,0.323 0.078,0.085 0.199,0.157 0.361,0.219 l -2.368,0.038 c 0.327,-0.18 0.562,-0.398 0.707,-0.657 0.146,-0.256 0.327,-0.659 0.542,-1.21 l 2.149,-5.379 c 0.06,-0.161 0.106,-0.299 0.14,-0.411 0.044,-0.121 0.066,-0.224 0.066,-0.309 0,-0.121 -0.03,-0.217 -0.09,-0.297 -0.054,-0.077 -0.154,-0.136 -0.309,-0.179 l 2.034,-0.039 2.676004,6.589 c 0.223,0.55 0.407,0.955 0.554,1.223 0.154,0.258 0.395,0.467 0.72,0.631 z" /><path
     style="fill:#1f2259"
     inkscape:connector-curvature="0"
     id="path32"
     d="m 110.6574,53.768371 v 6.59 0.644 c -0.43,-0.146 -0.768,-0.323 -1.018,-0.529 -0.248,-0.206 -0.535,-0.517 -0.862,-0.938 l -4.428,-5.613 v 4.993 c 0,0.453 0.035,0.798 0.104,1.03 0.069,0.222 0.257,0.423 0.566,0.604 l -2.277,0.04 c 0.309,-0.198 0.497,-0.411 0.565,-0.644 0.077,-0.241 0.118,-0.585 0.118,-1.03 v -5.147 c 0,-0.463 -0.036,-0.803 -0.105,-1.016 -0.067,-0.224 -0.256,-0.423 -0.565,-0.605 l 1.879,-0.038 c 0.034,0.121 0.099,0.231 0.193,0.335 l 0.181,0.257 4.722,5.958 v -4.891 c 0,-0.453 -0.036,-0.793 -0.103,-1.016 -0.069,-0.231 -0.258,-0.434 -0.566,-0.605 l 2.266,-0.038 c -0.301,0.19 -0.489,0.404 -0.567,0.644 -0.07,0.238 -0.103,0.579 -0.103,1.015" /><path
     style="fill:#1f2259"
     inkscape:connector-curvature="0"
     id="path34"
     d="m 117.7884,60.589371 h -5.367 c 0.242,-0.105 0.396,-0.287 0.465,-0.553 0.077,-0.267 0.115,-0.584 0.115,-0.952 v -0.297 -4.865 -0.32 c 0,-0.395 -0.034,-0.711 -0.102,-0.953 -0.069,-0.241 -0.229,-0.407 -0.478,-0.501 l 4.119,-0.039 h 0.231 c 0.162,0 0.286,-0.021 0.374,-0.064 l 0.038,1.504 c -0.196,-0.205 -0.426,-0.341 -0.684,-0.41 -0.247,-0.069 -0.539,-0.104 -0.875,-0.104 -0.299,0 -0.543,0.011 -0.731,0.027 -0.182,0.008 -0.374,0.03 -0.579,0.064 v 2.407 h 1.531 0.283 c 0.101,-0.008 0.196,-0.035 0.282,-0.077 l 0.038,1.365 c -0.111,-0.165 -0.262,-0.262 -0.449,-0.298 -0.181,-0.044 -0.427,-0.062 -0.732,-0.062 h -0.953 v 3.048 l 1.633,0.155 c 0.045,0.009 0.09,0.014 0.141,0.014 h 0.154 c 0.81,0 1.507,-0.257 2.099,-0.773 z" /><path
     style="fill:#1f2259"
     inkscape:connector-curvature="0"
     id="path36"
     d="m 127.0054,60.589371 h -1.184 c -0.653,0 -1.153,-0.214 -1.504,-0.644 l -1.572,-1.942 -1.183,-1.815 c 0.626,-0.096 1.152,-0.281 1.582,-0.566 0.429,-0.291 0.644,-0.717 0.644,-1.273 0,-0.447 -0.162,-0.8 -0.489,-1.056 -0.317,-0.259 -0.708,-0.386 -1.171,-0.386 -0.163,0 -0.325,0.012 -0.489,0.04 -0.163,0.024 -0.292,0.045 -0.386,0.062 v 5.778 0.32 c 0,0.396 0.035,0.713 0.102,0.952 0.068,0.242 0.228,0.404 0.477,0.491 l -2.458,0.038 c 0.233,-0.095 0.381,-0.271 0.45,-0.529 0.077,-0.257 0.118,-0.56 0.118,-0.912 v -0.36 -4.865 -0.412 c 0,-0.342 -0.041,-0.635 -0.118,-0.874 -0.069,-0.24 -0.217,-0.402 -0.45,-0.488 l 3.063,-0.039 c 0.84,0 1.491,0.192 1.956,0.581 0.473,0.386 0.707,0.887 0.707,1.504 0,0.549 -0.202,1.034 -0.604,1.453 -0.395,0.412 -0.875,0.684 -1.442,0.812 l 1.854,2.328 c 0.266,0.326 0.582,0.647 0.952,0.966 0.368,0.307 0.752,0.587 1.145,0.836" /><path
     style="fill:#1f2259"
     inkscape:connector-curvature="0"
     id="path38"
     d="m 134.3964,56.522371 c 0,-1.001 -0.297,-1.869 -0.888,-2.6 -0.584,-0.736 -1.369,-1.106 -2.355,-1.106 -0.985,0 -1.78,0.322 -2.382,0.967 -0.591,0.633 -0.887,1.445 -0.887,2.431 0,0.953 0.309,1.802 0.926,2.548 0.617,0.738 1.408,1.107 2.368,1.107 0.969,0 1.746,-0.312 2.33,-0.938 0.591,-0.629 0.888,-1.431 0.888,-2.409 m 1.466,-0.257 c 0,1.297 -0.463,2.376 -1.389,3.242 -0.927,0.86 -2.045,1.288 -3.358,1.288 -1.312,0 -2.423,-0.416 -3.333,-1.25 -0.91,-0.841 -1.365,-1.912 -1.365,-3.215 0,-1.236 0.464,-2.283 1.393,-3.141 0.934,-0.867 2.078,-1.299 3.435,-1.299 1.327,0 2.432,0.428 3.307,1.287 0.874,0.855 1.31,1.889 1.31,3.088" /><path
     style="fill:#1f2259"
     inkscape:connector-curvature="0"
     id="path40"
     d="m 142.7114,58.129371 c 0,0.715 -0.33,1.335 -0.988,1.868 -0.652,0.532 -1.474,0.796 -2.458,0.796 -0.413,0 -0.809,-0.029 -1.186,-0.09 -0.376,-0.06 -0.75,-0.155 -1.119,-0.294 l -0.371,-1.61 c 0.386,0.335 0.822,0.598 1.31,0.785 0.489,0.189 0.991,0.284 1.505,0.284 0.438,0 0.854,-0.115 1.25,-0.349 0.393,-0.239 0.592,-0.568 0.592,-0.99 0,-0.54 -0.369,-1 -1.108,-1.378 -0.735,-0.376 -1.457,-0.74 -2.162,-1.093 -0.77,-0.505 -1.155,-1.145 -1.155,-1.916 0,-0.757 0.312,-1.317 0.938,-1.688 0.636,-0.368 1.397,-0.553 2.291,-0.553 0.678,0 1.316,0.093 1.916,0.283 v 1.453 c -0.239,-0.239 -0.548,-0.432 -0.926,-0.579 -0.369,-0.153 -0.733,-0.23 -1.095,-0.23 -0.446,0 -0.836,0.095 -1.171,0.283 -0.325,0.18 -0.488,0.475 -0.488,0.889 0,0.479 0.365,0.913 1.095,1.299 0.737,0.378 1.462,0.741 2.174,1.093 0.77,0.49 1.156,1.07 1.156,1.737" /><path
     style="fill:#ffffff"
     inkscape:connector-curvature="0"
     id="path42"
     d="m 49.572873,45.292371 c 10.314,0 18.882,8.598 18.882,18.906 0,3.822 -1.306,6.797 -5.553,6.797 -4.465,0 -8.858,-1.022 -13.329,-1.022 -4.486,0 -8.893,1.022 -13.373,1.022 -4.264,0 -5.53,-2.98 -5.53,-6.797 0,-10.354 8.546,-18.906 18.903,-18.906" /><path
     style="fill:#1f2259"
     inkscape:connector-curvature="0"
     id="path44"
     d="m 65.078873,66.440371 c -0.305,0.234 -7.764,1.682 -9.396,2.356 -0.505,-0.461 -0.774,-0.823 -1.532,-0.823 -2.029,0 -4.223,0.777 -6.4,0.777 -5.094,0 -9.482,-2.754 -14.551,-2.754 -2.041,0 -3.881,0.305 -5.842,0.821 1.923,-0.877 3.877,-1.802 5.685,-2.888 0.143,-0.086 0.399,-0.052 0.557,-0.066 l 0.354,-0.044 0.187,-0.016 0.11,-0.021 0.074,-0.017 0.074,-0.017 -0.074,0.076 -0.126,0.111 -0.118,0.096 -0.222,0.169 -0.422,0.312 c -0.186,0.106 -0.571,0.345 -0.571,0.571 0,0.056 -0.017,0.087 0.046,0.087 0.169,0 0.517,-0.221 0.644,-0.332 l 0.332,-0.289 0.178,-0.156 0.118,-0.109 0.059,-0.046 0.113,-0.064 -0.075,0.087 -0.068,0.08 -0.088,0.113 -0.153,0.23 -0.225,0.37 c -0.087,0.108 -0.369,0.499 -0.369,0.605 0,0.159 0.164,0.179 0.289,0.179 0.817,0 0.937,-0.537 1.399,-0.933 0.316,-0.273 1.667,0.064 1.667,-0.646 0,-0.271 0.422,-0.295 0.732,-0.398 0.602,0.506 1.788,2.354 2.399,2.354 0.33,0 0.045,-0.277 0.045,-0.459 l -0.045,-0.185 v -0.067 l 0.245,0.333 c 0.383,0.448 0.778,0.942 1.354,1.133 0.075,0.025 0.15,0 0.222,0 h 0.179 c 0.044,-0.26 -0.182,-0.472 -0.326,-0.688 l -0.082,-0.141 -0.015,-0.06 c 0.642,0 1.666,0.866 2,0.866 l 0.155,-0.179 -0.089,-0.044 -0.268,-0.198 -1,-0.802 -0.089,-0.378 c 0.485,-0.044 0.717,0.778 1.201,0.778 l 0.089,-0.111 c 0,-0.095 -0.164,-0.097 -0.229,-0.162 -0.208,-0.208 -0.342,-0.422 -0.521,-0.646 l -0.139,-0.259 -0.053,-0.134 c 0.403,-0.043 0.631,0.622 1.051,0.622 l 0.021,-0.108 c 0.072,-0.095 0.126,-0.136 0.246,-0.136 0.521,0 2.235,1.479 2.711,1.823 0.146,0 0.243,-0.111 0.332,-0.157 l 0.09,-0.044 c 0,-0.131 -0.205,-0.159 -0.297,-0.254 -0.327,-0.324 -0.553,-0.946 -1.015,-0.946 l 0.135,0.022 0.244,0.021 c 0.271,0 0.511,-0.029 0.769,0.067 0.723,0.272 1.298,0.856 1.984,1.2 -0.023,-0.052 0.111,-0.143 0.111,-0.2 l -0.267,-0.268 c -1.144,-1.247 -2.113,-1.726 -3.132,-3.086 0.673,0.592 4.334,3.199 5.088,3.199 0.04,0 0.087,-0.019 0.087,-0.067 0,-0.255 -1.399,-0.905 -1.399,-1.289 0,-0.077 0.087,-0.089 0.156,-0.089 0.284,0 1.089,0.622 1.378,0.622 l 0.377,-0.067 0.111,-0.023 c 0,-0.203 -0.483,-0.131 -0.511,-0.33 1.031,-0.283 1.963,-0.652 2.953,-1.046 -0.417,0.418 -0.713,0.617 -1.19,0.977 -0.093,0.069 -0.43,0.198 -0.43,0.312 0,0.143 0.647,0 0.688,0 l -0.089,0.043 -0.2,0.09 c -0.143,0.071 -0.578,0.229 -0.578,0.378 0,0.052 0.122,0.09 0.157,0.09 0.303,0 2.132,-0.899 2.132,-1.09 -0.383,0 -0.629,0.266 -0.999,0.266 h -0.062 c 0,-0.125 0.235,-0.091 0.343,-0.155 0.306,-0.186 0.862,-0.488 1.17,-0.488 l 0.108,0.023 0.092,-0.023 c 0,0.41 -0.957,1.065 -0.957,1.532 0,0.08 0.046,0.111 0.111,0.111 0.425,0 1.291,-1.335 1.422,-1.621 0.072,0.072 0.165,0.083 0.25,0.126 l 0.06,0.028 c 0.046,0.384 -0.199,0.808 -0.199,1.201 l 0.045,0.09 c 0.252,0 0.205,-0.646 0.489,-0.646 0.064,0 0.131,-0.069 0.11,0.067 l -0.022,0.064 v 0.578 c 0,0.129 0.078,0.422 0.245,0.422 0.278,0 0.109,-1.289 0.109,-1.509 0,-0.158 0.023,-0.135 0.135,-0.135 0.245,0 0.379,1.333 0.665,1.333 l 0.046,-0.176 c 0.048,-0.205 0.11,-0.406 0.11,-0.578 0,-0.082 -0.05,-0.157 0.045,-0.157 0.129,0 0.312,-0.384 0.312,-0.488 0,-0.313 -0.513,-0.28 -0.513,-0.4 0,-0.23 0.392,-0.312 0.623,-0.312 0.335,0 0.867,1 0.867,1.29 0,0.114 0.317,0.51 0.467,0.51 0.054,0 0.065,-0.168 0.065,-0.199 l 0.022,-0.688 c 0,0 -0.457,-0.552 -0.466,-0.646 0.562,0.357 1.149,0.67 1.762,0.933 l 0.415,0.178 0.156,0.044 -0.023,-0.176 -0.444,-0.296 -0.245,-0.183 -0.087,-0.068 c 1.286,-0.045 3.366,1.061 4.641,1.51" /><path
     style="fill:#45a34e"
     inkscape:connector-curvature="0"
     id="path46"
     d="m 51.728873,70.638371 c 3.31,-1.752 7.008,-2.618 10.752,-2.618 4.694,0 9.52,1.387 13.13,4.472 0.372,0.319 1.445,1.443 1.445,1.971 l -0.023,0.687 c -0.304,0.812 -1.732,1.067 -2.467,1.067 -4.755,0 -9.356,-1.911 -14.239,-1.911 -6.59,0 -11.308,3.53 -17.284,3.53 -1.021,0 -8.064,-0.719 -8.064,-2.263 0,-0.97 2.859,-0.867 3.777,-0.867 h 0.376 c -1.925,-0.446 -3.764,-0.557 -5.73,-0.557 -3.958,0 -8.429,2.401 -10.397,2.401 -0.206,0 -0.551,-0.214 -0.645,-0.399 l -0.045,-0.424 c 0,-1.839 4.849,-4.966 7,-5.311 -2.207,0.266 -4.533,0.513 -6.755,0.513 -0.714,0 -1.133,-0.239 -1.133,-0.956 0,-3.503 12.362,-4.286 15.483,-4.286 1.619,0 4.787,2.141 6.51,2.732 2.168,0.742 4.788,0.91 7.065,0.91 1.023,0 2.166,-0.129 3.089,-0.6 -0.658,0.613 -1.327,1.159 -1.845,1.909" /><path
     style="fill:#07743b"
     inkscape:connector-curvature="0"
     id="path48"
     d="m 24.492873,66.886371 c -0.193,0.312 -0.245,0.64 -0.245,0.998 0,0.479 0.735,0.8 1.134,0.8 0.944,0 4.926,-1.775 8.064,-1.775 6.427,0 11.564,3.146 18.683,2.999 -5.143,3.017 -7.392,2.776 -12.995,2.776 -0.691,0 -1.067,0.618 -1.067,1.243 0,0.054 0.172,1.311 0.423,0.778 0.94,0.191 1.906,0.268 2.866,0.268 8.168,0 11.41,-5.511 21.77,-5.511 3.306,0 8.888,2.222 9.907,2.222 0.446,0 0.934,-0.854 0.934,-1.244 0,-0.316 -0.128,-0.589 -0.312,-0.843 -3.286,-1.426 -6.951,-2.357 -10.551,-2.357 -2.532,0 -4.955,0.362 -7.376,1.111 -0.335,-0.474 -0.853,-0.711 -1.422,-0.711 -1.655,0 -3.384,0.511 -5.109,0.511 -5.49,0 -10.027,-3.179 -15.438,-3.179 -3.161,0.001 -6.398,0.548 -9.266,1.914" /><path
     style="fill:#1c994f"
     inkscape:connector-curvature="0"
     id="path50"
     d="m 68.723873,67.062371 -0.689,-0.776 h -0.311 c 0.075,-0.833 0.111,-1.653 0.111,-2.489 0,-9.98 -8.459,-18.061 -18.306,-18.061 -10.063,0 -19.053,8.761 -18.261,19.04 l -0.223,0.378 -0.912,-0.023 c -0.056,-0.146 -0.043,-0.622 -0.043,-0.8 10e-4,-10.782 8.567,-19.749 19.461,-19.749 11.365,0 18.599,8.741 19.418,19.46 0.073,0.997 -0.189,2.032 -0.245,3.02" /><path
     style="fill:#fdb515"
     inkscape:connector-curvature="0"
     id="path52"
     d="m 36.355873,61.977371 c 1.101,-0.751 2.957,-2.42 4.198,-2.42 1.13,0 8.164,4.827 9.798,5.775 1.021,-0.396 5.345,-2.401 6.352,-2.401 2.703,0 3.459,1.469 5.866,2.442 0.211,-0.681 0.41,-1.427 0.355,-2.154 -0.543,-7.339 -5.562,-13.308 -13.307,-13.308 -6.142,0 -13.285,5.47 -13.285,12.021 z" /><path
     style="fill:#1f2259"
     inkscape:connector-curvature="0"
     id="path54"
     d="m 42.890873,71.196371 c 0.301,0.077 0.729,0.164 0.955,0.4 v 0.154 c -0.663,0.74 -7.204,0.732 -8.177,0.732 -0.754,0 -7.374,0.113 -7.374,-1.331 0,-0.14 0.571,-0.346 0.667,-0.378 2.12,-0.707 4.407,-0.532 6.597,-0.532 0.911,0 2.263,-0.559 3.467,-0.559 3.578,0 7.026,0.404 10.552,0.913 v 0.113 c 0,0.124 -1.362,0.332 -1.549,0.351 -1.675,0.205 -3.455,0.195 -5.138,0.137" /><path
     style="fill:#ffffff"
     inkscape:connector-curvature="0"
     id="path56"
     d="m 36.223873,67.786371 c -0.325,-0.08 -0.787,-0.466 -1.066,-0.466 -0.022,0 -0.021,0.066 -0.046,0.066 l -0.333,0.044 c -0.029,0.047 -0.134,0.062 -0.176,0.135 -0.148,0.239 -0.206,0.462 -0.401,0.687 -0.036,0.046 -0.062,0.1 -0.11,0.135 -0.453,0.322 -0.53,0.188 -0.934,0.289 -0.113,0.028 -0.36,0.249 -0.443,0.333 -0.559,0.559 -0.8,1.204 -0.8,1.999 v 0.09 c 0,0.036 -0.045,0.064 0,0.064 0.201,-0.359 0.345,-0.7 0.644,-0.997 l -0.111,0.177 v 0.043 c -0.018,0.042 -0.11,1.079 -0.11,1.245 0,0.113 -0.015,0.09 0.088,0.09 h 0.067 c -0.032,-0.066 -0.045,-0.385 -0.045,-0.468 0,-0.214 0.036,-0.411 0.066,-0.622 0.034,-0.033 0.147,-0.116 0.155,-0.132 v -0.046 c 0.03,-0.021 0.067,-0.103 0.09,-0.133 l -0.044,0.043 c 0,0.049 0.044,0.088 0.044,0.136 0.087,0.145 0.669,1.132 0.733,1.176 -0.035,0.036 0.1,0.023 0.112,0.023 h 0.087 c -0.156,-0.139 -0.758,-1.036 -0.799,-1.222 0.195,-0.296 0.412,-0.6 0.532,-0.934 0.673,-0.121 1.073,-1.584 1.355,-1.666 l 0.022,-0.046 c 0.31,-0.088 0.266,-0.199 0.713,-0.199 0.261,0 0.514,0.044 0.776,0.044 -0.036,0 -0.013,0.034 -0.023,0.045 l -0.022,0.043 -0.021,0.044 z" /><polygon
     transform="translate(16.169873,44.582371)"
     style="fill:#b9532e"
     id="polygon60"
     points="54.151,24.323 51.798,21.681 44.935,21.816 47.153,24.634 " /><polygon
     transform="translate(16.169873,44.582371)"
     style="fill:none;stroke:#010101;stroke-width:0.53200001;stroke-miterlimit:10"
     id="polygon62"
     points="54.151,24.323 51.798,21.681 44.935,21.816 47.153,24.634 "
     stroke-miterlimit="10" /><g
     transform="translate(16.169873,44.582371)"
     id="g68">
		<path
   style="fill:#ffffff"
   inkscape:connector-curvature="0"
   id="path64"
   d="m 55.243,29.123 -0.025,-1.71 -6.753,0.534 -1.2,-1.534 6.887,-0.354 v -1.735 l -7.019,0.335 -2.266,-2.91 -2.267,2.819 0.022,4.267 c 1.786,0.27 4.112,0.889 5.889,0.889 2.166,-0.001 4.559,-0.408 6.732,-0.601" />
		<path
   style="fill:none;stroke:#010101;stroke-width:0.48500001;stroke-miterlimit:10"
   inkscape:connector-curvature="0"
   id="path66"
   d="m 55.243,29.123 -0.025,-1.71 -6.753,0.534 -1.2,-1.534 6.887,-0.354 v -1.735 l -7.019,0.335 -2.266,-2.91 -2.267,2.819 0.022,4.267 c 1.786,0.27 4.112,0.889 5.889,0.889 2.166,-0.001 4.559,-0.408 6.732,-0.601 z"
   stroke-miterlimit="10" />
	</g><rect
     style="fill:#010101"
     id="rect70"
     height="0.86799997"
     width="0.26699999"
     y="68.06237"
     x="60.815872" /><rect
     style="fill:#010101"
     id="rect72"
     height="0.98100001"
     width="0.46799999"
     y="69.638374"
     x="61.723873" /><rect
     style="fill:#010101"
     id="rect74"
     height="0.95599997"
     width="0.44400001"
     y="69.573372"
     x="59.592873" /><rect
     style="fill:#010101"
     id="rect76"
     height="0.98000002"
     width="0.44400001"
     y="71.306374"
     x="59.592873" /><rect
     style="fill:#010101"
     id="rect78"
     height="0.95599997"
     width="0.46700001"
     y="71.39537"
     x="61.636871" /><polygon
     transform="translate(16.169873,44.582371)"
     style="fill:#010101"
     id="polygon80"
     points="53.286,25.524 53.286,24.834 52.954,24.834 52.954,25.546 " /><polygon
     transform="translate(16.169873,44.582371)"
     style="fill:#010101"
     id="polygon82"
     points="51.022,25.613 51.022,24.901 50.688,24.924 50.688,25.634 " /><polygon
     transform="translate(16.169873,44.582371)"
     style="fill:#010101"
     id="polygon84"
     points="48.486,25.724 48.486,25.037 48.154,25.037 48.154,25.747 " /><polygon
     transform="translate(16.169873,44.582371)"
     style="fill:#010101"
     id="polygon86"
     points="50.043,28.945 50.043,28.234 49.709,28.258 49.709,28.969 " /><polygon
     transform="translate(16.169873,44.582371)"
     style="fill:#010101"
     id="polygon88"
     points="52.196,28.745 52.196,28.056 51.864,28.079 51.864,28.769 " /><polygon
     transform="translate(16.169873,44.582371)"
     style="fill:#010101"
     id="polygon90"
     points="54.375,28.591 54.375,27.899 54.04,27.923 54.04,28.612 " /><line
     style="fill:none;stroke:#010101;stroke-width:0.48500001;stroke-miterlimit:10"
     id="line92"
     y2="71.060371"
     x2="63.322872"
     y1="69.240372"
     x1="63.302872"
     stroke-miterlimit="10" /><line
     style="fill:none;stroke:#010101;stroke-width:0.48500001;stroke-miterlimit:10"
     id="line94"
     y2="74.283371"
     x2="64.678871"
     y1="72.684372"
     x1="64.790871"
     stroke-miterlimit="10" /><polygon
     transform="translate(16.169873,44.582371)"
     style="fill:#b9532e"
     id="polygon96"
     points="55.243,27.413 48.575,28.033 47.243,26.369 54.151,26.037 " /><polygon
     transform="translate(16.169873,44.582371)"
     style="fill:none;stroke:#010101;stroke-width:0.53200001;stroke-miterlimit:10"
     id="polygon98"
     points="55.243,27.413 48.575,28.033 47.243,26.369 54.151,26.037 "
     stroke-miterlimit="10" /><g
     transform="translate(16.169873,44.582371)"
     id="g102">
		<path
   style="fill:#1f2259"
   inkscape:connector-curvature="0"
   id="path100"
   d="m 18.262,14.825 0.198,-0.627 c 0.079,-0.25 0.101,-0.416 0.068,-0.501 -0.035,-0.088 -0.156,-0.167 -0.364,-0.234 -0.238,-0.078 -0.396,-0.102 -0.472,-0.064 -0.074,0.038 -0.149,0.174 -0.225,0.407 l -0.214,0.684 z m 1.19,1.004 -2.823,-0.939 0.368,-1.169 0.048,-0.145 c 0.122,-0.393 0.271,-0.638 0.448,-0.727 0.177,-0.094 0.457,-0.077 0.836,0.052 0.378,0.124 0.608,0.275 0.691,0.445 0.083,0.173 0.061,0.458 -0.064,0.854 l -0.037,0.129 -0.206,0.648 0.912,0.302 z" />
	</g><path
     style="fill:#1f2259"
     inkscape:connector-curvature="0"
     id="path104"
     d="m 36.635873,55.602371 -1.589,-0.365 1.066,1.261 z m 0.424,0.103 -0.658,1.129 0.393,0.465 -0.308,0.524 -2.034,-2.439 0.436,-0.746 3.059,0.689 -0.302,0.517 z" /><g
     transform="translate(16.169873,44.582371)"
     id="g112">
		<path
   style="fill:#1f2259"
   inkscape:connector-curvature="0"
   id="path106"
   d="M 21.358,8.919 21.911,8.314 C 22.042,8.167 22.105,8.048 22.097,7.953 22.088,7.859 22.011,7.736 21.857,7.594 21.703,7.444 21.586,7.368 21.503,7.367 21.42,7.365 21.317,7.431 21.191,7.571 l -0.578,0.637 z m 0.697,1.458 -2.172,-2.08 0.997,-1.099 c 0.249,-0.273 0.467,-0.417 0.652,-0.433 0.186,-0.017 0.401,0.093 0.642,0.324 0.219,0.209 0.347,0.381 0.381,0.509 0.033,0.129 -0.008,0.289 -0.122,0.477 L 22.448,8.09 C 22.686,7.858 22.94,7.867 23.205,8.124 L 23.684,8.581 23.3,9.003 22.904,8.625 C 22.68,8.41 22.464,8.417 22.26,8.644 l -0.554,0.609 0.733,0.7 z" />
		<path
   style="fill:#1f2259"
   inkscape:connector-curvature="0"
   id="path108"
   d="M 24.472,6.622 24.468,6.198 25.208,6.187 C 25.156,6.092 25.12,6.026 25.1,5.995 L 24.927,5.743 24.717,5.434 C 24.559,5.201 24.42,5.079 24.302,5.066 24.185,5.053 23.994,5.141 23.735,5.328 c -0.311,0.224 -0.463,0.396 -0.458,0.515 0.003,0.118 0.17,0.422 0.5,0.905 0.248,0.365 0.428,0.562 0.536,0.586 0.113,0.023 0.336,-0.086 0.669,-0.325 0.172,-0.121 0.278,-0.258 0.324,-0.398 z m 1.761,-0.439 0.003,0.422 -0.343,0.002 C 25.848,6.873 25.615,7.16 25.192,7.463 24.726,7.797 24.38,7.941 24.153,7.894 23.923,7.844 23.633,7.567 23.289,7.06 22.888,6.471 22.697,6.052 22.716,5.807 22.735,5.56 22.979,5.267 23.451,4.928 23.918,4.591 24.263,4.45 24.494,4.506 c 0.229,0.054 0.524,0.345 0.884,0.877 0.257,0.376 0.418,0.646 0.479,0.805 z" />
		<path
   style="fill:#1f2259"
   inkscape:connector-curvature="0"
   id="path110"
   d="m 27.613,2.783 0.525,-0.208 0.707,1.893 c 0.147,0.396 0.172,0.689 0.07,0.878 C 28.815,5.53 28.537,5.714 28.08,5.897 27.598,6.086 27.258,6.15 27.063,6.088 26.867,6.026 26.698,5.802 26.552,5.411 l -0.72,-1.927 0.526,-0.208 0.718,1.929 c 0.078,0.209 0.167,0.327 0.26,0.355 0.093,0.026 0.276,-0.013 0.546,-0.12 0.277,-0.108 0.441,-0.206 0.491,-0.291 0.05,-0.085 0.033,-0.239 -0.05,-0.461 z" />
	</g><polygon
     transform="translate(16.169873,44.582371)"
     style="fill:#1f2259"
     id="polygon114"
     points="31.773,4.465 31.847,4.945 29.829,5.274 29.363,2.263 31.37,1.935 31.445,2.415 29.995,2.651 30.114,3.429 31.489,3.205 31.553,3.627 30.181,3.851 30.312,4.702 " /><g
     transform="translate(16.169873,44.582371)"
     id="g120">
		<path
   style="fill:#1f2259"
   inkscape:connector-curvature="0"
   id="path116"
   d="m 34.371,3.467 0.637,0.08 C 35.263,3.58 35.425,3.57 35.501,3.521 35.577,3.467 35.628,3.331 35.656,3.107 35.685,2.851 35.674,2.689 35.625,2.622 35.577,2.553 35.432,2.504 35.193,2.474 L 34.501,2.385 Z m -0.731,1.39 0.359,-3.025 1.189,0.149 0.146,0.017 c 0.397,0.051 0.658,0.156 0.777,0.317 0.124,0.16 0.161,0.445 0.113,0.853 -0.05,0.404 -0.147,0.665 -0.296,0.78 -0.147,0.116 -0.425,0.149 -0.826,0.098 L 34.972,4.033 34.312,3.95 34.197,4.928 Z" />
		<path
   style="fill:#1f2259"
   inkscape:connector-curvature="0"
   id="path118"
   d="m 37.507,4.005 0.769,0.256 C 38.459,4.322 38.591,4.33 38.671,4.283 38.754,4.236 38.827,4.111 38.892,3.908 38.956,3.701 38.974,3.558 38.94,3.483 38.908,3.404 38.804,3.336 38.627,3.277 l -0.805,-0.27 z m -0.992,1.262 0.918,-2.9 1.391,0.465 c 0.347,0.114 0.566,0.255 0.657,0.422 0.091,0.168 0.088,0.414 -0.014,0.736 -0.095,0.293 -0.19,0.483 -0.291,0.568 -0.1,0.085 -0.257,0.115 -0.472,0.089 l -0.006,0.02 c 0.306,0.125 0.403,0.364 0.29,0.722 L 38.787,6.027 38.253,5.847 38.418,5.32 C 38.514,5.019 38.417,4.822 38.131,4.728 L 37.36,4.468 37.05,5.445 Z" />
	</g><polygon
     transform="translate(16.169873,44.582371)"
     style="fill:#1f2259"
     id="polygon122"
     points="39.317,6.345 40.618,3.604 41.123,3.856 39.822,6.599 " /><g
     transform="translate(16.169873,44.582371)"
     id="g126">
		<path
   style="fill:#1f2259"
   inkscape:connector-curvature="0"
   id="path124"
   d="m 43.669,5.54 0.489,0.35 -2.485,1.935 -0.71,-0.508 0.927,-3.058 0.479,0.343 -0.509,1.743 c -0.051,0.167 -0.141,0.44 -0.274,0.818 l 0.014,0.01 0.163,-0.137 c 0.2,-0.172 0.364,-0.307 0.491,-0.403 z" />
	</g><path
     style="fill:#1f2259"
     inkscape:connector-curvature="0"
     id="path128"
     d="m 60.792873,53.863371 0.781,-1.469 -1.477,0.703 z m -0.215,0.389 -0.873,-0.962 -0.543,0.259 -0.407,-0.447 2.845,-1.339 0.576,0.638 -1.486,2.831 -0.399,-0.438 z" /><g
     transform="translate(16.169873,44.582371)"
     id="g134">
		<path
   style="fill:#1f2259"
   inkscape:connector-curvature="0"
   id="path130"
   d="m 45.439,11.293 0.413,0.709 c 0.139,0.237 0.281,0.357 0.427,0.362 0.149,0.005 0.402,-0.107 0.767,-0.331 0.374,-0.231 0.596,-0.409 0.66,-0.535 0.067,-0.126 0.031,-0.304 -0.103,-0.535 l -0.434,-0.738 z m -0.697,-0.245 2.543,-1.57 0.752,1.285 c 0.213,0.367 0.286,0.669 0.217,0.908 -0.071,0.244 -0.3,0.488 -0.688,0.725 -0.636,0.395 -1.078,0.589 -1.33,0.583 -0.247,-0.007 -0.493,-0.216 -0.735,-0.63 z" />
		<path
   style="fill:#1f2259"
   inkscape:connector-curvature="0"
   id="path132"
   d="m 49.069,14.358 c -0.111,-0.373 -0.222,-0.576 -0.333,-0.609 -0.111,-0.033 -0.443,0.036 -0.994,0.208 -0.407,0.129 -0.642,0.242 -0.702,0.339 -0.061,0.104 -0.041,0.333 0.066,0.69 0.104,0.344 0.21,0.534 0.322,0.575 0.116,0.037 0.411,-0.017 0.884,-0.167 0.477,-0.15 0.746,-0.27 0.813,-0.362 0.068,-0.093 0.05,-0.317 -0.056,-0.674 m 0.474,-0.105 c 0.157,0.531 0.174,0.899 0.046,1.102 -0.124,0.209 -0.484,0.404 -1.08,0.594 -0.65,0.203 -1.082,0.255 -1.297,0.154 -0.214,-0.1 -0.408,-0.444 -0.584,-1.032 -0.157,-0.531 -0.177,-0.899 -0.056,-1.107 0.121,-0.208 0.466,-0.401 1.036,-0.579 0.674,-0.213 1.122,-0.269 1.342,-0.172 0.217,0.101 0.414,0.445 0.593,1.04" />
	</g></g>
</g>
</svg>