<!-- Generator: Adobe Illustrator 17.0.0, SVG Export Plug-In  -->
<svg version="1.1"
	 xmlns="http://www.w3.org/2000/svg" xmlns:xlink="http://www.w3.org/1999/xlink" xmlns:a="http://ns.adobe.com/AdobeSVGViewerExtensions/3.0/"
	 x="0px" y="0px" width="66.101px" height="55.106px" viewBox="0 0 66.101 55.106" enable-background="new 0 0 66.101 55.106"
	 xml:space="preserve">
<defs>
</defs>
<g>
	<g>
		<path fill="#1F2259" d="M4.73,50.156c0,0.532-0.213,0.973-0.638,1.313c-0.424,0.334-0.923,0.5-1.497,0.5
			c-0.16,0-0.288-0.006-0.385-0.018c-0.089-0.02-0.196-0.06-0.319-0.116c0.445,0,0.842-0.135,1.198-0.406
			c0.355-0.277,0.53-0.636,0.53-1.081c0-0.403-0.126-0.705-0.377-0.898c-0.25-0.2-0.582-0.298-0.994-0.298
			c-0.225,0-0.449,0.019-0.675,0.057v4.361c0,0.343,0.025,0.599,0.077,0.772c0.052,0.169,0.193,0.315,0.425,0.446l-1.921,0.027
			c0.18-0.078,0.297-0.214,0.348-0.416c0.058-0.197,0.088-0.436,0.088-0.715v-0.221v-3.646v-0.233c0-0.289-0.026-0.522-0.077-0.705
			c-0.052-0.186-0.169-0.316-0.349-0.394l2.345-0.03c0.656,0,1.19,0.151,1.603,0.454C4.523,49.207,4.73,49.624,4.73,50.156"/>
		<path fill="#1F2259" d="M9.547,54.817v-0.637c-0.2,0.263-0.472,0.463-0.812,0.6c-0.34,0.128-0.701,0.192-1.079,0.192
			c-0.35,0-0.674-0.057-0.977-0.165c-0.304-0.109-0.564-0.283-0.78-0.521c-0.22-0.237-0.354-0.494-0.405-0.771
			c-0.053-0.283-0.077-0.655-0.077-1.119v-2.587v-0.3c0-0.258-0.03-0.475-0.088-0.655c-0.052-0.181-0.164-0.303-0.339-0.366
			l1.836-0.03c-0.175,0.077-0.29,0.213-0.35,0.406c-0.052,0.192-0.077,0.424-0.077,0.695v0.25v2.587c0,0.63,0.129,1.104,0.388,1.418
			c0.263,0.309,0.646,0.463,1.148,0.463c0.283,0,0.547-0.055,0.792-0.162c0.251-0.116,0.439-0.266,0.568-0.445
			c0.129-0.18,0.202-0.324,0.222-0.434c0.019-0.111,0.03-0.281,0.03-0.513v-2.914v-0.3c0-0.258-0.03-0.475-0.085-0.655
			c-0.055-0.181-0.167-0.303-0.342-0.366l1.846-0.03l0.011,0.03c-0.183,0.063-0.301,0.196-0.359,0.396
			c-0.052,0.197-0.077,0.435-0.077,0.715v0.221v3.646v0.233c0,0.294,0.025,0.533,0.077,0.713c0.053,0.182,0.172,0.307,0.359,0.378
			L9.547,54.817z"/>
		<path fill="#1F2259" d="M15.763,54.817h-4.024c0.18-0.078,0.297-0.216,0.348-0.413c0.059-0.2,0.089-0.438,0.089-0.718v-0.221
			v-3.646v-0.243c0-0.295-0.028-0.533-0.079-0.713c-0.051-0.18-0.171-0.307-0.357-0.376l3.089-0.03h0.174
			c0.121,0,0.215-0.016,0.28-0.049l0.028,1.131c-0.149-0.154-0.318-0.258-0.511-0.309c-0.188-0.052-0.406-0.077-0.658-0.077
			c-0.224,0-0.408,0.005-0.549,0.019c-0.136,0.007-0.281,0.022-0.436,0.051v1.803h1.151h0.211c0.077-0.006,0.148-0.025,0.213-0.059
			l0.029,1.024c-0.085-0.123-0.197-0.196-0.338-0.222c-0.138-0.031-0.319-0.048-0.55-0.048h-0.717v2.287l1.228,0.114
			c0.031,0.007,0.066,0.01,0.106,0.01h0.116c0.602,0,1.129-0.193,1.571-0.579L15.763,54.817z"/>
		<path fill="#1F2259" d="M22.462,54.817h-0.888c-0.489,0-0.865-0.16-1.129-0.481l-1.179-1.459l-0.887-1.36
			c0.47-0.071,0.864-0.214,1.188-0.424c0.32-0.217,0.482-0.538,0.482-0.956c0-0.335-0.121-0.598-0.367-0.79
			c-0.238-0.193-0.53-0.291-0.878-0.291c-0.123,0-0.245,0.013-0.367,0.03c-0.122,0.019-0.219,0.034-0.289,0.047v4.333v0.242
			c0,0.296,0.025,0.532,0.077,0.714c0.051,0.18,0.171,0.302,0.357,0.368l-1.844,0.027c0.174-0.069,0.285-0.202,0.337-0.396
			c0.059-0.194,0.089-0.421,0.089-0.684v-0.272v-3.646v-0.311c0-0.258-0.029-0.475-0.089-0.655
			c-0.052-0.181-0.163-0.303-0.337-0.366l2.297-0.03c0.632,0,1.119,0.146,1.468,0.437c0.354,0.288,0.53,0.665,0.53,1.129
			c0,0.409-0.152,0.773-0.453,1.088c-0.298,0.312-0.658,0.514-1.082,0.61l1.389,1.745c0.2,0.244,0.439,0.486,0.716,0.724
			C21.88,54.422,22.166,54.629,22.462,54.817"/>
		<path fill="#1F2259" d="M25.967,49.539c-0.072-0.149-0.185-0.25-0.338-0.299c-0.148-0.059-0.32-0.087-0.521-0.087h-0.869v4.41
			c0,0.342,0.026,0.599,0.078,0.772c0.053,0.166,0.193,0.317,0.424,0.454l-1.911,0.029c0.174-0.08,0.287-0.216,0.337-0.407
			c0.06-0.192,0.089-0.424,0.089-0.696v-0.25v-4.312h-0.851c-0.224,0-0.435,0.031-0.637,0.095c-0.198,0.06-0.369,0.154-0.51,0.291
			l0.307-1.146c0.138,0.043,0.268,0.064,0.396,0.064h3.841c0.105,0,0.188-0.003,0.253-0.009c0.063-0.013,0.13-0.032,0.192-0.056
			L25.967,49.539z"/>
		<path fill="#1F2259" d="M32.231,51.769c0-0.753-0.221-1.404-0.665-1.949c-0.438-0.554-1.027-0.831-1.766-0.831
			c-0.74,0-1.337,0.242-1.785,0.725c-0.445,0.475-0.667,1.083-0.667,1.824c0,0.712,0.233,1.35,0.696,1.91
			c0.462,0.553,1.054,0.829,1.775,0.829c0.727,0,1.309-0.233,1.746-0.705C32.01,53.103,32.231,52.501,32.231,51.769 M33.33,51.574
			c0,0.972-0.347,1.784-1.041,2.434c-0.694,0.644-1.534,0.965-2.52,0.965c-0.984,0-1.817-0.313-2.498-0.938
			c-0.684-0.629-1.024-1.434-1.024-2.411c0-0.928,0.347-1.712,1.043-2.357c0.702-0.648,1.561-0.973,2.577-0.973
			c0.995,0,1.823,0.322,2.481,0.965C33.004,49.901,33.33,50.673,33.33,51.574"/>
		<path fill="#1F2259" d="M42.255,48.457l-1.899,4.94L39.7,55.106c-0.406-0.263-0.672-0.455-0.801-0.578
			c-0.122-0.129-0.249-0.365-0.376-0.705l-1.458-3.955c-0.096-0.252-0.191-0.504-0.28-0.756c-0.122-0.269-0.278-0.479-0.472-0.625
			l1.409-0.03l-0.012,0.117c0,0.096,0.017,0.198,0.051,0.307c0.037,0.105,0.106,0.301,0.211,0.589l1.533,4.209l1.314-3.465
			c0.109-0.291,0.188-0.521,0.24-0.695c0.058-0.18,0.087-0.347,0.087-0.501c0-0.271-0.112-0.447-0.338-0.53L42.255,48.457z"/>
		<path fill="#1F2259" d="M46.554,51.721l-0.946-2.443l-0.955,2.443H46.554z M47.23,54.817c0.232-0.115,0.346-0.238,0.346-0.366
			c0-0.077-0.026-0.185-0.085-0.329c-0.058-0.14-0.101-0.251-0.125-0.327l-0.531-1.362H44.4l-0.501,1.362
			c-0.051,0.136-0.091,0.248-0.117,0.337c-0.023,0.085-0.036,0.169-0.036,0.252c0,0.09,0.023,0.168,0.075,0.241
			c0.06,0.063,0.148,0.119,0.271,0.165l-1.776,0.027c0.245-0.137,0.423-0.302,0.532-0.493c0.107-0.192,0.243-0.493,0.405-0.907
			l1.612-4.032c0.043-0.121,0.079-0.227,0.104-0.309c0.032-0.09,0.049-0.169,0.049-0.232c0-0.092-0.022-0.164-0.068-0.223
			c-0.036-0.057-0.114-0.103-0.23-0.134l1.525-0.03l2.006,4.94c0.168,0.413,0.305,0.719,0.416,0.917
			c0.114,0.193,0.297,0.351,0.541,0.476L47.23,54.817z"/>
		<path fill="#1F2259" d="M55.328,54.817h-0.889c-0.49,0-0.864-0.16-1.129-0.481l-1.177-1.459l-0.887-1.36
			c0.469-0.071,0.863-0.214,1.186-0.424c0.321-0.217,0.483-0.538,0.483-0.956c0-0.335-0.124-0.598-0.368-0.79
			c-0.238-0.193-0.531-0.291-0.879-0.291c-0.121,0-0.244,0.013-0.366,0.03c-0.122,0.019-0.218,0.034-0.288,0.047v4.333v0.242
			c0,0.296,0.024,0.532,0.076,0.714c0.051,0.18,0.172,0.302,0.357,0.368l-1.843,0.027c0.173-0.069,0.287-0.202,0.337-0.396
			c0.061-0.194,0.087-0.421,0.087-0.684v-0.272v-3.646v-0.311c0-0.258-0.026-0.475-0.087-0.655c-0.05-0.181-0.164-0.303-0.337-0.366
			l2.298-0.03c0.63,0,1.119,0.146,1.466,0.437c0.354,0.288,0.532,0.665,0.532,1.129c0,0.409-0.153,0.773-0.455,1.088
			c-0.296,0.312-0.655,0.514-1.08,0.61l1.39,1.745c0.198,0.244,0.438,0.486,0.714,0.724C54.745,54.422,55.031,54.629,55.328,54.817"
			/>
		<path fill="#1F2259" d="M58.735,51.721l-0.944-2.443l-0.956,2.443H58.735z M59.41,54.817c0.233-0.115,0.349-0.238,0.349-0.366
			c0-0.077-0.029-0.185-0.085-0.329c-0.059-0.14-0.101-0.251-0.128-0.327l-0.529-1.362h-2.433l-0.502,1.362
			c-0.052,0.136-0.09,0.248-0.116,0.337c-0.026,0.085-0.038,0.169-0.038,0.252c0,0.09,0.026,0.168,0.077,0.241
			c0.059,0.063,0.146,0.119,0.271,0.165L54.5,54.817c0.244-0.137,0.421-0.302,0.53-0.493c0.109-0.192,0.243-0.493,0.406-0.907
			l1.61-4.032c0.045-0.121,0.081-0.227,0.106-0.309c0.031-0.09,0.047-0.169,0.047-0.232c0-0.092-0.021-0.164-0.066-0.223
			c-0.038-0.057-0.117-0.103-0.23-0.134l1.524-0.03l2.006,4.94c0.169,0.413,0.308,0.719,0.416,0.917
			c0.115,0.193,0.295,0.351,0.54,0.476L59.41,54.817z"/>
		<path fill="#1F2259" d="M66.101,52.975c0,0.532-0.248,1-0.743,1.399c-0.488,0.397-1.103,0.599-1.843,0.599
			c-0.31,0-0.605-0.022-0.888-0.068c-0.284-0.045-0.564-0.119-0.84-0.224l-0.279-1.205c0.288,0.25,0.617,0.448,0.982,0.59
			c0.368,0.141,0.744,0.211,1.13,0.211c0.327,0,0.642-0.085,0.936-0.261c0.297-0.18,0.445-0.429,0.445-0.742
			c0-0.404-0.277-0.749-0.831-1.032c-0.553-0.282-1.093-0.557-1.621-0.819c-0.578-0.383-0.869-0.859-0.869-1.44
			c0-0.565,0.236-0.987,0.705-1.263c0.477-0.277,1.049-0.416,1.718-0.416c0.509,0,0.988,0.069,1.437,0.215v1.089
			c-0.18-0.181-0.409-0.325-0.694-0.435c-0.276-0.116-0.551-0.176-0.819-0.176c-0.335,0-0.627,0.073-0.878,0.214
			c-0.245,0.137-0.368,0.358-0.368,0.666c0,0.362,0.273,0.687,0.82,0.976c0.553,0.282,1.099,0.557,1.631,0.819
			C65.81,52.038,66.101,52.471,66.101,52.975"/>
		<path fill="#1F2259" d="M8.325,44.987c-0.773,0.144-1.355,0.242-1.751,0.294c-0.393,0.062-0.839,0.09-1.338,0.09
			c-1.621,0-2.899-0.399-3.834-1.209C0.468,43.357,0,42.298,0,40.985c0-1.383,0.489-2.478,1.468-3.281
			c0.976-0.817,2.26-1.224,3.847-1.224c0.668,0,1.347,0.074,2.032,0.219v1.48c-0.256-0.266-0.598-0.459-1.029-0.58
			c-0.418-0.129-0.857-0.192-1.312-0.192c-1.022,0-1.867,0.308-2.536,0.927c-0.669,0.618-1.002,1.439-1.002,2.469
			c0,1.04,0.355,1.904,1.067,2.603c0.714,0.692,1.583,1.041,2.611,1.041c0.635,0,1.235-0.083,1.803-0.246V42.35
			c0-0.396-0.035-0.71-0.103-0.938c-0.069-0.242-0.232-0.412-0.489-0.518l1.969-0.036c-0.024,0.069-0.042,0.162-0.05,0.282
			c-0.01,0.111-0.014,0.214-0.014,0.309v2.958v0.272C8.262,44.787,8.283,44.892,8.325,44.987"/>
		<path fill="#1F2259" d="M16.913,45.167h-1.185c-0.653,0-1.152-0.214-1.506-0.644l-1.569-1.942l-1.183-1.815
			c0.625-0.096,1.151-0.281,1.582-0.566c0.428-0.291,0.643-0.717,0.643-1.273c0-0.447-0.163-0.8-0.488-1.056
			c-0.317-0.259-0.709-0.386-1.172-0.386c-0.163,0-0.325,0.012-0.488,0.04c-0.163,0.024-0.292,0.045-0.387,0.062v5.778v0.32
			c0,0.396,0.035,0.713,0.103,0.952c0.069,0.242,0.228,0.404,0.477,0.491l-2.458,0.038c0.233-0.095,0.383-0.271,0.45-0.529
			c0.078-0.257,0.117-0.56,0.117-0.912v-0.36V38.5v-0.412c0-0.342-0.039-0.635-0.117-0.874c-0.067-0.24-0.217-0.402-0.45-0.488
			l3.066-0.039c0.838,0,1.49,0.192,1.953,0.581c0.472,0.386,0.707,0.887,0.707,1.504c0,0.549-0.199,1.034-0.602,1.453
			c-0.396,0.412-0.876,0.684-1.442,0.812l1.853,2.328c0.267,0.326,0.584,0.647,0.951,0.966
			C16.136,44.638,16.519,44.918,16.913,45.167"/>
		<path fill="#1F2259" d="M21.741,41.037l-1.26-3.258l-1.275,3.258H21.741z M22.642,45.167c0.31-0.154,0.464-0.316,0.464-0.488
			c0-0.104-0.038-0.25-0.116-0.438c-0.076-0.188-0.132-0.335-0.168-0.439l-0.706-1.812h-3.243l-0.669,1.812
			c-0.067,0.181-0.12,0.333-0.154,0.453c-0.034,0.113-0.052,0.222-0.052,0.333c0,0.12,0.034,0.228,0.102,0.323
			c0.078,0.085,0.199,0.157,0.361,0.219l-2.368,0.038c0.327-0.18,0.562-0.398,0.707-0.657c0.146-0.256,0.327-0.659,0.542-1.21
			l2.149-5.379c0.06-0.161,0.106-0.299,0.14-0.411c0.044-0.121,0.066-0.224,0.066-0.309c0-0.121-0.03-0.217-0.09-0.297
			c-0.054-0.077-0.154-0.136-0.309-0.179l2.034-0.039l2.676,6.589c0.223,0.55,0.407,0.955,0.554,1.223
			c0.154,0.258,0.395,0.467,0.72,0.631L22.642,45.167z"/>
		<path fill="#1F2259" d="M33.933,38.346v6.59v0.644c-0.43-0.146-0.768-0.323-1.018-0.529c-0.248-0.206-0.535-0.517-0.862-0.938
			L27.625,38.5v4.993c0,0.453,0.035,0.798,0.104,1.03c0.069,0.222,0.257,0.423,0.566,0.604l-2.277,0.04
			c0.309-0.198,0.497-0.411,0.565-0.644c0.077-0.241,0.118-0.585,0.118-1.03v-5.147c0-0.463-0.036-0.803-0.105-1.016
			c-0.067-0.224-0.256-0.423-0.565-0.605l1.879-0.038c0.034,0.121,0.099,0.231,0.193,0.335l0.181,0.257l4.722,5.958v-4.891
			c0-0.453-0.036-0.793-0.103-1.016c-0.069-0.231-0.258-0.434-0.566-0.605l2.266-0.038c-0.301,0.19-0.489,0.404-0.567,0.644
			C33.966,37.569,33.933,37.91,33.933,38.346"/>
		<path fill="#1F2259" d="M41.064,45.167h-5.367c0.242-0.105,0.396-0.287,0.465-0.553c0.077-0.267,0.115-0.584,0.115-0.952v-0.297
			V38.5v-0.32c0-0.395-0.034-0.711-0.102-0.953c-0.069-0.241-0.229-0.407-0.478-0.501l4.119-0.039h0.231
			c0.162,0,0.286-0.021,0.374-0.064l0.038,1.504c-0.196-0.205-0.426-0.341-0.684-0.41c-0.247-0.069-0.539-0.104-0.875-0.104
			c-0.299,0-0.543,0.011-0.731,0.027c-0.182,0.008-0.374,0.03-0.579,0.064v2.407h1.531h0.283c0.101-0.008,0.196-0.035,0.282-0.077
			l0.038,1.365c-0.111-0.165-0.262-0.262-0.449-0.298c-0.181-0.044-0.427-0.062-0.732-0.062h-0.953v3.048l1.633,0.155
			c0.045,0.009,0.09,0.014,0.141,0.014h0.154c0.81,0,1.507-0.257,2.099-0.773L41.064,45.167z"/>
		<path fill="#1F2259" d="M50.281,45.167h-1.184c-0.653,0-1.153-0.214-1.504-0.644l-1.572-1.942l-1.183-1.815
			c0.626-0.096,1.152-0.281,1.582-0.566c0.429-0.291,0.644-0.717,0.644-1.273c0-0.447-0.162-0.8-0.489-1.056
			c-0.317-0.259-0.708-0.386-1.171-0.386c-0.163,0-0.325,0.012-0.489,0.04c-0.163,0.024-0.292,0.045-0.386,0.062v5.778v0.32
			c0,0.396,0.035,0.713,0.102,0.952c0.068,0.242,0.228,0.404,0.477,0.491l-2.458,0.038c0.233-0.095,0.381-0.271,0.45-0.529
			c0.077-0.257,0.118-0.56,0.118-0.912v-0.36V38.5v-0.412c0-0.342-0.041-0.635-0.118-0.874c-0.069-0.24-0.217-0.402-0.45-0.488
			l3.063-0.039c0.84,0,1.491,0.192,1.956,0.581c0.473,0.386,0.707,0.887,0.707,1.504c0,0.549-0.202,1.034-0.604,1.453
			c-0.395,0.412-0.875,0.684-1.442,0.812l1.854,2.328c0.266,0.326,0.582,0.647,0.952,0.966
			C49.504,44.638,49.888,44.918,50.281,45.167"/>
		<path fill="#1F2259" d="M57.672,41.1c0-1.001-0.297-1.869-0.888-2.6c-0.584-0.736-1.369-1.106-2.355-1.106
			c-0.985,0-1.78,0.322-2.382,0.967c-0.591,0.633-0.887,1.445-0.887,2.431c0,0.953,0.309,1.802,0.926,2.548
			c0.617,0.738,1.408,1.107,2.368,1.107c0.969,0,1.746-0.312,2.33-0.938C57.375,42.88,57.672,42.078,57.672,41.1 M59.138,40.843
			c0,1.297-0.463,2.376-1.389,3.242c-0.927,0.86-2.045,1.288-3.358,1.288c-1.312,0-2.423-0.416-3.333-1.25
			c-0.91-0.841-1.365-1.912-1.365-3.215c0-1.236,0.464-2.283,1.393-3.141c0.934-0.867,2.078-1.299,3.435-1.299
			c1.327,0,2.432,0.428,3.307,1.287C58.702,38.61,59.138,39.644,59.138,40.843"/>
		<path fill="#1F2259" d="M65.987,42.707c0,0.715-0.33,1.335-0.988,1.868c-0.652,0.532-1.474,0.796-2.458,0.796
			c-0.413,0-0.809-0.029-1.186-0.09c-0.376-0.06-0.75-0.155-1.119-0.294l-0.371-1.61c0.386,0.335,0.822,0.598,1.31,0.785
			c0.489,0.189,0.991,0.284,1.505,0.284c0.438,0,0.854-0.115,1.25-0.349c0.393-0.239,0.592-0.568,0.592-0.99
			c0-0.54-0.369-1-1.108-1.378c-0.735-0.376-1.457-0.74-2.162-1.093c-0.77-0.505-1.155-1.145-1.155-1.916
			c0-0.757,0.312-1.317,0.938-1.688c0.636-0.368,1.397-0.553,2.291-0.553c0.678,0,1.316,0.093,1.916,0.283v1.453
			c-0.239-0.239-0.548-0.432-0.926-0.579c-0.369-0.153-0.733-0.23-1.095-0.23c-0.446,0-0.836,0.095-1.171,0.283
			c-0.325,0.18-0.488,0.475-0.488,0.889c0,0.479,0.365,0.913,1.095,1.299c0.737,0.378,1.462,0.741,2.174,1.093
			C65.601,41.46,65.987,42.04,65.987,42.707"/>
		<path fill="#FFFFFF" d="M33.403,0.71c10.314,0,18.882,8.598,18.882,18.906c0,3.822-1.306,6.797-5.553,6.797
			c-4.465,0-8.858-1.022-13.329-1.022c-4.486,0-8.893,1.022-13.373,1.022c-4.264,0-5.53-2.98-5.53-6.797
			C14.5,9.262,23.046,0.71,33.403,0.71"/>
		<path fill="#1F2259" d="M48.909,21.858c-0.305,0.234-7.764,1.682-9.396,2.356c-0.505-0.461-0.774-0.823-1.532-0.823
			c-2.029,0-4.223,0.777-6.4,0.777c-5.094,0-9.482-2.754-14.551-2.754c-2.041,0-3.881,0.305-5.842,0.821
			c1.923-0.877,3.877-1.802,5.685-2.888c0.143-0.086,0.399-0.052,0.557-0.066l0.354-0.044l0.187-0.016l0.11-0.021l0.074-0.017
			l0.074-0.017l-0.074,0.076l-0.126,0.111l-0.118,0.096l-0.222,0.169l-0.422,0.312c-0.186,0.106-0.571,0.345-0.571,0.571
			c0,0.056-0.017,0.087,0.046,0.087c0.169,0,0.517-0.221,0.644-0.332l0.332-0.289l0.178-0.156l0.118-0.109l0.059-0.046l0.113-0.064
			l-0.075,0.087l-0.068,0.08l-0.088,0.113l-0.153,0.23l-0.225,0.37c-0.087,0.108-0.369,0.499-0.369,0.605
			c0,0.159,0.164,0.179,0.289,0.179c0.817,0,0.937-0.537,1.399-0.933c0.316-0.273,1.667,0.064,1.667-0.646
			c0-0.271,0.422-0.295,0.732-0.398c0.602,0.506,1.788,2.354,2.399,2.354c0.33,0,0.045-0.277,0.045-0.459l-0.045-0.185v-0.067
			l0.245,0.333c0.383,0.448,0.778,0.942,1.354,1.133c0.075,0.025,0.15,0,0.222,0h0.179c0.044-0.26-0.182-0.472-0.326-0.688
			l-0.082-0.141l-0.015-0.06c0.642,0,1.666,0.866,2,0.866l0.155-0.179l-0.089-0.044l-0.268-0.198l-1-0.802l-0.089-0.378
			c0.485-0.044,0.717,0.778,1.201,0.778l0.089-0.111c0-0.095-0.164-0.097-0.229-0.162c-0.208-0.208-0.342-0.422-0.521-0.646
			l-0.139-0.259l-0.053-0.134c0.403-0.043,0.631,0.622,1.051,0.622l0.021-0.108c0.072-0.095,0.126-0.136,0.246-0.136
			c0.521,0,2.235,1.479,2.711,1.823c0.146,0,0.243-0.111,0.332-0.157l0.09-0.044c0-0.131-0.205-0.159-0.297-0.254
			c-0.327-0.324-0.553-0.946-1.015-0.946l0.135,0.022l0.244,0.021c0.271,0,0.511-0.029,0.769,0.067
			c0.723,0.272,1.298,0.856,1.984,1.2c-0.023-0.052,0.111-0.143,0.111-0.2l-0.267-0.268c-1.144-1.247-2.113-1.726-3.132-3.086
			c0.673,0.592,4.334,3.199,5.088,3.199c0.04,0,0.087-0.019,0.087-0.067c0-0.255-1.399-0.905-1.399-1.289
			c0-0.077,0.087-0.089,0.156-0.089c0.284,0,1.089,0.622,1.378,0.622l0.377-0.067l0.111-0.023c0-0.203-0.483-0.131-0.511-0.33
			c1.031-0.283,1.963-0.652,2.953-1.046c-0.417,0.418-0.713,0.617-1.19,0.977c-0.093,0.069-0.43,0.198-0.43,0.312
			c0,0.143,0.647,0,0.688,0l-0.089,0.043l-0.2,0.09c-0.143,0.071-0.578,0.229-0.578,0.378c0,0.052,0.122,0.09,0.157,0.09
			c0.303,0,2.132-0.899,2.132-1.09c-0.383,0-0.629,0.266-0.999,0.266H36.98c0-0.125,0.235-0.091,0.343-0.155
			c0.306-0.186,0.862-0.488,1.17-0.488l0.108,0.023l0.092-0.023c0,0.41-0.957,1.065-0.957,1.532c0,0.08,0.046,0.111,0.111,0.111
			c0.425,0,1.291-1.335,1.422-1.621c0.072,0.072,0.165,0.083,0.25,0.126l0.06,0.028c0.046,0.384-0.199,0.808-0.199,1.201l0.045,0.09
			c0.252,0,0.205-0.646,0.489-0.646c0.064,0,0.131-0.069,0.11,0.067l-0.022,0.064v0.578c0,0.129,0.078,0.422,0.245,0.422
			c0.278,0,0.109-1.289,0.109-1.509c0-0.158,0.023-0.135,0.135-0.135c0.245,0,0.379,1.333,0.665,1.333l0.046-0.176
			c0.048-0.205,0.11-0.406,0.11-0.578c0-0.082-0.05-0.157,0.045-0.157c0.129,0,0.312-0.384,0.312-0.488
			c0-0.313-0.513-0.28-0.513-0.4c0-0.23,0.392-0.312,0.623-0.312c0.335,0,0.867,1,0.867,1.29c0,0.114,0.317,0.51,0.467,0.51
			c0.054,0,0.065-0.168,0.065-0.199l0.022-0.688c0,0-0.457-0.552-0.466-0.646c0.562,0.357,1.149,0.67,1.762,0.933l0.415,0.178
			l0.156,0.044l-0.023-0.176L44.6,20.599l-0.245-0.183l-0.087-0.068C45.554,20.303,47.634,21.409,48.909,21.858"/>
		<path fill="#45A34E" d="M35.559,26.056c3.31-1.752,7.008-2.618,10.752-2.618c4.694,0,9.52,1.387,13.13,4.472
			c0.372,0.319,1.445,1.443,1.445,1.971l-0.023,0.687c-0.304,0.812-1.732,1.067-2.467,1.067c-4.755,0-9.356-1.911-14.239-1.911
			c-6.59,0-11.308,3.53-17.284,3.53c-1.021,0-8.064-0.719-8.064-2.263c0-0.97,2.859-0.867,3.777-0.867h0.376
			c-1.925-0.446-3.764-0.557-5.73-0.557c-3.958,0-8.429,2.401-10.397,2.401c-0.206,0-0.551-0.214-0.645-0.399l-0.045-0.424
			c0-1.839,4.849-4.966,7-5.311c-2.207,0.266-4.533,0.513-6.755,0.513c-0.714,0-1.133-0.239-1.133-0.956
			c0-3.503,12.362-4.286,15.483-4.286c1.619,0,4.787,2.141,6.51,2.732c2.168,0.742,4.788,0.91,7.065,0.91
			c1.023,0,2.166-0.129,3.089-0.6C36.746,24.76,36.077,25.306,35.559,26.056"/>
		<path fill="#07743B" d="M8.323,22.304c-0.193,0.312-0.245,0.64-0.245,0.998c0,0.479,0.735,0.8,1.134,0.8
			c0.944,0,4.926-1.775,8.064-1.775c6.427,0,11.564,3.146,18.683,2.999c-5.143,3.017-7.392,2.776-12.995,2.776
			c-0.691,0-1.067,0.618-1.067,1.243c0,0.054,0.172,1.311,0.423,0.778c0.94,0.191,1.906,0.268,2.866,0.268
			c8.168,0,11.41-5.511,21.77-5.511c3.306,0,8.888,2.222,9.907,2.222c0.446,0,0.934-0.854,0.934-1.244
			c0-0.316-0.128-0.589-0.312-0.843c-3.286-1.426-6.951-2.357-10.551-2.357c-2.532,0-4.955,0.362-7.376,1.111
			c-0.335-0.474-0.853-0.711-1.422-0.711c-1.655,0-3.384,0.511-5.109,0.511c-5.49,0-10.027-3.179-15.438-3.179
			C14.428,20.391,11.191,20.938,8.323,22.304"/>
		<path fill="#1C994F" d="M52.554,22.48l-0.689-0.776h-0.311c0.075-0.833,0.111-1.653,0.111-2.489
			c0-9.98-8.459-18.061-18.306-18.061c-10.063,0-19.053,8.761-18.261,19.04l-0.223,0.378l-0.912-0.023
			c-0.056-0.146-0.043-0.622-0.043-0.8C13.921,8.967,22.487,0,33.381,0C44.746,0,51.98,8.741,52.799,19.46
			C52.872,20.457,52.61,21.492,52.554,22.48"/>
		<path fill="#FDB515" d="M20.186,17.395c1.101-0.751,2.957-2.42,4.198-2.42c1.13,0,8.164,4.827,9.798,5.775
			c1.021-0.396,5.345-2.401,6.352-2.401c2.703,0,3.459,1.469,5.866,2.442c0.211-0.681,0.41-1.427,0.355-2.154
			c-0.543-7.339-5.562-13.308-13.307-13.308c-6.142,0-13.285,5.47-13.285,12.021L20.186,17.395z"/>
		<path fill="#1F2259" d="M26.721,26.614c0.301,0.077,0.729,0.164,0.955,0.4v0.154c-0.663,0.74-7.204,0.732-8.177,0.732
			c-0.754,0-7.374,0.113-7.374-1.331c0-0.14,0.571-0.346,0.667-0.378c2.12-0.707,4.407-0.532,6.597-0.532
			c0.911,0,2.263-0.559,3.467-0.559c3.578,0,7.026,0.404,10.552,0.913v0.113c0,0.124-1.362,0.332-1.549,0.351
			C30.184,26.682,28.404,26.672,26.721,26.614"/>
		<path fill="#FFFFFF" d="M20.054,23.204c-0.325-0.08-0.787-0.466-1.066-0.466c-0.022,0-0.021,0.066-0.046,0.066l-0.333,0.044
			c-0.029,0.047-0.134,0.062-0.176,0.135c-0.148,0.239-0.206,0.462-0.401,0.687c-0.036,0.046-0.062,0.1-0.11,0.135
			c-0.453,0.322-0.53,0.188-0.934,0.289c-0.113,0.028-0.36,0.249-0.443,0.333c-0.559,0.559-0.8,1.204-0.8,1.999v0.09
			c0,0.036-0.045,0.064,0,0.064c0.201-0.359,0.345-0.7,0.644-0.997l-0.111,0.177v0.043c-0.018,0.042-0.11,1.079-0.11,1.245
			c0,0.113-0.015,0.09,0.088,0.09h0.067c-0.032-0.066-0.045-0.385-0.045-0.468c0-0.214,0.036-0.411,0.066-0.622
			c0.034-0.033,0.147-0.116,0.155-0.132V25.87c0.03-0.021,0.067-0.103,0.09-0.133l-0.044,0.043c0,0.049,0.044,0.088,0.044,0.136
			c0.087,0.145,0.669,1.132,0.733,1.176c-0.035,0.036,0.1,0.023,0.112,0.023h0.087c-0.156-0.139-0.758-1.036-0.799-1.222
			c0.195-0.296,0.412-0.6,0.532-0.934c0.673-0.121,1.073-1.584,1.355-1.666l0.022-0.046c0.31-0.088,0.266-0.199,0.713-0.199
			c0.261,0,0.514,0.044,0.776,0.044c-0.036,0-0.013,0.034-0.023,0.045l-0.022,0.043l-0.021,0.044V23.204z"/>
	</g>
	<polygon fill="#B9532E" points="44.935,21.816 47.153,24.634 54.151,24.323 51.798,21.681 	"/>
	<polygon fill="none" stroke="#010101" stroke-width="0.532" stroke-miterlimit="10" points="44.935,21.816 47.153,24.634 
		54.151,24.323 51.798,21.681 	"/>
	<g>
		<path fill="#FFFFFF" d="M55.243,29.123l-0.025-1.71l-6.753,0.534l-1.2-1.534l6.887-0.354v-1.735l-7.019,0.335l-2.266-2.91
			l-2.267,2.819l0.022,4.267c1.786,0.27,4.112,0.889,5.889,0.889C50.677,29.723,53.07,29.316,55.243,29.123"/>
		<path fill="none" stroke="#010101" stroke-width="0.485" stroke-miterlimit="10" d="M55.243,29.123l-0.025-1.71l-6.753,0.534
			l-1.2-1.534l6.887-0.354v-1.735l-7.019,0.335l-2.266-2.91l-2.267,2.819l0.022,4.267c1.786,0.27,4.112,0.889,5.889,0.889
			C50.677,29.723,53.07,29.316,55.243,29.123z"/>
	</g>
	<rect x="44.646" y="23.48" fill="#010101" width="0.267" height="0.868"/>
	<rect x="45.554" y="25.056" fill="#010101" width="0.468" height="0.981"/>
	<rect x="43.423" y="24.991" fill="#010101" width="0.444" height="0.956"/>
	<rect x="43.423" y="26.724" fill="#010101" width="0.444" height="0.98"/>
	<rect x="45.467" y="26.813" fill="#010101" width="0.467" height="0.956"/>
	<polygon fill="#010101" points="52.954,24.834 52.954,25.546 53.286,25.524 53.286,24.834 	"/>
	<polygon fill="#010101" points="50.688,24.924 50.688,25.634 51.022,25.613 51.022,24.901 	"/>
	<polygon fill="#010101" points="48.154,25.037 48.154,25.747 48.486,25.724 48.486,25.037 	"/>
	<polygon fill="#010101" points="49.709,28.258 49.709,28.969 50.043,28.945 50.043,28.234 	"/>
	<polygon fill="#010101" points="51.864,28.079 51.864,28.769 52.196,28.745 52.196,28.056 	"/>
	<polygon fill="#010101" points="54.04,27.923 54.04,28.612 54.375,28.591 54.375,27.899 	"/>
	
		<line fill="none" stroke="#010101" stroke-width="0.485" stroke-miterlimit="10" x1="47.133" y1="24.658" x2="47.153" y2="26.478"/>
	
		<line fill="none" stroke="#010101" stroke-width="0.485" stroke-miterlimit="10" x1="48.621" y1="28.102" x2="48.509" y2="29.701"/>
	<polygon fill="#B9532E" points="47.243,26.369 54.151,26.037 55.243,27.413 48.575,28.033 	"/>
	<polygon fill="none" stroke="#010101" stroke-width="0.532" stroke-miterlimit="10" points="47.243,26.369 54.151,26.037 
		55.243,27.413 48.575,28.033 	"/>
	<g>
		<path fill="#1F2259" d="M18.262,14.825l0.198-0.627c0.079-0.25,0.101-0.416,0.068-0.501c-0.035-0.088-0.156-0.167-0.364-0.234
			c-0.238-0.078-0.396-0.102-0.472-0.064c-0.074,0.038-0.149,0.174-0.225,0.407l-0.214,0.684L18.262,14.825z M19.452,15.829
			l-2.823-0.939l0.368-1.169l0.048-0.145c0.122-0.393,0.271-0.638,0.448-0.727c0.177-0.094,0.457-0.077,0.836,0.052
			c0.378,0.124,0.608,0.275,0.691,0.445c0.083,0.173,0.061,0.458-0.064,0.854l-0.037,0.129l-0.206,0.648l0.912,0.302L19.452,15.829z
			"/>
	</g>
	<path fill="#1F2259" d="M20.466,11.02l-1.589-0.365l1.066,1.261L20.466,11.02z M20.89,11.123l-0.658,1.129l0.393,0.465
		l-0.308,0.524l-2.034-2.439l0.436-0.746l3.059,0.689l-0.302,0.517L20.89,11.123z"/>
	<g>
		<path fill="#1F2259" d="M21.358,8.919l0.553-0.605c0.131-0.147,0.194-0.266,0.186-0.361c-0.009-0.094-0.086-0.217-0.24-0.359
			c-0.154-0.15-0.271-0.226-0.354-0.227c-0.083-0.002-0.186,0.064-0.312,0.204l-0.578,0.637L21.358,8.919z M22.055,10.377
			l-2.172-2.08l0.997-1.099c0.249-0.273,0.467-0.417,0.652-0.433c0.186-0.017,0.401,0.093,0.642,0.324
			c0.219,0.209,0.347,0.381,0.381,0.509c0.033,0.129-0.008,0.289-0.122,0.477l0.015,0.015c0.238-0.232,0.492-0.223,0.757,0.034
			l0.479,0.457L23.3,9.003l-0.396-0.378C22.68,8.41,22.464,8.417,22.26,8.644l-0.554,0.609l0.733,0.7L22.055,10.377z"/>
		<path fill="#1F2259" d="M24.472,6.622l-0.004-0.424l0.74-0.011C25.156,6.092,25.12,6.026,25.1,5.995l-0.173-0.252l-0.21-0.309
			c-0.158-0.233-0.297-0.355-0.415-0.368c-0.117-0.013-0.308,0.075-0.567,0.262c-0.311,0.224-0.463,0.396-0.458,0.515
			c0.003,0.118,0.17,0.422,0.5,0.905c0.248,0.365,0.428,0.562,0.536,0.586c0.113,0.023,0.336-0.086,0.669-0.325
			c0.172-0.121,0.278-0.258,0.324-0.398L24.472,6.622z M26.233,6.183l0.003,0.422l-0.343,0.002
			c-0.045,0.266-0.278,0.553-0.701,0.856c-0.466,0.334-0.812,0.478-1.039,0.431c-0.23-0.05-0.52-0.327-0.864-0.834
			c-0.401-0.589-0.592-1.008-0.573-1.253c0.019-0.247,0.263-0.54,0.735-0.879c0.467-0.337,0.812-0.478,1.043-0.422
			c0.229,0.054,0.524,0.345,0.884,0.877c0.257,0.376,0.418,0.646,0.479,0.805L26.233,6.183z"/>
		<path fill="#1F2259" d="M27.613,2.783l0.525-0.208l0.707,1.893c0.147,0.396,0.172,0.689,0.07,0.878
			c-0.1,0.184-0.378,0.368-0.835,0.551c-0.482,0.189-0.822,0.253-1.017,0.191c-0.196-0.062-0.365-0.286-0.511-0.677l-0.72-1.927
			l0.526-0.208l0.718,1.929c0.078,0.209,0.167,0.327,0.26,0.355c0.093,0.026,0.276-0.013,0.546-0.12
			c0.277-0.108,0.441-0.206,0.491-0.291c0.05-0.085,0.033-0.239-0.05-0.461L27.613,2.783z"/>
	</g>
	<polygon fill="#1F2259" points="29.995,2.651 30.114,3.429 31.489,3.205 31.553,3.627 30.181,3.851 30.312,4.702 31.773,4.465 
		31.847,4.945 29.829,5.274 29.363,2.263 31.37,1.935 31.445,2.415 	"/>
	<g>
		<path fill="#1F2259" d="M34.371,3.467l0.637,0.08c0.255,0.033,0.417,0.023,0.493-0.026c0.076-0.054,0.127-0.19,0.155-0.414
			c0.029-0.256,0.018-0.418-0.031-0.485c-0.048-0.069-0.193-0.118-0.432-0.148l-0.692-0.089L34.371,3.467z M33.64,4.857l0.359-3.025
			l1.189,0.149l0.146,0.017c0.397,0.051,0.658,0.156,0.777,0.317c0.124,0.16,0.161,0.445,0.113,0.853
			c-0.05,0.404-0.147,0.665-0.296,0.78c-0.147,0.116-0.425,0.149-0.826,0.098l-0.13-0.013l-0.66-0.083l-0.115,0.978L33.64,4.857z"/>
		<path fill="#1F2259" d="M37.507,4.005l0.769,0.256c0.183,0.061,0.315,0.069,0.395,0.022c0.083-0.047,0.156-0.172,0.221-0.375
			c0.064-0.207,0.082-0.35,0.048-0.425c-0.032-0.079-0.136-0.147-0.313-0.206l-0.805-0.27L37.507,4.005z M36.515,5.267l0.918-2.9
			l1.391,0.465c0.347,0.114,0.566,0.255,0.657,0.422c0.091,0.168,0.088,0.414-0.014,0.736c-0.095,0.293-0.19,0.483-0.291,0.568
			c-0.1,0.085-0.257,0.115-0.472,0.089l-0.006,0.02c0.306,0.125,0.403,0.364,0.29,0.722l-0.201,0.638l-0.534-0.18l0.165-0.527
			c0.096-0.301-0.001-0.498-0.287-0.592L37.36,4.468l-0.31,0.977L36.515,5.267z"/>
	</g>
	<polygon fill="#1F2259" points="41.123,3.856 39.822,6.599 39.317,6.345 40.618,3.604 	"/>
	<g>
		<path fill="#1F2259" d="M43.669,5.54l0.489,0.35l-2.485,1.935l-0.71-0.508l0.927-3.058l0.479,0.343L41.86,6.345
			c-0.051,0.167-0.141,0.44-0.274,0.818l0.014,0.01l0.163-0.137c0.2-0.172,0.364-0.307,0.491-0.403L43.669,5.54z"/>
	</g>
	<path fill="#1F2259" d="M44.623,9.281l0.781-1.469l-1.477,0.703L44.623,9.281z M44.408,9.67l-0.873-0.962l-0.543,0.259L42.585,8.52
		l2.845-1.339l0.576,0.638l-1.486,2.831l-0.399-0.438L44.408,9.67z"/>
	<g>
		<path fill="#1F2259" d="M45.439,11.293l0.413,0.709c0.139,0.237,0.281,0.357,0.427,0.362c0.149,0.005,0.402-0.107,0.767-0.331
			c0.374-0.231,0.596-0.409,0.66-0.535c0.067-0.126,0.031-0.304-0.103-0.535l-0.434-0.738L45.439,11.293z M44.742,11.048l2.543-1.57
			l0.752,1.285c0.213,0.367,0.286,0.669,0.217,0.908c-0.071,0.244-0.3,0.488-0.688,0.725c-0.636,0.395-1.078,0.589-1.33,0.583
			c-0.247-0.007-0.493-0.216-0.735-0.63L44.742,11.048z"/>
		<path fill="#1F2259" d="M49.069,14.358c-0.111-0.373-0.222-0.576-0.333-0.609c-0.111-0.033-0.443,0.036-0.994,0.208
			c-0.407,0.129-0.642,0.242-0.702,0.339c-0.061,0.104-0.041,0.333,0.066,0.69c0.104,0.344,0.21,0.534,0.322,0.575
			c0.116,0.037,0.411-0.017,0.884-0.167c0.477-0.15,0.746-0.27,0.813-0.362C49.193,14.939,49.175,14.715,49.069,14.358
			 M49.543,14.253c0.157,0.531,0.174,0.899,0.046,1.102c-0.124,0.209-0.484,0.404-1.08,0.594c-0.65,0.203-1.082,0.255-1.297,0.154
			c-0.214-0.1-0.408-0.444-0.584-1.032c-0.157-0.531-0.177-0.899-0.056-1.107c0.121-0.208,0.466-0.401,1.036-0.579
			c0.674-0.213,1.122-0.269,1.342-0.172C49.167,13.314,49.364,13.658,49.543,14.253"/>
	</g>
</g>
</svg>