<?xml version="1.0" encoding="UTF-8" standalone="no"?>
<!-- Generator: Adobe Illustrator 17.0.0, SVG Export Plug-In  -->

<svg
   xmlns:dc="http://purl.org/dc/elements/1.1/"
   xmlns:cc="http://creativecommons.org/ns#"
   xmlns:rdf="http://www.w3.org/1999/02/22-rdf-syntax-ns#"
   xmlns:svg="http://www.w3.org/2000/svg"
   xmlns="http://www.w3.org/2000/svg"
   xmlns:sodipodi="http://sodipodi.sourceforge.net/DTD/sodipodi-0.dtd"
   xmlns:inkscape="http://www.inkscape.org/namespaces/inkscape"
   version="1.1"
   x="0px"
   y="0px"
   width="59"
   height="15"
   viewBox="0 0 59.000002 15"
   enable-background="new 0 0 66.101 55.106"
   xml:space="preserve"
   id="svg138"
   sodipodi:docname="logo2.svg"
   inkscape:version="0.92.4 (5da689c313, 2019-01-14)"><metadata
   id="metadata142"><rdf:RDF><cc:Work
       rdf:about=""><dc:format>image/svg+xml</dc:format><dc:type
         rdf:resource="http://purl.org/dc/dcmitype/StillImage" /><dc:title></dc:title></cc:Work></rdf:RDF></metadata><sodipodi:namedview
   pagecolor="#ffffff"
   bordercolor="#666666"
   borderopacity="1"
   objecttolerance="10"
   gridtolerance="10"
   guidetolerance="10"
   inkscape:pageopacity="0"
   inkscape:pageshadow="2"
   inkscape:window-width="2560"
   inkscape:window-height="1017"
   id="namedview140"
   showgrid="false"
   inkscape:zoom="32"
   inkscape:cx="29.062657"
   inkscape:cy="7.8513246"
   inkscape:window-x="-8"
   inkscape:window-y="-8"
   inkscape:window-maximized="1"
   inkscape:current-layer="g4035"
   showguides="false" />
<defs
   id="defs2">
</defs>
<g
   id="g136"
   transform="matrix(0.40176838,0,0,0.40176838,0,-40.105999)">
	<g
   id="g58">
		
		
		
		
		
		
		
		
		
		
		
		
		
		
		
		
		
		
		
		
		
		
		
		
		
		
		
	</g>
	
	
	
	
	
	
	
	
	
	
	
	
	
	
	
		
	
		
	
	
	
	
	
	
	
	
	
	
	<g
   id="g4035"
   transform="matrix(1.1276479,0,0,1.1227204,-24.140148,49.795509)"><path
     style="fill:#1f2259"
     inkscape:connector-curvature="0"
     id="path4"
     d="m 90.28338,65.578371 c 0,0.532 -0.213,0.973 -0.638,1.313 -0.424,0.334 -0.923,0.5 -1.497,0.5 -0.16,0 -0.288,-0.006 -0.385,-0.018 -0.089,-0.02 -0.196,-0.06 -0.319,-0.116 0.445,0 0.842,-0.135 1.198,-0.406 0.355,-0.277 0.53,-0.636 0.53,-1.081 0,-0.403 -0.126,-0.705 -0.377,-0.898 -0.25,-0.2 -0.582,-0.298 -0.994,-0.298 -0.225,0 -0.449,0.019 -0.675,0.057 v 4.361 c 0,0.343 0.025,0.599 0.077,0.772 0.052,0.169 0.193,0.315 0.425,0.446 l -1.921,0.027 c 0.18,-0.078 0.297,-0.214 0.348,-0.416 0.058,-0.197 0.088,-0.436 0.088,-0.715 v -0.221 -3.646 -0.233 c 0,-0.289 -0.026,-0.522 -0.077,-0.705 -0.052,-0.186 -0.169,-0.316 -0.349,-0.394 l 2.345,-0.03 c 0.656,0 1.19,0.151 1.603,0.454 0.411,0.298 0.618,0.715 0.618,1.247" /><path
     style="fill:#1f2259"
     inkscape:connector-curvature="0"
     id="path6"
     d="m 95.100376,70.239371 v -0.637 c -0.2,0.263 -0.472,0.463 -0.812,0.6 -0.34,0.128 -0.701,0.192 -1.079,0.192 -0.35,0 -0.674,-0.057 -0.977,-0.165 -0.304,-0.109 -0.564,-0.283 -0.78,-0.521 -0.22,-0.237 -0.353996,-0.494 -0.404996,-0.771 -0.053,-0.283 -0.077,-0.655 -0.077,-1.119 v -2.587 -0.3 c 0,-0.258 -0.03,-0.475 -0.088,-0.655 -0.052,-0.181 -0.164,-0.303 -0.339,-0.366 l 1.835996,-0.03 c -0.175,0.077 -0.29,0.213 -0.35,0.406 -0.052,0.192 -0.077,0.424 -0.077,0.695 v 0.25 2.587 c 0,0.63 0.129,1.104 0.388,1.418 0.263,0.309 0.646,0.463 1.148,0.463 0.283,0 0.547,-0.055 0.792,-0.162 0.251,-0.116 0.439,-0.266 0.568,-0.445 0.129,-0.18 0.202,-0.324 0.222,-0.434 0.019,-0.111 0.03,-0.281 0.03,-0.513 v -2.914 -0.3 c 0,-0.258 -0.03,-0.475 -0.085,-0.655 -0.055,-0.181 -0.167,-0.303 -0.342,-0.366 l 1.846002,-0.03 0.011,0.03 c -0.183,0.063 -0.301,0.196 -0.359,0.396 -0.052,0.197 -0.077,0.435 -0.077,0.715 v 0.221 3.646 0.233 c 0,0.294 0.025,0.533 0.077,0.713 0.053,0.182 0.172,0.307 0.359,0.378 z" /><path
     style="fill:#1f2259"
     inkscape:connector-curvature="0"
     id="path8"
     d="m 101.31638,70.239371 h -4.024002 c 0.18,-0.078 0.297,-0.216 0.348,-0.413 0.059,-0.2 0.089,-0.438 0.089,-0.718 v -0.221 -3.646 -0.243 c 0,-0.295 -0.028,-0.533 -0.079,-0.713 -0.051,-0.18 -0.171,-0.307 -0.357,-0.376 l 3.089002,-0.03 h 0.174 c 0.121,0 0.215,-0.016 0.28,-0.049 l 0.028,1.131 c -0.149,-0.154 -0.318,-0.258 -0.511,-0.309 -0.188,-0.052 -0.406002,-0.077 -0.658002,-0.077 -0.224,0 -0.408,0.005 -0.549,0.019 -0.136,0.007 -0.281,0.022 -0.436,0.051 v 1.803 h 1.151 0.211002 c 0.077,-0.006 0.148,-0.025 0.213,-0.059 l 0.029,1.024 c -0.085,-0.123 -0.197,-0.196 -0.338002,-0.222 -0.138,-0.031 -0.319,-0.048 -0.55,-0.048 h -0.717 v 2.287 l 1.228,0.114 c 0.031,0.007 0.066,0.01 0.106002,0.01 h 0.116 c 0.602,0 1.129,-0.193 1.571,-0.579 z" /><path
     style="fill:#1f2259"
     inkscape:connector-curvature="0"
     id="path10"
     d="m 108.01538,70.239371 h -0.888 c -0.489,0 -0.865,-0.16 -1.129,-0.481 l -1.179,-1.459 -0.887,-1.36 c 0.47,-0.071 0.864,-0.214 1.188,-0.424 0.32,-0.217 0.482,-0.538 0.482,-0.956 0,-0.335 -0.121,-0.598 -0.367,-0.79 -0.238,-0.193 -0.53,-0.291 -0.878,-0.291 -0.123,0 -0.245,0.013 -0.367,0.03 -0.122,0.019 -0.219,0.034 -0.289,0.047 v 4.333 0.242 c 0,0.296 0.025,0.532 0.077,0.714 0.051,0.18 0.171,0.302 0.357,0.368 l -1.844,0.027 c 0.174,-0.069 0.285,-0.202 0.337,-0.396 0.059,-0.194 0.089,-0.421 0.089,-0.684 v -0.272 -3.646 -0.311 c 0,-0.258 -0.029,-0.475 -0.089,-0.655 -0.052,-0.181 -0.163,-0.303 -0.337,-0.366 l 2.297,-0.03 c 0.632,0 1.119,0.146 1.468,0.437 0.354,0.288 0.53,0.665 0.53,1.129 0,0.409 -0.152,0.773 -0.453,1.088 -0.298,0.312 -0.658,0.514 -1.082,0.61 l 1.389,1.745 c 0.2,0.244 0.439,0.486 0.716,0.724 0.277,0.232 0.563,0.439 0.859,0.627" /><path
     style="fill:#1f2259"
     inkscape:connector-curvature="0"
     id="path12"
     d="m 111.52038,64.961371 c -0.072,-0.149 -0.185,-0.25 -0.338,-0.299 -0.148,-0.059 -0.32,-0.087 -0.521,-0.087 h -0.869 v 4.41 c 0,0.342 0.026,0.599 0.078,0.772 0.053,0.166 0.193,0.317 0.424,0.454 l -1.911,0.029 c 0.174,-0.08 0.287,-0.216 0.337,-0.407 0.06,-0.192 0.089,-0.424 0.089,-0.696 v -0.25 -4.312 h -0.851 c -0.224,0 -0.435,0.031 -0.637,0.095 -0.198,0.06 -0.369,0.154 -0.51,0.291 l 0.307,-1.146 c 0.138,0.043 0.268,0.064 0.396,0.064 h 3.841 c 0.105,0 0.188,-0.003 0.253,-0.009 0.063,-0.013 0.13,-0.032 0.192,-0.056 z" /><path
     style="fill:#1f2259"
     inkscape:connector-curvature="0"
     id="path14"
     d="m 117.78438,67.191371 c 0,-0.753 -0.221,-1.404 -0.665,-1.949 -0.438,-0.554 -1.027,-0.831 -1.766,-0.831 -0.74,0 -1.337,0.242 -1.785,0.725 -0.445,0.475 -0.667,1.083 -0.667,1.824 0,0.712 0.233,1.35 0.696,1.91 0.462,0.553 1.054,0.829 1.775,0.829 0.727,0 1.309,-0.233 1.746,-0.705 0.445,-0.469 0.666,-1.071 0.666,-1.803 m 1.099,-0.195 c 0,0.972 -0.347,1.784 -1.041,2.434 -0.694,0.644 -1.534,0.965 -2.52,0.965 -0.984,0 -1.817,-0.313 -2.498,-0.938 -0.684,-0.629 -1.024,-1.434 -1.024,-2.411 0,-0.928 0.347,-1.712 1.043,-2.357 0.702,-0.648 1.561,-0.973 2.577,-0.973 0.995,0 1.823,0.322 2.481,0.965 0.656,0.642 0.982,1.414 0.982,2.315" /><path
     style="fill:#1f2259"
     inkscape:connector-curvature="0"
     id="path16"
     d="m 127.80838,63.879371 -1.899,4.94 -0.656,1.709 c -0.406,-0.263 -0.672,-0.455 -0.801,-0.578 -0.122,-0.129 -0.249,-0.365 -0.376,-0.705 l -1.458,-3.955 c -0.096,-0.252 -0.191,-0.504 -0.28,-0.756 -0.122,-0.269 -0.278,-0.479 -0.472,-0.625 l 1.409,-0.03 -0.012,0.117 c 0,0.096 0.017,0.198 0.051,0.307 0.037,0.105 0.106,0.301 0.211,0.589 l 1.533,4.209 1.314,-3.465 c 0.109,-0.291 0.188,-0.521 0.24,-0.695 0.058,-0.18 0.087,-0.347 0.087,-0.501 0,-0.271 -0.112,-0.447 -0.338,-0.53 z" /><path
     style="fill:#1f2259"
     inkscape:connector-curvature="0"
     id="path18"
     d="m 132.10738,67.143371 -0.946,-2.443 -0.955,2.443 z m 0.676,3.096 c 0.232,-0.115 0.346,-0.238 0.346,-0.366 0,-0.077 -0.026,-0.185 -0.085,-0.329 -0.058,-0.14 -0.101,-0.251 -0.125,-0.327 l -0.531,-1.362 h -2.435 l -0.501,1.362 c -0.051,0.136 -0.091,0.248 -0.117,0.337 -0.023,0.085 -0.036,0.169 -0.036,0.252 0,0.09 0.023,0.168 0.075,0.241 0.06,0.063 0.148,0.119 0.271,0.165 l -1.776,0.027 c 0.245,-0.137 0.423,-0.302 0.532,-0.493 0.107,-0.192 0.243,-0.493 0.405,-0.907 l 1.612,-4.032 c 0.043,-0.121 0.079,-0.227 0.104,-0.309 0.032,-0.09 0.049,-0.169 0.049,-0.232 0,-0.092 -0.022,-0.164 -0.068,-0.223 -0.036,-0.057 -0.114,-0.103 -0.23,-0.134 l 1.525,-0.03 2.006,4.94 c 0.168,0.413 0.305,0.719 0.416,0.917 0.114,0.193 0.297,0.351 0.541,0.476 z" /><path
     style="fill:#1f2259"
     inkscape:connector-curvature="0"
     id="path20"
     d="m 140.88138,70.239371 h -0.889 c -0.49,0 -0.864,-0.16 -1.129,-0.481 l -1.177,-1.459 -0.887,-1.36 c 0.469,-0.071 0.863,-0.214 1.186,-0.424 0.321,-0.217 0.483,-0.538 0.483,-0.956 0,-0.335 -0.124,-0.598 -0.368,-0.79 -0.238,-0.193 -0.531,-0.291 -0.879,-0.291 -0.121,0 -0.244,0.013 -0.366,0.03 -0.122,0.019 -0.218,0.034 -0.288,0.047 v 4.333 0.242 c 0,0.296 0.024,0.532 0.076,0.714 0.051,0.18 0.172,0.302 0.357,0.368 l -1.843,0.027 c 0.173,-0.069 0.287,-0.202 0.337,-0.396 0.061,-0.194 0.087,-0.421 0.087,-0.684 v -0.272 -3.646 -0.311 c 0,-0.258 -0.026,-0.475 -0.087,-0.655 -0.05,-0.181 -0.164,-0.303 -0.337,-0.366 l 2.298,-0.03 c 0.63,0 1.119,0.146 1.466,0.437 0.354,0.288 0.532,0.665 0.532,1.129 0,0.409 -0.153,0.773 -0.455,1.088 -0.296,0.312 -0.655,0.514 -1.08,0.61 l 1.39,1.745 c 0.198,0.244 0.438,0.486 0.714,0.724 0.276,0.232 0.562,0.439 0.859,0.627" /><path
     style="fill:#1f2259"
     inkscape:connector-curvature="0"
     id="path22"
     d="m 144.28838,67.143371 -0.944,-2.443 -0.956,2.443 z m 0.675,3.096 c 0.233,-0.115 0.349,-0.238 0.349,-0.366 0,-0.077 -0.029,-0.185 -0.085,-0.329 -0.059,-0.14 -0.101,-0.251 -0.128,-0.327 l -0.529,-1.362 h -2.433 l -0.502,1.362 c -0.052,0.136 -0.09,0.248 -0.116,0.337 -0.026,0.085 -0.038,0.169 -0.038,0.252 0,0.09 0.026,0.168 0.077,0.241 0.059,0.063 0.146,0.119 0.271,0.165 l -1.776,0.027 c 0.244,-0.137 0.421,-0.302 0.53,-0.493 0.109,-0.192 0.243,-0.493 0.406,-0.907 l 1.61,-4.032 c 0.045,-0.121 0.081,-0.227 0.106,-0.309 0.031,-0.09 0.047,-0.169 0.047,-0.232 0,-0.092 -0.021,-0.164 -0.066,-0.223 -0.038,-0.057 -0.117,-0.103 -0.23,-0.134 l 1.524,-0.03 2.006,4.94 c 0.169,0.413 0.308,0.719 0.416,0.917 0.115,0.193 0.295,0.351 0.54,0.476 z" /><path
     style="fill:#1f2259"
     inkscape:connector-curvature="0"
     id="path24"
     d="m 151.65438,68.397371 c 0,0.532 -0.248,1 -0.743,1.399 -0.488,0.397 -1.103,0.599 -1.843,0.599 -0.31,0 -0.605,-0.022 -0.888,-0.068 -0.284,-0.045 -0.564,-0.119 -0.84,-0.224 l -0.279,-1.205 c 0.288,0.25 0.617,0.448 0.982,0.59 0.368,0.141 0.744,0.211 1.13,0.211 0.327,0 0.642,-0.085 0.936,-0.261 0.297,-0.18 0.445,-0.429 0.445,-0.742 0,-0.404 -0.277,-0.749 -0.831,-1.032 -0.553,-0.282 -1.093,-0.557 -1.621,-0.819 -0.578,-0.383 -0.869,-0.859 -0.869,-1.44 0,-0.565 0.236,-0.987 0.705,-1.263 0.477,-0.277 1.049,-0.416 1.718,-0.416 0.509,0 0.988,0.069 1.437,0.215 v 1.089 c -0.18,-0.181 -0.409,-0.325 -0.694,-0.435 -0.276,-0.116 -0.551,-0.176 -0.819,-0.176 -0.335,0 -0.627,0.073 -0.878,0.214 -0.245,0.137 -0.368,0.358 -0.368,0.666 0,0.362 0.273,0.687 0.82,0.976 0.553,0.282 1.099,0.557 1.631,0.819 0.578,0.366 0.869,0.799 0.869,1.303" /><path
     style="fill:#1f2259"
     inkscape:connector-curvature="0"
     id="path26"
     d="m 93.878376,60.409371 c -0.773,0.144 -1.355,0.242 -1.751,0.294 -0.393,0.062 -0.839,0.09 -1.337996,0.09 -1.621,0 -2.899,-0.399 -3.834,-1.209 -0.934,-0.805 -1.402,-1.864 -1.402,-3.177 0,-1.383 0.489,-2.478 1.468,-3.281 0.976,-0.817 2.26,-1.224 3.847,-1.224 0.667996,0 1.346996,0.074 2.031996,0.219 v 1.48 c -0.256,-0.266 -0.598,-0.459 -1.029,-0.58 -0.418,-0.129 -0.856996,-0.192 -1.311996,-0.192 -1.022,0 -1.867,0.308 -2.536,0.927 -0.669,0.618 -1.002,1.439 -1.002,2.469 0,1.04 0.355,1.904 1.067,2.603 0.714,0.692 1.583,1.041 2.611,1.041 0.634996,0 1.234996,-0.083 1.802996,-0.246 v -1.851 c 0,-0.396 -0.035,-0.71 -0.103,-0.938 -0.069,-0.242 -0.232,-0.412 -0.489,-0.518 l 1.969,-0.036 c -0.024,0.069 -0.042,0.162 -0.05,0.282 -0.01,0.111 -0.014,0.214 -0.014,0.309 v 2.958 0.272 c 0,0.108 0.021,0.213 0.063,0.308" /><path
     style="fill:#1f2259"
     inkscape:connector-curvature="0"
     id="path28"
     d="m 102.46638,60.589371 h -1.185 c -0.653,0 -1.152,-0.214 -1.506002,-0.644 l -1.569,-1.942 -1.183,-1.815 c 0.625,-0.096 1.151,-0.281 1.582,-0.566 0.428,-0.291 0.643,-0.717 0.643,-1.273 0,-0.447 -0.163,-0.8 -0.488,-1.056 -0.317,-0.259 -0.709,-0.386 -1.172,-0.386 -0.163,0 -0.325,0.012 -0.488,0.04 -0.163,0.024 -0.292,0.045 -0.387,0.062 v 5.778 0.32 c 0,0.396 0.035,0.713 0.103,0.952 0.069,0.242 0.228,0.404 0.477,0.491 l -2.458002,0.038 c 0.233,-0.095 0.383,-0.271 0.45,-0.529 0.078,-0.257 0.117,-0.56 0.117,-0.912 v -0.36 -4.865 -0.412 c 0,-0.342 -0.039,-0.635 -0.117,-0.874 -0.067,-0.24 -0.217,-0.402 -0.45,-0.488 l 3.066002,-0.039 c 0.838,0 1.49,0.192 1.953,0.581 0.472002,0.386 0.707002,0.887 0.707002,1.504 0,0.549 -0.199,1.034 -0.602002,1.453 -0.396,0.412 -0.876,0.684 -1.442,0.812 l 1.853002,2.328 c 0.267,0.326 0.584,0.647 0.951,0.966 0.368,0.307 0.751,0.587 1.145,0.836" /><path
     style="fill:#1f2259"
     inkscape:connector-curvature="0"
     id="path30"
     d="m 107.29438,56.459371 -1.26,-3.258 -1.275,3.258 z m 0.901,4.13 c 0.31,-0.154 0.464,-0.316 0.464,-0.488 0,-0.104 -0.038,-0.25 -0.116,-0.438 -0.076,-0.188 -0.132,-0.335 -0.168,-0.439 l -0.706,-1.812 h -3.243 l -0.669,1.812 c -0.067,0.181 -0.12,0.333 -0.154,0.453 -0.034,0.113 -0.052,0.222 -0.052,0.333 0,0.12 0.034,0.228 0.102,0.323 0.078,0.085 0.199,0.157 0.361,0.219 l -2.368,0.038 c 0.327,-0.18 0.562,-0.398 0.707,-0.657 0.146,-0.256 0.327,-0.659 0.542,-1.21 l 2.149,-5.379 c 0.06,-0.161 0.106,-0.299 0.14,-0.411 0.044,-0.121 0.066,-0.224 0.066,-0.309 0,-0.121 -0.03,-0.217 -0.09,-0.297 -0.054,-0.077 -0.154,-0.136 -0.309,-0.179 l 2.034,-0.039 2.676,6.589 c 0.223,0.55 0.407,0.955 0.554,1.223 0.154,0.258 0.395,0.467 0.72,0.631 z" /><path
     style="fill:#1f2259"
     inkscape:connector-curvature="0"
     id="path32"
     d="m 119.48638,53.768371 v 6.59 0.644 c -0.43,-0.146 -0.768,-0.323 -1.018,-0.529 -0.248,-0.206 -0.535,-0.517 -0.862,-0.938 l -4.428,-5.613 v 4.993 c 0,0.453 0.035,0.798 0.104,1.03 0.069,0.222 0.257,0.423 0.566,0.604 l -2.277,0.04 c 0.309,-0.198 0.497,-0.411 0.565,-0.644 0.077,-0.241 0.118,-0.585 0.118,-1.03 v -5.147 c 0,-0.463 -0.036,-0.803 -0.105,-1.016 -0.067,-0.224 -0.256,-0.423 -0.565,-0.605 l 1.879,-0.038 c 0.034,0.121 0.099,0.231 0.193,0.335 l 0.181,0.257 4.722,5.958 v -4.891 c 0,-0.453 -0.036,-0.793 -0.103,-1.016 -0.069,-0.231 -0.258,-0.434 -0.566,-0.605 l 2.266,-0.038 c -0.301,0.19 -0.489,0.404 -0.567,0.644 -0.07,0.238 -0.103,0.579 -0.103,1.015" /><path
     style="fill:#1f2259"
     inkscape:connector-curvature="0"
     id="path34"
     d="m 126.61738,60.589371 h -5.367 c 0.242,-0.105 0.396,-0.287 0.465,-0.553 0.077,-0.267 0.115,-0.584 0.115,-0.952 v -0.297 -4.865 -0.32 c 0,-0.395 -0.034,-0.711 -0.102,-0.953 -0.069,-0.241 -0.229,-0.407 -0.478,-0.501 l 4.119,-0.039 h 0.231 c 0.162,0 0.286,-0.021 0.374,-0.064 l 0.038,1.504 c -0.196,-0.205 -0.426,-0.341 -0.684,-0.41 -0.247,-0.069 -0.539,-0.104 -0.875,-0.104 -0.299,0 -0.543,0.011 -0.731,0.027 -0.182,0.008 -0.374,0.03 -0.579,0.064 v 2.407 h 1.531 0.283 c 0.101,-0.008 0.196,-0.035 0.282,-0.077 l 0.038,1.365 c -0.111,-0.165 -0.262,-0.262 -0.449,-0.298 -0.181,-0.044 -0.427,-0.062 -0.732,-0.062 h -0.953 v 3.048 l 1.633,0.155 c 0.045,0.009 0.09,0.014 0.141,0.014 h 0.154 c 0.81,0 1.507,-0.257 2.099,-0.773 z" /><path
     style="fill:#1f2259"
     inkscape:connector-curvature="0"
     id="path36"
     d="m 135.83438,60.589371 h -1.184 c -0.653,0 -1.153,-0.214 -1.504,-0.644 l -1.572,-1.942 -1.183,-1.815 c 0.626,-0.096 1.152,-0.281 1.582,-0.566 0.429,-0.291 0.644,-0.717 0.644,-1.273 0,-0.447 -0.162,-0.8 -0.489,-1.056 -0.317,-0.259 -0.708,-0.386 -1.171,-0.386 -0.163,0 -0.325,0.012 -0.489,0.04 -0.163,0.024 -0.292,0.045 -0.386,0.062 v 5.778 0.32 c 0,0.396 0.035,0.713 0.102,0.952 0.068,0.242 0.228,0.404 0.477,0.491 l -2.458,0.038 c 0.233,-0.095 0.381,-0.271 0.45,-0.529 0.077,-0.257 0.118,-0.56 0.118,-0.912 v -0.36 -4.865 -0.412 c 0,-0.342 -0.041,-0.635 -0.118,-0.874 -0.069,-0.24 -0.217,-0.402 -0.45,-0.488 l 3.063,-0.039 c 0.84,0 1.491,0.192 1.956,0.581 0.473,0.386 0.707,0.887 0.707,1.504 0,0.549 -0.202,1.034 -0.604,1.453 -0.395,0.412 -0.875,0.684 -1.442,0.812 l 1.854,2.328 c 0.266,0.326 0.582,0.647 0.952,0.966 0.368,0.307 0.752,0.587 1.145,0.836" /><path
     style="fill:#1f2259"
     inkscape:connector-curvature="0"
     id="path38"
     d="m 143.22538,56.522371 c 0,-1.001 -0.297,-1.869 -0.888,-2.6 -0.584,-0.736 -1.369,-1.106 -2.355,-1.106 -0.985,0 -1.78,0.322 -2.382,0.967 -0.591,0.633 -0.887,1.445 -0.887,2.431 0,0.953 0.309,1.802 0.926,2.548 0.617,0.738 1.408,1.107 2.368,1.107 0.969,0 1.746,-0.312 2.33,-0.938 0.591,-0.629 0.888,-1.431 0.888,-2.409 m 1.466,-0.257 c 0,1.297 -0.463,2.376 -1.389,3.242 -0.927,0.86 -2.045,1.288 -3.358,1.288 -1.312,0 -2.423,-0.416 -3.333,-1.25 -0.91,-0.841 -1.365,-1.912 -1.365,-3.215 0,-1.236 0.464,-2.283 1.393,-3.141 0.934,-0.867 2.078,-1.299 3.435,-1.299 1.327,0 2.432,0.428 3.307,1.287 0.874,0.855 1.31,1.889 1.31,3.088" /><path
     style="fill:#1f2259"
     inkscape:connector-curvature="0"
     id="path40"
     d="m 151.54038,58.129371 c 0,0.715 -0.33,1.335 -0.988,1.868 -0.652,0.532 -1.474,0.796 -2.458,0.796 -0.413,0 -0.809,-0.029 -1.186,-0.09 -0.376,-0.06 -0.75,-0.155 -1.119,-0.294 l -0.371,-1.61 c 0.386,0.335 0.822,0.598 1.31,0.785 0.489,0.189 0.991,0.284 1.505,0.284 0.438,0 0.854,-0.115 1.25,-0.349 0.393,-0.239 0.592,-0.568 0.592,-0.99 0,-0.54 -0.369,-1 -1.108,-1.378 -0.735,-0.376 -1.457,-0.74 -2.162,-1.093 -0.77,-0.505 -1.155,-1.145 -1.155,-1.916 0,-0.757 0.312,-1.317 0.938,-1.688 0.636,-0.368 1.397,-0.553 2.291,-0.553 0.678,0 1.316,0.093 1.916,0.283 v 1.453 c -0.239,-0.239 -0.548,-0.432 -0.926,-0.579 -0.369,-0.153 -0.733,-0.23 -1.095,-0.23 -0.446,0 -0.836,0.095 -1.171,0.283 -0.325,0.18 -0.488,0.475 -0.488,0.889 0,0.479 0.365,0.913 1.095,1.299 0.737,0.378 1.462,0.741 2.174,1.093 0.77,0.49 1.156,1.07 1.156,1.737" /><path
     style="fill:#ffffff"
     inkscape:connector-curvature="0"
     id="path42"
     d="m 49.572873,45.292371 c 10.314,0 18.882,8.598 18.882,18.906 0,3.822 -1.306,6.797 -5.553,6.797 -4.465,0 -8.858,-1.022 -13.329,-1.022 -4.486,0 -8.893,1.022 -13.373,1.022 -4.264,0 -5.53,-2.98 -5.53,-6.797 0,-10.354 8.546,-18.906 18.903,-18.906" /><path
     style="fill:#1f2259"
     inkscape:connector-curvature="0"
     id="path44"
     d="m 65.078873,66.440371 c -0.305,0.234 -7.764,1.682 -9.396,2.356 -0.505,-0.461 -0.774,-0.823 -1.532,-0.823 -2.029,0 -4.223,0.777 -6.4,0.777 -5.094,0 -9.482,-2.754 -14.551,-2.754 -2.041,0 -3.881,0.305 -5.842,0.821 1.923,-0.877 3.877,-1.802 5.685,-2.888 0.143,-0.086 0.399,-0.052 0.557,-0.066 l 0.354,-0.044 0.187,-0.016 0.11,-0.021 0.074,-0.017 0.074,-0.017 -0.074,0.076 -0.126,0.111 -0.118,0.096 -0.222,0.169 -0.422,0.312 c -0.186,0.106 -0.571,0.345 -0.571,0.571 0,0.056 -0.017,0.087 0.046,0.087 0.169,0 0.517,-0.221 0.644,-0.332 l 0.332,-0.289 0.178,-0.156 0.118,-0.109 0.059,-0.046 0.113,-0.064 -0.075,0.087 -0.068,0.08 -0.088,0.113 -0.153,0.23 -0.225,0.37 c -0.087,0.108 -0.369,0.499 -0.369,0.605 0,0.159 0.164,0.179 0.289,0.179 0.817,0 0.937,-0.537 1.399,-0.933 0.316,-0.273 1.667,0.064 1.667,-0.646 0,-0.271 0.422,-0.295 0.732,-0.398 0.602,0.506 1.788,2.354 2.399,2.354 0.33,0 0.045,-0.277 0.045,-0.459 l -0.045,-0.185 v -0.067 l 0.245,0.333 c 0.383,0.448 0.778,0.942 1.354,1.133 0.075,0.025 0.15,0 0.222,0 h 0.179 c 0.044,-0.26 -0.182,-0.472 -0.326,-0.688 l -0.082,-0.141 -0.015,-0.06 c 0.642,0 1.666,0.866 2,0.866 l 0.155,-0.179 -0.089,-0.044 -0.268,-0.198 -1,-0.802 -0.089,-0.378 c 0.485,-0.044 0.717,0.778 1.201,0.778 l 0.089,-0.111 c 0,-0.095 -0.164,-0.097 -0.229,-0.162 -0.208,-0.208 -0.342,-0.422 -0.521,-0.646 l -0.139,-0.259 -0.053,-0.134 c 0.403,-0.043 0.631,0.622 1.051,0.622 l 0.021,-0.108 c 0.072,-0.095 0.126,-0.136 0.246,-0.136 0.521,0 2.235,1.479 2.711,1.823 0.146,0 0.243,-0.111 0.332,-0.157 l 0.09,-0.044 c 0,-0.131 -0.205,-0.159 -0.297,-0.254 -0.327,-0.324 -0.553,-0.946 -1.015,-0.946 l 0.135,0.022 0.244,0.021 c 0.271,0 0.511,-0.029 0.769,0.067 0.723,0.272 1.298,0.856 1.984,1.2 -0.023,-0.052 0.111,-0.143 0.111,-0.2 l -0.267,-0.268 c -1.144,-1.247 -2.113,-1.726 -3.132,-3.086 0.673,0.592 4.334,3.199 5.088,3.199 0.04,0 0.087,-0.019 0.087,-0.067 0,-0.255 -1.399,-0.905 -1.399,-1.289 0,-0.077 0.087,-0.089 0.156,-0.089 0.284,0 1.089,0.622 1.378,0.622 l 0.377,-0.067 0.111,-0.023 c 0,-0.203 -0.483,-0.131 -0.511,-0.33 1.031,-0.283 1.963,-0.652 2.953,-1.046 -0.417,0.418 -0.713,0.617 -1.19,0.977 -0.093,0.069 -0.43,0.198 -0.43,0.312 0,0.143 0.647,0 0.688,0 l -0.089,0.043 -0.2,0.09 c -0.143,0.071 -0.578,0.229 -0.578,0.378 0,0.052 0.122,0.09 0.157,0.09 0.303,0 2.132,-0.899 2.132,-1.09 -0.383,0 -0.629,0.266 -0.999,0.266 h -0.062 c 0,-0.125 0.235,-0.091 0.343,-0.155 0.306,-0.186 0.862,-0.488 1.17,-0.488 l 0.108,0.023 0.092,-0.023 c 0,0.41 -0.957,1.065 -0.957,1.532 0,0.08 0.046,0.111 0.111,0.111 0.425,0 1.291,-1.335 1.422,-1.621 0.072,0.072 0.165,0.083 0.25,0.126 l 0.06,0.028 c 0.046,0.384 -0.199,0.808 -0.199,1.201 l 0.045,0.09 c 0.252,0 0.205,-0.646 0.489,-0.646 0.064,0 0.131,-0.069 0.11,0.067 l -0.022,0.064 v 0.578 c 0,0.129 0.078,0.422 0.245,0.422 0.278,0 0.109,-1.289 0.109,-1.509 0,-0.158 0.023,-0.135 0.135,-0.135 0.245,0 0.379,1.333 0.665,1.333 l 0.046,-0.176 c 0.048,-0.205 0.11,-0.406 0.11,-0.578 0,-0.082 -0.05,-0.157 0.045,-0.157 0.129,0 0.312,-0.384 0.312,-0.488 0,-0.313 -0.513,-0.28 -0.513,-0.4 0,-0.23 0.392,-0.312 0.623,-0.312 0.335,0 0.867,1 0.867,1.29 0,0.114 0.317,0.51 0.467,0.51 0.054,0 0.065,-0.168 0.065,-0.199 l 0.022,-0.688 c 0,0 -0.457,-0.552 -0.466,-0.646 0.562,0.357 1.149,0.67 1.762,0.933 l 0.415,0.178 0.156,0.044 -0.023,-0.176 -0.444,-0.296 -0.245,-0.183 -0.087,-0.068 c 1.286,-0.045 3.366,1.061 4.641,1.51" /><path
     style="fill:#45a34e"
     inkscape:connector-curvature="0"
     id="path46"
     d="m 51.728873,70.638371 c 3.31,-1.752 7.008,-2.618 10.752,-2.618 4.694,0 9.52,1.387 13.13,4.472 0.372,0.319 1.445,1.443 1.445,1.971 l -0.023,0.687 c -0.304,0.812 -1.732,1.067 -2.467,1.067 -4.755,0 -9.356,-1.911 -14.239,-1.911 -6.59,0 -11.308,3.53 -17.284,3.53 -1.021,0 -8.064,-0.719 -8.064,-2.263 0,-0.97 2.859,-0.867 3.777,-0.867 h 0.376 c -1.925,-0.446 -3.764,-0.557 -5.73,-0.557 -3.958,0 -8.429,2.401 -10.397,2.401 -0.206,0 -0.551,-0.214 -0.645,-0.399 l -0.045,-0.424 c 0,-1.839 4.849,-4.966 7,-5.311 -2.207,0.266 -4.533,0.513 -6.755,0.513 -0.714,0 -1.133,-0.239 -1.133,-0.956 0,-3.503 12.362,-4.286 15.483,-4.286 1.619,0 4.787,2.141 6.51,2.732 2.168,0.742 4.788,0.91 7.065,0.91 1.023,0 2.166,-0.129 3.089,-0.6 -0.658,0.613 -1.327,1.159 -1.845,1.909" /><path
     style="fill:#07743b"
     inkscape:connector-curvature="0"
     id="path48"
     d="m 24.492873,66.886371 c -0.193,0.312 -0.245,0.64 -0.245,0.998 0,0.479 0.735,0.8 1.134,0.8 0.944,0 4.926,-1.775 8.064,-1.775 6.427,0 11.564,3.146 18.683,2.999 -5.143,3.017 -7.392,2.776 -12.995,2.776 -0.691,0 -1.067,0.618 -1.067,1.243 0,0.054 0.172,1.311 0.423,0.778 0.94,0.191 1.906,0.268 2.866,0.268 8.168,0 11.41,-5.511 21.77,-5.511 3.306,0 8.888,2.222 9.907,2.222 0.446,0 0.934,-0.854 0.934,-1.244 0,-0.316 -0.128,-0.589 -0.312,-0.843 -3.286,-1.426 -6.951,-2.357 -10.551,-2.357 -2.532,0 -4.955,0.362 -7.376,1.111 -0.335,-0.474 -0.853,-0.711 -1.422,-0.711 -1.655,0 -3.384,0.511 -5.109,0.511 -5.49,0 -10.027,-3.179 -15.438,-3.179 -3.161,0.001 -6.398,0.548 -9.266,1.914" /><path
     style="fill:#1c994f"
     inkscape:connector-curvature="0"
     id="path50"
     d="m 68.723873,67.062371 -0.689,-0.776 h -0.311 c 0.075,-0.833 0.111,-1.653 0.111,-2.489 0,-9.98 -8.459,-18.061 -18.306,-18.061 -10.063,0 -19.053,8.761 -18.261,19.04 l -0.223,0.378 -0.912,-0.023 c -0.056,-0.146 -0.043,-0.622 -0.043,-0.8 10e-4,-10.782 8.567,-19.749 19.461,-19.749 11.365,0 18.599,8.741 19.418,19.46 0.073,0.997 -0.189,2.032 -0.245,3.02" /><path
     style="fill:#fdb515"
     inkscape:connector-curvature="0"
     id="path52"
     d="m 36.355873,61.977371 c 1.101,-0.751 2.957,-2.42 4.198,-2.42 1.13,0 8.164,4.827 9.798,5.775 1.021,-0.396 5.345,-2.401 6.352,-2.401 2.703,0 3.459,1.469 5.866,2.442 0.211,-0.681 0.41,-1.427 0.355,-2.154 -0.543,-7.339 -5.562,-13.308 -13.307,-13.308 -6.142,0 -13.285,5.47 -13.285,12.021 z" /><path
     style="fill:#1f2259"
     inkscape:connector-curvature="0"
     id="path54"
     d="m 42.890873,71.196371 c 0.301,0.077 0.729,0.164 0.955,0.4 v 0.154 c -0.663,0.74 -7.204,0.732 -8.177,0.732 -0.754,0 -7.374,0.113 -7.374,-1.331 0,-0.14 0.571,-0.346 0.667,-0.378 2.12,-0.707 4.407,-0.532 6.597,-0.532 0.911,0 2.263,-0.559 3.467,-0.559 3.578,0 7.026,0.404 10.552,0.913 v 0.113 c 0,0.124 -1.362,0.332 -1.549,0.351 -1.675,0.205 -3.455,0.195 -5.138,0.137" /><path
     style="fill:#ffffff"
     inkscape:connector-curvature="0"
     id="path56"
     d="m 36.223873,67.786371 c -0.325,-0.08 -0.787,-0.466 -1.066,-0.466 -0.022,0 -0.021,0.066 -0.046,0.066 l -0.333,0.044 c -0.029,0.047 -0.134,0.062 -0.176,0.135 -0.148,0.239 -0.206,0.462 -0.401,0.687 -0.036,0.046 -0.062,0.1 -0.11,0.135 -0.453,0.322 -0.53,0.188 -0.934,0.289 -0.113,0.028 -0.36,0.249 -0.443,0.333 -0.559,0.559 -0.8,1.204 -0.8,1.999 v 0.09 c 0,0.036 -0.045,0.064 0,0.064 0.201,-0.359 0.345,-0.7 0.644,-0.997 l -0.111,0.177 v 0.043 c -0.018,0.042 -0.11,1.079 -0.11,1.245 0,0.113 -0.015,0.09 0.088,0.09 h 0.067 c -0.032,-0.066 -0.045,-0.385 -0.045,-0.468 0,-0.214 0.036,-0.411 0.066,-0.622 0.034,-0.033 0.147,-0.116 0.155,-0.132 v -0.046 c 0.03,-0.021 0.067,-0.103 0.09,-0.133 l -0.044,0.043 c 0,0.049 0.044,0.088 0.044,0.136 0.087,0.145 0.669,1.132 0.733,1.176 -0.035,0.036 0.1,0.023 0.112,0.023 h 0.087 c -0.156,-0.139 -0.758,-1.036 -0.799,-1.222 0.195,-0.296 0.412,-0.6 0.532,-0.934 0.673,-0.121 1.073,-1.584 1.355,-1.666 l 0.022,-0.046 c 0.31,-0.088 0.266,-0.199 0.713,-0.199 0.261,0 0.514,0.044 0.776,0.044 -0.036,0 -0.013,0.034 -0.023,0.045 l -0.022,0.043 -0.021,0.044 z" /><polygon
     transform="translate(16.169873,44.582371)"
     style="fill:#b9532e"
     id="polygon60"
     points="44.935,21.816 47.153,24.634 54.151,24.323 51.798,21.681 " /><polygon
     transform="translate(16.169873,44.582371)"
     style="fill:none;stroke:#010101;stroke-width:0.53200001;stroke-miterlimit:10"
     id="polygon62"
     points="44.935,21.816 47.153,24.634 54.151,24.323 51.798,21.681 "
     stroke-miterlimit="10" /><g
     transform="translate(16.169873,44.582371)"
     id="g68">
		<path
   style="fill:#ffffff"
   inkscape:connector-curvature="0"
   id="path64"
   d="m 55.243,29.123 -0.025,-1.71 -6.753,0.534 -1.2,-1.534 6.887,-0.354 v -1.735 l -7.019,0.335 -2.266,-2.91 -2.267,2.819 0.022,4.267 c 1.786,0.27 4.112,0.889 5.889,0.889 2.166,-0.001 4.559,-0.408 6.732,-0.601" />
		<path
   style="fill:none;stroke:#010101;stroke-width:0.48500001;stroke-miterlimit:10"
   inkscape:connector-curvature="0"
   id="path66"
   d="m 55.243,29.123 -0.025,-1.71 -6.753,0.534 -1.2,-1.534 6.887,-0.354 v -1.735 l -7.019,0.335 -2.266,-2.91 -2.267,2.819 0.022,4.267 c 1.786,0.27 4.112,0.889 5.889,0.889 2.166,-0.001 4.559,-0.408 6.732,-0.601 z"
   stroke-miterlimit="10" />
	</g><rect
     style="fill:#010101"
     id="rect70"
     height="0.86799997"
     width="0.26699999"
     y="68.06237"
     x="60.815872" /><rect
     style="fill:#010101"
     id="rect72"
     height="0.98100001"
     width="0.46799999"
     y="69.638374"
     x="61.723873" /><rect
     style="fill:#010101"
     id="rect74"
     height="0.95599997"
     width="0.44400001"
     y="69.573372"
     x="59.592873" /><rect
     style="fill:#010101"
     id="rect76"
     height="0.98000002"
     width="0.44400001"
     y="71.306374"
     x="59.592873" /><rect
     style="fill:#010101"
     id="rect78"
     height="0.95599997"
     width="0.46700001"
     y="71.39537"
     x="61.636871" /><polygon
     transform="translate(16.169873,44.582371)"
     style="fill:#010101"
     id="polygon80"
     points="52.954,24.834 52.954,25.546 53.286,25.524 53.286,24.834 " /><polygon
     transform="translate(16.169873,44.582371)"
     style="fill:#010101"
     id="polygon82"
     points="50.688,24.924 50.688,25.634 51.022,25.613 51.022,24.901 " /><polygon
     transform="translate(16.169873,44.582371)"
     style="fill:#010101"
     id="polygon84"
     points="48.154,25.037 48.154,25.747 48.486,25.724 48.486,25.037 " /><polygon
     transform="translate(16.169873,44.582371)"
     style="fill:#010101"
     id="polygon86"
     points="49.709,28.258 49.709,28.969 50.043,28.945 50.043,28.234 " /><polygon
     transform="translate(16.169873,44.582371)"
     style="fill:#010101"
     id="polygon88"
     points="51.864,28.079 51.864,28.769 52.196,28.745 52.196,28.056 " /><polygon
     transform="translate(16.169873,44.582371)"
     style="fill:#010101"
     id="polygon90"
     points="54.04,27.923 54.04,28.612 54.375,28.591 54.375,27.899 " /><line
     style="fill:none;stroke:#010101;stroke-width:0.48500001;stroke-miterlimit:10"
     id="line92"
     y2="71.060371"
     x2="63.322872"
     y1="69.240372"
     x1="63.302872"
     stroke-miterlimit="10" /><line
     style="fill:none;stroke:#010101;stroke-width:0.48500001;stroke-miterlimit:10"
     id="line94"
     y2="74.283371"
     x2="64.678871"
     y1="72.684372"
     x1="64.790871"
     stroke-miterlimit="10" /><polygon
     transform="translate(16.169873,44.582371)"
     style="fill:#b9532e"
     id="polygon96"
     points="47.243,26.369 54.151,26.037 55.243,27.413 48.575,28.033 " /><polygon
     transform="translate(16.169873,44.582371)"
     style="fill:none;stroke:#010101;stroke-width:0.53200001;stroke-miterlimit:10"
     id="polygon98"
     points="47.243,26.369 54.151,26.037 55.243,27.413 48.575,28.033 "
     stroke-miterlimit="10" /><g
     transform="translate(16.169873,44.582371)"
     id="g102">
		<path
   style="fill:#1f2259"
   inkscape:connector-curvature="0"
   id="path100"
   d="m 18.262,14.825 0.198,-0.627 c 0.079,-0.25 0.101,-0.416 0.068,-0.501 -0.035,-0.088 -0.156,-0.167 -0.364,-0.234 -0.238,-0.078 -0.396,-0.102 -0.472,-0.064 -0.074,0.038 -0.149,0.174 -0.225,0.407 l -0.214,0.684 z m 1.19,1.004 -2.823,-0.939 0.368,-1.169 0.048,-0.145 c 0.122,-0.393 0.271,-0.638 0.448,-0.727 0.177,-0.094 0.457,-0.077 0.836,0.052 0.378,0.124 0.608,0.275 0.691,0.445 0.083,0.173 0.061,0.458 -0.064,0.854 l -0.037,0.129 -0.206,0.648 0.912,0.302 z" />
	</g><path
     style="fill:#1f2259"
     inkscape:connector-curvature="0"
     id="path104"
     d="m 36.635873,55.602371 -1.589,-0.365 1.066,1.261 z m 0.424,0.103 -0.658,1.129 0.393,0.465 -0.308,0.524 -2.034,-2.439 0.436,-0.746 3.059,0.689 -0.302,0.517 z" /><g
     transform="translate(16.169873,44.582371)"
     id="g112">
		<path
   style="fill:#1f2259"
   inkscape:connector-curvature="0"
   id="path106"
   d="M 21.358,8.919 21.911,8.314 C 22.042,8.167 22.105,8.048 22.097,7.953 22.088,7.859 22.011,7.736 21.857,7.594 21.703,7.444 21.586,7.368 21.503,7.367 21.42,7.365 21.317,7.431 21.191,7.571 l -0.578,0.637 z m 0.697,1.458 -2.172,-2.08 0.997,-1.099 c 0.249,-0.273 0.467,-0.417 0.652,-0.433 0.186,-0.017 0.401,0.093 0.642,0.324 0.219,0.209 0.347,0.381 0.381,0.509 0.033,0.129 -0.008,0.289 -0.122,0.477 L 22.448,8.09 C 22.686,7.858 22.94,7.867 23.205,8.124 L 23.684,8.581 23.3,9.003 22.904,8.625 C 22.68,8.41 22.464,8.417 22.26,8.644 l -0.554,0.609 0.733,0.7 z" />
		<path
   style="fill:#1f2259"
   inkscape:connector-curvature="0"
   id="path108"
   d="M 24.472,6.622 24.468,6.198 25.208,6.187 C 25.156,6.092 25.12,6.026 25.1,5.995 L 24.927,5.743 24.717,5.434 C 24.559,5.201 24.42,5.079 24.302,5.066 24.185,5.053 23.994,5.141 23.735,5.328 c -0.311,0.224 -0.463,0.396 -0.458,0.515 0.003,0.118 0.17,0.422 0.5,0.905 0.248,0.365 0.428,0.562 0.536,0.586 0.113,0.023 0.336,-0.086 0.669,-0.325 0.172,-0.121 0.278,-0.258 0.324,-0.398 z m 1.761,-0.439 0.003,0.422 -0.343,0.002 C 25.848,6.873 25.615,7.16 25.192,7.463 24.726,7.797 24.38,7.941 24.153,7.894 23.923,7.844 23.633,7.567 23.289,7.06 22.888,6.471 22.697,6.052 22.716,5.807 22.735,5.56 22.979,5.267 23.451,4.928 23.918,4.591 24.263,4.45 24.494,4.506 c 0.229,0.054 0.524,0.345 0.884,0.877 0.257,0.376 0.418,0.646 0.479,0.805 z" />
		<path
   style="fill:#1f2259"
   inkscape:connector-curvature="0"
   id="path110"
   d="m 27.613,2.783 0.525,-0.208 0.707,1.893 c 0.147,0.396 0.172,0.689 0.07,0.878 C 28.815,5.53 28.537,5.714 28.08,5.897 27.598,6.086 27.258,6.15 27.063,6.088 26.867,6.026 26.698,5.802 26.552,5.411 l -0.72,-1.927 0.526,-0.208 0.718,1.929 c 0.078,0.209 0.167,0.327 0.26,0.355 0.093,0.026 0.276,-0.013 0.546,-0.12 0.277,-0.108 0.441,-0.206 0.491,-0.291 0.05,-0.085 0.033,-0.239 -0.05,-0.461 z" />
	</g><polygon
     transform="translate(16.169873,44.582371)"
     style="fill:#1f2259"
     id="polygon114"
     points="29.829,5.274 29.363,2.263 31.37,1.935 31.445,2.415 29.995,2.651 30.114,3.429 31.489,3.205 31.553,3.627 30.181,3.851 30.312,4.702 31.773,4.465 31.847,4.945 " /><g
     transform="translate(16.169873,44.582371)"
     id="g120">
		<path
   style="fill:#1f2259"
   inkscape:connector-curvature="0"
   id="path116"
   d="m 34.371,3.467 0.637,0.08 C 35.263,3.58 35.425,3.57 35.501,3.521 35.577,3.467 35.628,3.331 35.656,3.107 35.685,2.851 35.674,2.689 35.625,2.622 35.577,2.553 35.432,2.504 35.193,2.474 L 34.501,2.385 Z m -0.731,1.39 0.359,-3.025 1.189,0.149 0.146,0.017 c 0.397,0.051 0.658,0.156 0.777,0.317 0.124,0.16 0.161,0.445 0.113,0.853 -0.05,0.404 -0.147,0.665 -0.296,0.78 -0.147,0.116 -0.425,0.149 -0.826,0.098 L 34.972,4.033 34.312,3.95 34.197,4.928 Z" />
		<path
   style="fill:#1f2259"
   inkscape:connector-curvature="0"
   id="path118"
   d="m 37.507,4.005 0.769,0.256 C 38.459,4.322 38.591,4.33 38.671,4.283 38.754,4.236 38.827,4.111 38.892,3.908 38.956,3.701 38.974,3.558 38.94,3.483 38.908,3.404 38.804,3.336 38.627,3.277 l -0.805,-0.27 z m -0.992,1.262 0.918,-2.9 1.391,0.465 c 0.347,0.114 0.566,0.255 0.657,0.422 0.091,0.168 0.088,0.414 -0.014,0.736 -0.095,0.293 -0.19,0.483 -0.291,0.568 -0.1,0.085 -0.257,0.115 -0.472,0.089 l -0.006,0.02 c 0.306,0.125 0.403,0.364 0.29,0.722 L 38.787,6.027 38.253,5.847 38.418,5.32 C 38.514,5.019 38.417,4.822 38.131,4.728 L 37.36,4.468 37.05,5.445 Z" />
	</g><polygon
     transform="translate(16.169873,44.582371)"
     style="fill:#1f2259"
     id="polygon122"
     points="41.123,3.856 39.822,6.599 39.317,6.345 40.618,3.604 " /><g
     transform="translate(16.169873,44.582371)"
     id="g126">
		<path
   style="fill:#1f2259"
   inkscape:connector-curvature="0"
   id="path124"
   d="m 43.669,5.54 0.489,0.35 -2.485,1.935 -0.71,-0.508 0.927,-3.058 0.479,0.343 -0.509,1.743 c -0.051,0.167 -0.141,0.44 -0.274,0.818 l 0.014,0.01 0.163,-0.137 c 0.2,-0.172 0.364,-0.307 0.491,-0.403 z" />
	</g><path
     style="fill:#1f2259"
     inkscape:connector-curvature="0"
     id="path128"
     d="m 60.792873,53.863371 0.781,-1.469 -1.477,0.703 z m -0.215,0.389 -0.873,-0.962 -0.543,0.259 -0.407,-0.447 2.845,-1.339 0.576,0.638 -1.486,2.831 -0.399,-0.438 z" /><g
     transform="translate(16.169873,44.582371)"
     id="g134">
		<path
   style="fill:#1f2259"
   inkscape:connector-curvature="0"
   id="path130"
   d="m 45.439,11.293 0.413,0.709 c 0.139,0.237 0.281,0.357 0.427,0.362 0.149,0.005 0.402,-0.107 0.767,-0.331 0.374,-0.231 0.596,-0.409 0.66,-0.535 0.067,-0.126 0.031,-0.304 -0.103,-0.535 l -0.434,-0.738 z m -0.697,-0.245 2.543,-1.57 0.752,1.285 c 0.213,0.367 0.286,0.669 0.217,0.908 -0.071,0.244 -0.3,0.488 -0.688,0.725 -0.636,0.395 -1.078,0.589 -1.33,0.583 -0.247,-0.007 -0.493,-0.216 -0.735,-0.63 z" />
		<path
   style="fill:#1f2259"
   inkscape:connector-curvature="0"
   id="path132"
   d="m 49.069,14.358 c -0.111,-0.373 -0.222,-0.576 -0.333,-0.609 -0.111,-0.033 -0.443,0.036 -0.994,0.208 -0.407,0.129 -0.642,0.242 -0.702,0.339 -0.061,0.104 -0.041,0.333 0.066,0.69 0.104,0.344 0.21,0.534 0.322,0.575 0.116,0.037 0.411,-0.017 0.884,-0.167 0.477,-0.15 0.746,-0.27 0.813,-0.362 0.068,-0.093 0.05,-0.317 -0.056,-0.674 m 0.474,-0.105 c 0.157,0.531 0.174,0.899 0.046,1.102 -0.124,0.209 -0.484,0.404 -1.08,0.594 -0.65,0.203 -1.082,0.255 -1.297,0.154 -0.214,-0.1 -0.408,-0.444 -0.584,-1.032 -0.157,-0.531 -0.177,-0.899 -0.056,-1.107 0.121,-0.208 0.466,-0.401 1.036,-0.579 0.674,-0.213 1.122,-0.269 1.342,-0.172 0.217,0.101 0.414,0.445 0.593,1.04" />
	</g><path
     style="fill:#ffffff;stroke-width:0.06912763"
     d="m 89.445722,60.720493 c -1.918916,-0.322399 -3.362013,-1.527173 -3.780425,-3.156095 -0.144052,-0.56081 -0.144326,-1.772945 -5.3e-4,-2.335492 0.394002,-1.541375 1.613709,-2.67014 3.39355,-3.140525 0.56432,-0.149142 0.834838,-0.178656 1.70536,-0.186067 0.598489,-0.0051 1.274539,0.03127 1.603699,0.08626 l 0.56906,0.09507 v 0.753602 c 0,0.414481 -0.0177,0.753601 -0.0391,0.753601 -0.0214,0 -0.13789,-0.07324 -0.25866,-0.162749 -0.25546,-0.189353 -0.67358,-0.360868 -1.13503,-0.465592 -0.424563,-0.09636 -1.475036,-0.09366 -1.91296,0.0049 -0.866613,0.195063 -1.773293,0.871565 -2.140119,1.596806 -0.274571,0.54284 -0.375501,0.988827 -0.375501,1.659228 0,1.044823 0.31208,1.830287 1.003392,2.525413 0.802175,0.806599 1.667786,1.115711 2.961115,1.057423 0.417313,-0.0188 0.906173,-0.07254 1.086383,-0.1194 l 0.32763,-0.08521 -4.1e-4,-1.221481 c -4.1e-4,-1.395036 -0.0515,-1.66286 -0.36409,-1.910349 l -0.2218,-0.175584 0.59343,-7.68e-4 c 0.32638,-4.22e-4 0.77645,-0.02 1.00016,-0.04348 l 0.40673,-0.04271 v 2.116007 2.116008 l -0.62079,0.108479 c -0.34143,0.05966 -0.82254,0.139651 -1.06913,0.177754 -0.53154,0.08213 -2.231757,0.07898 -2.731974,-0.0051 z"
     id="path74"
     inkscape:connector-curvature="0" /><path
     style="fill:#ffffff;stroke-width:0.06912763"
     d="m 95.024566,60.423345 c 0.0973,-0.09058 0.21031,-0.285431 0.2511,-0.432995 0.1018,-0.368195 0.1018,-6.88848 0,-7.256675 -0.0408,-0.147564 -0.14865,-0.337632 -0.23969,-0.422372 l -0.16552,-0.154073 0.878112,-0.04498 c 3.03623,-0.155533 4.03116,0.08953 4.596102,1.132058 0.62849,1.159819 -0.0615,2.654453 -1.441772,3.123235 -0.15175,0.05154 -0.28668,0.100385 -0.29985,0.108552 -0.0132,0.0082 0.47176,0.632733 1.07762,1.387927 1.001682,1.248568 1.505572,1.776935 2.133602,2.237217 0.26393,0.193436 0.32863,0.15754 0.58771,-0.32603 0.28829,-0.538112 2.75301,-6.782438 2.79182,-7.073036 0.0303,-0.226923 0.009,-0.287941 -0.14102,-0.406582 l -0.17669,-0.139589 0.56569,-0.04423 c 0.31113,-0.02433 0.76745,-0.04425 1.01404,-0.04427 l 0.44834,-3.2e-5 1.33852,3.307697 c 1.6969,4.193336 1.90465,4.645006 2.25542,4.903366 0.1478,0.108869 0.29823,0.223047 0.33427,0.253727 0.0361,0.03068 -0.5537,0.05526 -1.31055,0.05461 l -1.37608,-0.0012 0.22417,-0.144194 c 0.16985,-0.109257 0.22418,-0.193742 0.22418,-0.348683 0,-0.11247 -0.20914,-0.749054 -0.46477,-1.414634 l -0.46477,-1.210149 -1.62177,0.01853 -1.62177,0.01853 -0.40444,1.108467 c -0.22245,0.609657 -0.40823,1.22822 -0.41286,1.374585 -0.008,0.262351 0.006,0.283525 0.34574,0.511796 0.10153,0.06822 -0.2226,0.08198 -1.63222,0.06928 l -1.7589,-0.01585 -0.31907,-0.188397 c -0.407142,-0.240387 -1.829872,-1.985415 -2.652042,-3.252811 -0.32309,-0.498045 -0.57826,-0.913962 -0.56706,-0.924259 0.0113,-0.01029 0.21834,-0.06924 0.46031,-0.130994 0.65697,-0.16766 1.24311,-0.50657 1.4896,-0.861291 0.18552,-0.266979 0.20874,-0.356103 0.20874,-0.801481 0,-0.427564 -0.0272,-0.542358 -0.18505,-0.78225 -0.27922,-0.424214 -0.77014,-0.644834 -1.43219,-0.643631 -0.28657,5.19e-4 -0.59247,0.02017 -0.67979,0.04366 l -0.15877,0.04271 0.0214,3.402982 c 0.023,3.654065 0.0251,3.67607 0.38452,3.974192 l 0.18751,0.155535 -1.23441,3.44e-4 -1.234402,3.44e-4 z m 12.177804,-4.082459 c -0.06,-0.243351 -1.13061,-2.957878 -1.16656,-2.957878 -0.0228,0 -0.2686,0.584543 -0.54628,1.298985 -0.27768,0.714441 -0.54675,1.400305 -0.59794,1.524141 l -0.093,0.225157 h 1.21306 c 0.96311,0 1.20848,-0.01862 1.19077,-0.0904 z"
     id="path76"
     inkscape:connector-curvature="0" /><path
     style="fill:#ffffff;stroke-width:0.06912763"
     d="m 118.92771,60.793675 c -0.21571,-0.111858 -0.54371,-0.355552 -0.72889,-0.541541 -0.18518,-0.18599 -1.37442,-1.655361 -2.64275,-3.265269 l -2.30608,-2.927106 -0.0205,2.58867 c -0.0252,3.181989 -0.0181,3.258972 0.33777,3.616378 0.148,0.148641 0.26908,0.282176 0.26908,0.296746 0,0.01456 -0.51215,0.02649 -1.13812,0.02649 h -1.13811 l 0.27094,-0.272123 c 0.20604,-0.206952 0.28451,-0.352128 0.32764,-0.606192 0.0312,-0.183737 0.0567,-1.752561 0.0567,-3.486272 0,-3.463645 -0.005,-3.509672 -0.40957,-3.86656 l -0.22871,-0.20169 0.56056,-0.04384 c 0.3083,-0.02411 0.73127,-0.04382 0.93992,-0.04381 0.34126,2e-5 0.39029,0.01913 0.48803,0.190102 0.0998,0.174503 4.64461,5.945306 4.86927,6.182727 0.0852,0.09003 0.0956,-0.275614 0.0778,-2.736527 -0.0225,-3.117706 -0.0244,-3.132068 -0.45095,-3.411346 l -0.18618,-0.121892 0.48076,-0.04335 c 0.26442,-0.02385 0.79025,-0.04723 1.16851,-0.05196 l 0.68775,-0.0086 -0.26409,0.257645 c -0.14526,0.141704 -0.29904,0.336552 -0.34175,0.432995 -0.0538,0.121439 -0.0845,1.41604 -0.10005,4.210861 -0.017,3.066201 -0.0422,4.034711 -0.1046,4.032179 -0.0452,-0.0018 -0.25868,-0.09485 -0.47439,-0.206709 z"
     id="path78"
     inkscape:connector-curvature="0" /><path
     style="fill:#ffffff;stroke-width:0.06912763"
     d="m 121.44254,60.423345 c 0.0973,-0.09058 0.21031,-0.285431 0.2511,-0.432995 0.0966,-0.349442 0.10295,-6.958816 0.007,-7.300591 -0.0374,-0.133111 -0.15376,-0.31201 -0.25867,-0.397553 l -0.19072,-0.155534 0.55181,-0.0088 c 0.30349,-0.0048 1.36431,-0.02837 2.35737,-0.0523 l 1.80556,-0.0435 0.0396,0.199178 c 0.0218,0.109547 0.0395,0.465105 0.0395,0.790128 0,0.563025 -0.006,0.585657 -0.12323,0.47894 -0.0678,-0.06161 -0.27691,-0.180287 -0.46474,-0.26374 -0.29451,-0.130846 -0.45818,-0.150847 -1.18908,-0.145311 -0.46617,0.0035 -0.90886,0.02596 -0.98377,0.04983 -0.12859,0.04099 -0.13618,0.109348 -0.13618,1.223895 v 1.18048 l 1.06913,-0.02474 1.06914,-0.02475 v 0.67757 0.67757 l -0.21243,-0.157953 c -0.18934,-0.140733 -0.30587,-0.160455 -1.06919,-0.180921 l -0.85671,-0.02297 v 1.486088 1.486088 l 0.25867,0.04324 c 0.14225,0.02379 0.65236,0.06374 1.13355,0.08878 1.07859,0.05614 1.54975,-0.03139 2.16052,-0.401383 0.24219,-0.146712 0.45527,-0.266749 0.47352,-0.266749 0.0183,0 -0.0914,0.374107 -0.24371,0.83135 l -0.27689,0.831349 h -2.69408 -2.69408 z"
     id="path80"
     inkscape:connector-curvature="0" /><path
     style="fill:#ffffff;stroke-width:0.06912763"
     d="m 128.37966,60.413223 c 0.33251,-0.281015 0.35554,-0.546211 0.35554,-4.093222 0,-3.485707 -0.0207,-3.726318 -0.34637,-4.001448 l -0.19156,-0.161894 0.8725,-0.0447 c 1.98208,-0.101538 3.04958,-0.03385 3.64614,0.231193 0.42618,0.189346 0.95681,0.717668 1.10303,1.098222 0.1744,0.453905 0.15583,1.124224 -0.0439,1.583671 -0.19294,0.443862 -0.76273,1.001451 -1.26187,1.234849 -0.2,0.09352 -0.40245,0.170345 -0.44987,0.170718 -0.0474,3.73e-4 -0.0862,0.01991 -0.0862,0.04343 0,0.09203 2.08019,2.65041 2.39709,2.948139 0.18504,0.173829 0.59317,0.50726 0.90698,0.740956 l 0.57056,0.4249 h -0.8903 c -1.27177,0 -1.37627,-0.05967 -2.48714,-1.420223 -0.70999,-0.869574 -1.94836,-2.620908 -2.06017,-2.913544 -0.0196,-0.05126 0.14242,-0.12511 0.43816,-0.199723 0.70039,-0.176706 1.24776,-0.495299 1.47832,-0.860452 0.49739,-0.787745 0.23379,-1.716976 -0.59492,-2.097149 -0.2778,-0.127443 -1.12667,-0.17722 -1.46575,-0.08595 l -0.15519,0.04177 v 3.244631 c 0,3.604646 0.0212,3.841683 0.36771,4.116038 l 0.21858,0.173064 -1.26411,7.69e-4 -1.26411,7.68e-4 z"
     id="path82"
     inkscape:connector-curvature="0" /><path
     style="fill:#ffffff;stroke-width:0.06912763"
     d="m 138.63332,60.659215 c -0.65503,-0.175056 -0.95306,-0.30857 -1.49774,-0.670982 -1.29648,-0.86264 -1.99297,-2.295287 -1.89465,-3.897257 0.0729,-1.187576 0.40258,-1.904507 1.28038,-2.784156 0.47596,-0.476957 0.71147,-0.653057 1.18083,-0.882956 0.87753,-0.429819 1.32724,-0.529134 2.37969,-0.525531 1.51564,0.0052 2.3449,0.337276 3.35284,1.342692 0.91814,0.915837 1.27018,1.77696 1.26175,3.086348 -0.0115,1.780489 -0.90337,3.174151 -2.56916,4.014447 -0.90606,0.457057 -2.4474,0.597075 -3.49394,0.317395 z m 2.26384,-0.936833 c 0.52778,-0.138073 0.89469,-0.333261 1.25702,-0.668707 0.78803,-0.729568 1.1515,-1.834055 1.0008,-3.041169 -0.12259,-0.981978 -0.4939,-1.75278 -1.14721,-2.381509 -1.12242,-1.080186 -3.15111,-1.032841 -4.28177,0.09993 -1.06741,1.069387 -1.28246,2.783987 -0.53572,4.271227 0.27518,0.548053 0.83075,1.167244 1.28971,1.437393 0.62605,0.368503 1.63737,0.48684 2.41717,0.282837 z"
     id="path84"
     inkscape:connector-curvature="0" /><path
     style="fill:#ffffff;stroke-width:0.06912763"
     d="m 146.81346,60.720768 c -0.16717,-0.03296 -0.46877,-0.108051 -0.6702,-0.166864 -0.40561,-0.118433 -0.37316,-0.05999 -0.60853,-1.095947 -0.15992,-0.703889 -0.15767,-0.706822 0.30219,-0.39155 0.22518,0.15438 0.58989,0.354249 0.81047,0.444151 1.84916,0.753664 3.72539,0.02102 3.33433,-1.30201 -0.14303,-0.483875 -0.53439,-0.783118 -2.00353,-1.531913 -1.96396,-1.000998 -2.30927,-1.384726 -2.30927,-2.566195 0,-0.554357 0.021,-0.659201 0.18832,-0.945286 0.32026,-0.547185 0.86199,-0.907603 1.71345,-1.139983 0.6197,-0.16913 1.98636,-0.171347 2.7024,-0.0044 l 0.53456,0.124649 v 0.760874 0.760871 L 150.58058,53.4932 c -1.31111,-1.004427 -3.42725,-0.717541 -3.42841,0.464791 -6.1e-4,0.628426 0.39111,0.971605 2.07578,1.818525 1.90018,0.95527 2.29924,1.368946 2.30237,2.386744 0.002,0.681816 -0.21962,1.154321 -0.79098,1.685613 -0.75244,0.699688 -1.49984,0.95121 -2.79145,0.939404 -0.45675,-0.0042 -0.96725,-0.03456 -1.13443,-0.06752 z"
     id="path86"
     inkscape:connector-curvature="0" /><path
     style="fill:#ffffff;stroke-width:0.06912763"
     d="m 148.32451,70.380692 c -0.0948,-0.01441 -0.36169,-0.07464 -0.59301,-0.133948 l -0.42057,-0.107831 -0.13807,-0.618682 c -0.0759,-0.340277 -0.12426,-0.618684 -0.1074,-0.618684 0.0168,0 0.11305,0.05835 0.21375,0.129668 0.60651,0.42956 1.39321,0.67021 2.00795,0.614224 1.16836,-0.106413 1.61671,-0.972524 0.85235,-1.646581 -0.13051,-0.115081 -0.66459,-0.424254 -1.18686,-0.687034 -1.12354,-0.565314 -1.31992,-0.71841 -1.56385,-1.219162 -0.15547,-0.319189 -0.17967,-0.4463 -0.15596,-0.819954 0.0434,-0.684668 0.3495,-1.045127 1.17048,-1.378352 0.31295,-0.127024 0.50687,-0.150029 1.26623,-0.150224 0.52182,-1.33e-4 1.01925,0.03633 1.18985,0.08721 l 0.29315,0.08744 v 0.551563 c 0,0.30336 -0.0185,0.551563 -0.0411,0.551563 -0.0226,0 -0.13188,-0.06494 -0.24287,-0.144313 -0.30113,-0.215362 -0.91106,-0.40997 -1.28354,-0.409533 -0.76237,8.95e-4 -1.19156,0.29026 -1.19156,0.803361 0,0.47368 0.24542,0.691201 1.51473,1.342498 1.21807,0.625007 1.58851,0.939113 1.73002,1.466936 0.24577,0.916746 -0.54301,1.920101 -1.75901,2.237515 -0.37482,0.09783 -1.12241,0.127806 -1.55472,0.06232 z"
     id="path88"
     inkscape:connector-curvature="0" /><path
     style="fill:#ffffff;stroke-width:0.06912763"
     d="m 135.2817,70.120623 c 0.0857,-0.09158 0.18345,-0.286423 0.21731,-0.432996 0.0816,-0.353055 0.0795,-4.899616 -0.002,-5.254592 -0.0352,-0.152414 -0.13069,-0.331439 -0.21229,-0.397832 -0.23094,-0.187907 -0.0814,-0.206097 1.4662,-0.178308 1.28991,0.02316 1.42832,0.03791 1.76146,0.187681 0.908,0.408216 1.22892,1.361576 0.74026,2.199079 -0.20049,0.343616 -0.4908,0.584312 -0.95177,0.789115 l -0.3252,0.144477 0.84957,1.051146 c 0.46726,0.57813 1.01696,1.188201 1.22155,1.355715 0.36985,0.30281 0.37266,0.303746 0.48724,0.161614 0.13685,-0.169728 2.20373,-5.332548 2.20373,-5.504621 0,-0.06526 -0.0621,-0.157602 -0.13795,-0.205193 -0.0759,-0.04759 -0.13795,-0.110208 -0.13795,-0.139146 0,-0.02894 0.34919,-0.05188 0.77599,-0.05098 l 0.77598,0.0016 0.85587,2.128702 c 1.43361,3.565648 1.50451,3.723119 1.795,3.986714 l 0.26098,0.236809 -0.45577,0.04325 c -0.25067,0.02379 -0.70376,0.04347 -1.00687,0.04374 l -0.55111,4.92e-4 0.18899,-0.176002 c 0.10394,-0.09681 0.18819,-0.213712 0.18722,-0.259798 -9.7e-4,-0.04609 -0.16771,-0.504665 -0.37053,-1.019064 l -0.36867,-0.935265 h -1.19711 -1.1971 l -0.29438,0.796711 c -0.40474,1.095444 -0.41882,1.193716 -0.19622,1.36959 l 0.1796,0.141906 -0.59833,0.05006 c -0.82565,0.06908 -1.65728,0.0064 -1.97973,-0.149066 -0.18115,-0.08737 -0.47977,-0.393555 -0.94557,-0.969552 -0.58469,-0.723015 -1.51559,-2.059413 -1.51359,-2.172916 3.5e-4,-0.02017 0.23107,-0.1069 0.5127,-0.192784 0.62372,-0.1902 0.95366,-0.472102 1.07284,-0.916639 0.10919,-0.407316 0.006,-0.752626 -0.3095,-1.030389 -0.27193,-0.239817 -0.52642,-0.304995 -1.06974,-0.273976 l -0.37937,0.02166 -0.0199,2.424769 c -0.011,1.333625 -0.001,2.529577 0.0219,2.657669 0.0229,0.128094 0.11198,0.303467 0.19784,0.389719 l 0.15614,0.156826 -0.41224,0.04327 c -0.22673,0.02381 -0.6459,0.04327 -0.93147,0.04327 h -0.51929 z m 8.56428,-4.042208 c -0.21783,-0.562027 -0.41904,-1.084219 -0.44713,-1.160426 -0.0389,-0.105601 -0.14822,0.108619 -0.45945,0.900629 -0.22461,0.571553 -0.42611,1.093746 -0.44778,1.160427 -0.0362,0.111268 0.0342,0.121244 0.85551,0.121244 h 0.89491 z"
     id="path90"
     inkscape:connector-curvature="0" /><path
     style="fill:#ffffff;stroke-width:0.06912763"
     d="m 128.0579,70.060937 c 0.13963,-0.123262 0.33206,-0.383656 0.42762,-0.578638 0.20573,-0.419789 1.94794,-4.781917 2.01159,-5.036626 0.057,-0.228089 -0.019,-0.462953 -0.14967,-0.462953 -0.0566,0 -0.0837,-0.03118 -0.0603,-0.06928 0.0242,-0.03927 0.36533,-0.06928 0.78752,-0.06928 h 0.74489 l 1.08828,2.684568 c 1.25977,3.107597 1.34255,3.285387 1.6281,3.49666 l 0.21328,0.157824 -0.33419,0.04589 c -0.47112,0.06469 -1.61025,0.06853 -1.61025,0.0053 0,-0.02893 0.0621,-0.09156 0.13795,-0.139157 0.0759,-0.0476 0.13796,-0.150796 0.13796,-0.229344 0,-0.07855 -0.16286,-0.561505 -0.36192,-1.073239 l -0.3619,-0.93043 h -1.18511 -1.1851 l -0.15067,0.398357 c -0.51539,1.362709 -0.57341,1.675751 -0.34094,1.839298 0.12798,0.09003 0.10509,0.101425 -0.28602,0.142483 -0.23382,0.02454 -0.64561,0.04416 -0.91508,0.04361 l -0.48997,-10e-4 z m 3.98784,-2.977974 c -1.8e-4,-0.0095 -0.19976,-0.531717 -0.44348,-1.160426 -0.39237,-1.012117 -0.4507,-1.123259 -0.50903,-0.969908 -0.12969,0.340995 -0.55217,1.42692 -0.69402,1.783939 l -0.14451,0.363714 h 0.89569 c 0.49263,0 0.89554,-0.0078 0.89535,-0.01729 z"
     id="path92"
     inkscape:connector-curvature="0" /><path
     style="fill:#ffffff;stroke-width:0.06912763"
     d="m 124.97366,70.380629 c -0.37318,-0.248422 -0.6479,-0.509797 -0.75363,-0.717018 -0.0486,-0.09526 -0.50082,-1.29552 -1.00492,-2.667248 -0.86562,-2.355459 -1.07299,-2.832494 -1.28932,-2.965941 -0.20147,-0.124279 0.023,-0.18626 0.67458,-0.18626 0.64712,0 0.6857,0.008 0.6857,0.143203 0,0.202144 1.74526,4.992067 1.79641,4.93031 0.0458,-0.05529 1.07096,-2.757807 1.38583,-3.65329 0.2345,-0.666906 0.25154,-1.003327 0.0596,-1.177745 -0.0759,-0.06897 -0.13795,-0.151738 -0.13795,-0.183935 0,-0.0322 0.32923,-0.05854 0.73163,-0.05854 0.66825,0 0.72767,0.01051 0.68586,0.121237 -0.44548,1.179965 -2.4793,6.448978 -2.51341,6.511495 -0.0343,0.06292 -0.11992,0.0372 -0.32042,-0.09626 z"
     id="path94"
     inkscape:connector-curvature="0" /><path
     style="fill:#ffffff;stroke-width:0.06912763"
     d="m 114.40622,70.325423 c -1.74242,-0.398997 -2.87356,-2.062016 -2.58306,-3.797661 0.12316,-0.735914 0.40998,-1.269574 0.96324,-1.792269 0.75426,-0.712586 1.5665,-1.029889 2.63635,-1.029889 1.06932,0 1.80832,0.29407 2.52282,1.003917 0.93095,0.924868 1.20931,2.289425 0.72707,3.564137 -0.33531,0.886339 -1.20597,1.670595 -2.20707,1.988035 -0.46868,0.148623 -1.54341,0.181877 -2.05935,0.06374 z m 2.01669,-0.875812 c 1.53619,-0.72155 1.78913,-3.055511 0.47426,-4.376153 -0.42424,-0.426105 -0.89225,-0.605783 -1.57788,-0.605783 -0.97755,0 -1.69766,0.44237 -2.11849,1.301418 -0.21291,0.434606 -0.22667,0.507127 -0.2261,1.191418 5.4e-4,0.650207 0.0212,0.772872 0.19156,1.139479 0.34886,0.750579 0.81401,1.209861 1.46183,1.443386 0.48068,0.173275 1.3196,0.129447 1.79483,-0.09375 z"
     id="path96"
     inkscape:connector-curvature="0" /><path
     style="fill:#ffffff;stroke-width:0.06912763"
     d="m 108.38716,70.217845 c 0,-0.03811 0.0302,-0.06928 0.0672,-0.06928 0.037,0 0.12232,-0.101314 0.18969,-0.225156 0.10981,-0.201874 0.12473,-0.489226 0.14435,-2.779196 l 0.0219,-2.554039 -0.71316,0.02651 c -0.58732,0.02184 -0.76007,0.05431 -0.97899,0.184043 -0.1462,0.08664 -0.2794,0.143881 -0.29601,0.127203 -0.0166,-0.01667 0.0366,-0.275144 0.11824,-0.574368 l 0.14844,-0.544044 h 2.37277 c 2.07697,0 2.36888,0.01295 2.34163,0.103919 -0.0172,0.05715 -0.0644,0.259797 -0.10518,0.450315 -0.13393,0.626612 -0.11833,0.607615 -0.35478,0.431879 -0.17338,-0.128853 -0.31701,-0.158781 -0.85791,-0.178769 l -0.64967,-0.02401 v 2.468324 c 0,2.627802 0.0203,2.809675 0.33857,3.033581 0.13707,0.09644 0.11703,0.105637 -0.32035,0.147116 -0.70747,0.06711 -1.46672,0.05467 -1.46672,-0.02403 z"
     id="path98"
     inkscape:connector-curvature="0" /><path
     style="fill:#ffffff;stroke-width:0.06912763"
     d="m 102.31723,70.217845 c 0,-0.03811 0.0326,-0.06928 0.0725,-0.06928 0.0399,0 0.11747,-0.108119 0.17245,-0.240251 0.0812,-0.195267 0.0999,-0.725274 0.0999,-2.830108 0,-2.594821 -0.0302,-2.969871 -0.24623,-3.053117 -0.0542,-0.02091 -0.0986,-0.07281 -0.0986,-0.115329 0,-0.05524 0.42974,-0.07069 1.50538,-0.05413 l 1.50537,0.02318 0.40605,0.208707 c 0.55074,0.283077 0.80586,0.648806 0.84653,1.213547 0.0207,0.287519 -0.006,0.513499 -0.0854,0.722325 -0.13778,0.362374 -0.61537,0.82633 -1.04883,1.018913 -0.2153,0.09566 -0.29065,0.162301 -0.24761,0.218988 1.09882,1.447068 1.81877,2.230481 2.50213,2.722714 l 0.37275,0.268493 -0.48125,0.02263 c -0.57583,0.02707 -1.13231,-0.08342 -1.37143,-0.272345 -0.27309,-0.215752 -1.28357,-1.489041 -1.82531,-2.300038 -0.27055,-0.405016 -0.49191,-0.749547 -0.49191,-0.765629 0,-0.01618 0.11639,-0.05077 0.25867,-0.07706 0.14225,-0.02631 0.39795,-0.109229 0.56819,-0.184294 0.56182,-0.247693 0.82876,-0.606532 0.82832,-1.113486 -5.6e-4,-0.649773 -0.47947,-1.025309 -1.30755,-1.025309 h -0.4856 v 2.602524 c 0,2.644181 0.0135,2.796227 0.26267,2.980851 0.0793,0.05873 0.005,0.08588 -0.33178,0.121244 -0.64891,0.06813 -1.37939,0.05556 -1.37939,-0.02372 z"
     id="path101"
     inkscape:connector-curvature="0" /><path
     style="fill:#ffffff;stroke-width:0.06912763"
     d="m 97.409528,70.125019 c 0.0834,-0.08916 0.18192,-0.268211 0.21896,-0.397897 0.0382,-0.133637 0.0673,-1.309933 0.0673,-2.715205 0,-2.614585 -0.0251,-2.850554 -0.32118,-3.017462 -0.22368,-0.126104 0.007,-0.14763 1.78698,-0.166669 l 1.707222,-0.01827 -6e-5,0.577204 -5e-5,0.577203 -0.25333,-0.157256 c -0.19377,-0.120277 -0.38745,-0.164325 -0.823662,-0.187322 -0.31368,-0.01654 -0.6808,-0.0092 -0.8158,0.01618 l -0.24548,0.04625 v 0.867044 0.867045 l 0.79337,-0.0215 0.793362,-0.0215 -1.3e-4,0.54765 -1.4e-4,0.547651 -0.14186,-0.128936 c -0.11127,-0.101138 -0.282332,-0.135124 -0.793232,-0.157559 l -0.65136,-0.02862 v 1.10922 c 0,1.289486 -0.10898,1.152464 0.97871,1.230622 0.788522,0.05666 1.211352,-0.02476 1.680572,-0.323646 0.17744,-0.113019 0.33196,-0.19611 0.34335,-0.184648 0.0115,0.01153 -0.0712,0.309242 -0.18362,0.661699 l -0.20435,0.640831 h -2.043602 -2.04362 z"
     id="path103"
     inkscape:connector-curvature="0" /><path
     style="fill:#ffffff;stroke-width:0.06912763"
     d="m 92.488086,70.332914 c -0.4651,-0.121665 -0.71048,-0.261294 -1.01403,-0.576992 -0.484761,-0.504153 -0.493537,-0.555142 -0.535134,-3.109243 -0.03315,-2.035798 -0.05083,-2.31025 -0.159584,-2.476731 -0.06726,-0.102974 -0.154463,-0.187228 -0.193752,-0.187228 -0.03931,0 -0.05227,-0.03118 -0.02883,-0.06928 0.0249,-0.04045 0.41662,-0.06928 0.94139,-0.06928 h 0.89875 l -0.17351,0.207122 c -0.23915,0.285456 -0.26964,0.629971 -0.23948,2.706208 0.0274,1.888359 0.0613,2.088063 0.42127,2.481318 0.51482,0.562463 1.67521,0.556643 2.25596,-0.01131 0.40057,-0.391741 0.41362,-0.474768 0.4132,-2.627266 -4e-4,-2.027373 -0.041,-2.403176 -0.27776,-2.569726 -0.0742,-0.05217 -0.11434,-0.11544 -0.0893,-0.1406 0.0564,-0.05665 1.815942,-0.06139 1.815942,-0.0049 0,0.02247 -0.0636,0.09262 -0.14136,0.155877 -0.0777,0.06326 -0.17013,0.239726 -0.20527,0.392141 -0.0352,0.152414 -0.0639,1.337088 -0.0639,2.632607 0,1.29552 0.0288,2.480194 0.0639,2.632608 0.0352,0.152414 0.12601,0.327645 0.20192,0.389402 0.13281,0.108076 0.12608,0.113928 -0.17866,0.155873 -0.17415,0.02396 -0.49855,0.04358 -0.720882,0.04358 h -0.40423 v -0.289193 -0.289192 l -0.15539,0.146628 c -0.0855,0.08065 -0.33181,0.22775 -0.54743,0.326896 -0.47865,0.220097 -1.3515,0.289899 -1.88379,0.15064 z"
     id="path105"
     inkscape:connector-curvature="0" /><path
     style="fill:#ffffff;stroke-width:0.06912763"
     d="m 85.821486,70.125019 c 0.08339,-0.08916 0.181921,-0.268211 0.218959,-0.397897 0.03816,-0.133637 0.06732,-1.309933 0.06732,-2.715205 0,-2.614585 -0.02512,-2.850554 -0.321175,-3.017462 -0.117028,-0.06597 -0.117822,-0.07531 -0.01015,-0.116995 0.06439,-0.02491 0.778284,-0.03469 1.586458,-0.02172 1.451335,0.02329 1.474723,0.02604 1.901329,0.223666 0.766351,0.355017 1.107825,0.916108 1.02883,1.690521 -0.06913,0.677785 -0.547816,1.23334 -1.304794,1.514352 -0.335137,0.124415 -1.267976,0.158555 -1.450178,0.05307 -0.09864,-0.05711 -0.04373,-0.08657 0.290659,-0.155939 0.809342,-0.167911 1.349574,-0.802491 1.295311,-1.521548 -0.04805,-0.636864 -0.435853,-0.975782 -1.185668,-1.036234 -0.241585,-0.01949 -0.519517,-0.01519 -0.617625,0.0096 l -0.178368,0.04497 0.0016,2.336851 c 9.05e-4,1.285269 0.03037,2.461554 0.06547,2.613968 0.03715,0.161282 0.13952,0.337839 0.244909,0.422395 l 0.181083,0.145275 -0.532869,0.04525 c -0.293078,0.02487 -0.735353,0.04525 -0.982834,0.04525 h -0.449962 z"
     id="path107"
     inkscape:connector-curvature="0" /></g>
</g>
</svg>